G75*
G70*
%OFA0B0*%
%FSLAX24Y24*%
%IPPOS*%
%LPD*%
%AMOC8*
5,1,8,0,0,1.08239X$1,22.5*
%
%ADD10C,0.0000*%
%ADD11R,0.0260X0.0800*%
%ADD12R,0.0433X0.0394*%
%ADD13R,0.0394X0.0433*%
%ADD14R,0.0700X0.2000*%
%ADD15R,0.0240X0.0870*%
%ADD16R,0.1000X0.1000*%
%ADD17R,0.0630X0.0709*%
%ADD18R,0.0880X0.0480*%
%ADD19R,0.0866X0.1417*%
%ADD20R,0.0512X0.0591*%
%ADD21R,0.0870X0.0240*%
%ADD22R,0.0906X0.0906*%
%ADD23R,0.0630X0.1299*%
%ADD24R,0.0709X0.0630*%
D10*
X000655Y000655D02*
X000655Y020340D01*
X020340Y020340D01*
X020340Y000655D01*
X000655Y000655D01*
X010189Y005780D02*
X010191Y005828D01*
X010197Y005876D01*
X010207Y005923D01*
X010220Y005969D01*
X010238Y006014D01*
X010258Y006058D01*
X010283Y006100D01*
X010311Y006139D01*
X010341Y006176D01*
X010375Y006210D01*
X010412Y006242D01*
X010450Y006271D01*
X010491Y006296D01*
X010534Y006318D01*
X010579Y006336D01*
X010625Y006350D01*
X010672Y006361D01*
X010720Y006368D01*
X010768Y006371D01*
X010816Y006370D01*
X010864Y006365D01*
X010912Y006356D01*
X010958Y006344D01*
X011003Y006327D01*
X011047Y006307D01*
X011089Y006284D01*
X011129Y006257D01*
X011167Y006227D01*
X011202Y006194D01*
X011234Y006158D01*
X011264Y006120D01*
X011290Y006079D01*
X011312Y006036D01*
X011332Y005992D01*
X011347Y005947D01*
X011359Y005900D01*
X011367Y005852D01*
X011371Y005804D01*
X011371Y005756D01*
X011367Y005708D01*
X011359Y005660D01*
X011347Y005613D01*
X011332Y005568D01*
X011312Y005524D01*
X011290Y005481D01*
X011264Y005440D01*
X011234Y005402D01*
X011202Y005366D01*
X011167Y005333D01*
X011129Y005303D01*
X011089Y005276D01*
X011047Y005253D01*
X011003Y005233D01*
X010958Y005216D01*
X010912Y005204D01*
X010864Y005195D01*
X010816Y005190D01*
X010768Y005189D01*
X010720Y005192D01*
X010672Y005199D01*
X010625Y005210D01*
X010579Y005224D01*
X010534Y005242D01*
X010491Y005264D01*
X010450Y005289D01*
X010412Y005318D01*
X010375Y005350D01*
X010341Y005384D01*
X010311Y005421D01*
X010283Y005460D01*
X010258Y005502D01*
X010238Y005546D01*
X010220Y005591D01*
X010207Y005637D01*
X010197Y005684D01*
X010191Y005732D01*
X010189Y005780D01*
D11*
X013905Y011225D03*
X014405Y011225D03*
X014905Y011225D03*
X015405Y011225D03*
X015905Y011225D03*
X016405Y011225D03*
X016905Y011225D03*
X017405Y011225D03*
X017905Y011225D03*
X017905Y015085D03*
X017405Y015085D03*
X016905Y015085D03*
X016405Y015085D03*
X015905Y015085D03*
X015405Y015085D03*
X014905Y015085D03*
X014405Y015085D03*
X013905Y015085D03*
D12*
X014655Y016320D03*
X014655Y016990D03*
X015655Y016990D03*
X015655Y016320D03*
X016655Y016320D03*
X016655Y016990D03*
X017655Y016990D03*
X017655Y016320D03*
X018655Y016320D03*
X018655Y016990D03*
X012655Y016990D03*
X012655Y016320D03*
X011490Y013655D03*
X010820Y013655D03*
X010655Y012490D03*
X010655Y011820D03*
X009655Y011820D03*
X009655Y012490D03*
X011655Y012490D03*
X011655Y011820D03*
X014155Y009990D03*
X014155Y009320D03*
X015155Y009320D03*
X015155Y009990D03*
X016155Y009990D03*
X016155Y009320D03*
X015820Y008155D03*
X016490Y008155D03*
X017320Y006655D03*
X017990Y006655D03*
X018820Y007655D03*
X019490Y007655D03*
X017905Y004490D03*
X017905Y003820D03*
X014490Y008155D03*
X013820Y008155D03*
X011990Y001655D03*
X011320Y001655D03*
D13*
X017320Y005655D03*
X017990Y005655D03*
X018820Y006655D03*
X019490Y006655D03*
X017990Y007655D03*
X017320Y007655D03*
X017655Y009320D03*
X017655Y009990D03*
X012655Y011820D03*
X012655Y012490D03*
X012655Y013820D03*
X012655Y014490D03*
X013655Y016320D03*
X013655Y016990D03*
X009655Y010990D03*
X009655Y010320D03*
X009655Y009490D03*
X009655Y008820D03*
X019655Y016320D03*
X019655Y016990D03*
D14*
X019155Y014555D03*
X019155Y010755D03*
D15*
X011905Y010685D03*
X011405Y010685D03*
X010905Y010685D03*
X010405Y010685D03*
X010405Y008625D03*
X010905Y008625D03*
X011405Y008625D03*
X011905Y008625D03*
D16*
X011155Y014730D03*
X011155Y016580D03*
D17*
X018604Y018655D03*
X018604Y019655D03*
X019706Y019655D03*
X019706Y018655D03*
X012206Y003655D03*
X012206Y002655D03*
X011104Y002655D03*
X011104Y003655D03*
D18*
X017375Y017745D03*
X017375Y018655D03*
X017375Y019565D03*
D19*
X014935Y018655D03*
D20*
X018781Y017655D03*
X019529Y017655D03*
D21*
X016238Y007405D03*
X016238Y006905D03*
X016238Y006405D03*
X016238Y005905D03*
X014072Y005905D03*
X014072Y006405D03*
X014072Y006905D03*
X014072Y007405D03*
D22*
X015155Y006655D03*
D23*
X013403Y003155D03*
X016907Y003155D03*
D24*
X019155Y003604D03*
X019155Y004706D03*
M02*
