%
M48
M72
T01C0.0197
T02C0.0276
T03C0.0394
T04C0.0400
T05C0.0709
T06C0.1181
%
T01
X3155Y4655
X4155Y6530
X3155Y6655
X4655Y7405
X3905Y8655
X3530Y9655
X3905Y10655
X3905Y12655
X3905Y14655
X10405Y9405
X10905Y9905
X11405Y9905
X11905Y9405
X13155Y9780
X13155Y10280
X15405Y13030
X15905Y12655
X16405Y13780
X16905Y13405
X14905Y14155
X13530Y15655
X13030Y15655
X14155Y15905
X14155Y17530
X12155Y17655
X18030Y8155
X16530Y5405
X16030Y5405
X14280Y5405
X13780Y5405
X13030Y6530
X9280Y4155
X9280Y3655
X9280Y3155
X10780Y1655
X10780Y1155
T02
X12905Y2155
X19155Y2905
X16155Y19655
T03
X9280Y2280
X9280Y1280
T04
X9655Y18655
X8655Y18655
X7655Y18655
X6655Y18655
X5655Y18655
X4655Y18655
X3655Y18655
X2655Y18655
X1655Y18655
X1655Y19655
X2655Y19655
X3655Y19655
X4655Y19655
X5655Y19655
X6655Y19655
X7655Y19655
X8655Y19655
X9655Y19655
X10655Y19655
X10655Y18655
X11655Y18655
X12655Y18655
X12655Y19655
X11655Y19655
X13655Y19655
X13655Y18655
T05
X8407Y15303
X7155Y15303
X7155Y12354
X8407Y12354
X8407Y9405
X7155Y9405
X7155Y6456
X8407Y6456
X8407Y3507
X7155Y3507
T06
X1986Y1637
X10780Y5780
X1986Y17173
M30
