G75*
G70*
%OFA0B0*%
%FSLAX24Y24*%
%IPPOS*%
%LPD*%
%AMOC8*
5,1,8,0,0,1.08239X$1,22.5*
%
%ADD10C,0.0000*%
%ADD11R,0.0260X0.0800*%
%ADD12R,0.0433X0.0394*%
%ADD13R,0.0394X0.0433*%
%ADD14R,0.0700X0.2000*%
%ADD15R,0.0240X0.0870*%
%ADD16C,0.1181*%
%ADD17C,0.1581*%
%ADD18R,0.1000X0.1000*%
%ADD19R,0.0630X0.0709*%
%ADD20R,0.0880X0.0480*%
%ADD21R,0.0866X0.1417*%
%ADD22R,0.0512X0.0591*%
%ADD23R,0.0870X0.0240*%
%ADD24R,0.0906X0.0906*%
%ADD25R,0.0630X0.1299*%
%ADD26R,0.0709X0.0630*%
%ADD27C,0.0594*%
%ADD28OC8,0.0600*%
%ADD29C,0.0100*%
%ADD30C,0.0357*%
%ADD31C,0.0160*%
%ADD32C,0.0436*%
%ADD33C,0.0400*%
%ADD34C,0.0240*%
D10*
X000655Y000655D02*
X000655Y020340D01*
X020340Y020340D01*
X020340Y000655D01*
X000655Y000655D01*
X010189Y005780D02*
X010191Y005828D01*
X010197Y005876D01*
X010207Y005923D01*
X010220Y005969D01*
X010238Y006014D01*
X010258Y006058D01*
X010283Y006100D01*
X010311Y006139D01*
X010341Y006176D01*
X010375Y006210D01*
X010412Y006242D01*
X010450Y006271D01*
X010491Y006296D01*
X010534Y006318D01*
X010579Y006336D01*
X010625Y006350D01*
X010672Y006361D01*
X010720Y006368D01*
X010768Y006371D01*
X010816Y006370D01*
X010864Y006365D01*
X010912Y006356D01*
X010958Y006344D01*
X011003Y006327D01*
X011047Y006307D01*
X011089Y006284D01*
X011129Y006257D01*
X011167Y006227D01*
X011202Y006194D01*
X011234Y006158D01*
X011264Y006120D01*
X011290Y006079D01*
X011312Y006036D01*
X011332Y005992D01*
X011347Y005947D01*
X011359Y005900D01*
X011367Y005852D01*
X011371Y005804D01*
X011371Y005756D01*
X011367Y005708D01*
X011359Y005660D01*
X011347Y005613D01*
X011332Y005568D01*
X011312Y005524D01*
X011290Y005481D01*
X011264Y005440D01*
X011234Y005402D01*
X011202Y005366D01*
X011167Y005333D01*
X011129Y005303D01*
X011089Y005276D01*
X011047Y005253D01*
X011003Y005233D01*
X010958Y005216D01*
X010912Y005204D01*
X010864Y005195D01*
X010816Y005190D01*
X010768Y005189D01*
X010720Y005192D01*
X010672Y005199D01*
X010625Y005210D01*
X010579Y005224D01*
X010534Y005242D01*
X010491Y005264D01*
X010450Y005289D01*
X010412Y005318D01*
X010375Y005350D01*
X010341Y005384D01*
X010311Y005421D01*
X010283Y005460D01*
X010258Y005502D01*
X010238Y005546D01*
X010220Y005591D01*
X010207Y005637D01*
X010197Y005684D01*
X010191Y005732D01*
X010189Y005780D01*
D11*
X013905Y011225D03*
X014405Y011225D03*
X014905Y011225D03*
X015405Y011225D03*
X015905Y011225D03*
X016405Y011225D03*
X016905Y011225D03*
X017405Y011225D03*
X017905Y011225D03*
X017905Y015085D03*
X017405Y015085D03*
X016905Y015085D03*
X016405Y015085D03*
X015905Y015085D03*
X015405Y015085D03*
X014905Y015085D03*
X014405Y015085D03*
X013905Y015085D03*
D12*
X014655Y016320D03*
X014655Y016990D03*
X015655Y016990D03*
X015655Y016320D03*
X016655Y016320D03*
X016655Y016990D03*
X017655Y016990D03*
X017655Y016320D03*
X018655Y016320D03*
X018655Y016990D03*
X012655Y016990D03*
X012655Y016320D03*
X011490Y013655D03*
X010820Y013655D03*
X010655Y012490D03*
X010655Y011820D03*
X009655Y011820D03*
X009655Y012490D03*
X011655Y012490D03*
X011655Y011820D03*
X014155Y009990D03*
X014155Y009320D03*
X015155Y009320D03*
X015155Y009990D03*
X016155Y009990D03*
X016155Y009320D03*
X015820Y008155D03*
X016490Y008155D03*
X017320Y006655D03*
X017990Y006655D03*
X018820Y007655D03*
X019490Y007655D03*
X017905Y004490D03*
X017905Y003820D03*
X014490Y008155D03*
X013820Y008155D03*
X011990Y001655D03*
X011320Y001655D03*
D13*
X017320Y005655D03*
X017990Y005655D03*
X018820Y006655D03*
X019490Y006655D03*
X017990Y007655D03*
X017320Y007655D03*
X017655Y009320D03*
X017655Y009990D03*
X012655Y011820D03*
X012655Y012490D03*
X012655Y013820D03*
X012655Y014490D03*
X013655Y016320D03*
X013655Y016990D03*
X009655Y010990D03*
X009655Y010320D03*
X009655Y009490D03*
X009655Y008820D03*
X019655Y016320D03*
X019655Y016990D03*
D14*
X019155Y014555D03*
X019155Y010755D03*
D15*
X011905Y010685D03*
X011405Y010685D03*
X010905Y010685D03*
X010405Y010685D03*
X010405Y008625D03*
X010905Y008625D03*
X011405Y008625D03*
X011905Y008625D03*
D16*
X008407Y009405D03*
X007155Y009405D03*
X007155Y006456D03*
X008407Y006456D03*
X008407Y003507D03*
X007155Y003507D03*
X007155Y012354D03*
X008407Y012354D03*
X008407Y015303D03*
X007155Y015303D03*
D17*
X001986Y017173D03*
X001986Y001637D03*
D18*
X011155Y014730D03*
X011155Y016580D03*
D19*
X018604Y018655D03*
X018604Y019655D03*
X019706Y019655D03*
X019706Y018655D03*
X012206Y003655D03*
X012206Y002655D03*
X011104Y002655D03*
X011104Y003655D03*
D20*
X017375Y017745D03*
X017375Y018655D03*
X017375Y019565D03*
D21*
X014935Y018655D03*
D22*
X018781Y017655D03*
X019529Y017655D03*
D23*
X016238Y007405D03*
X016238Y006905D03*
X016238Y006405D03*
X016238Y005905D03*
X014072Y005905D03*
X014072Y006405D03*
X014072Y006905D03*
X014072Y007405D03*
D24*
X015155Y006655D03*
D25*
X013403Y003155D03*
X016907Y003155D03*
D26*
X019155Y003604D03*
X019155Y004706D03*
D27*
X009577Y002280D02*
X008983Y002280D01*
X008983Y001280D02*
X009577Y001280D01*
D28*
X009655Y018655D03*
X008655Y018655D03*
X007655Y018655D03*
X006655Y018655D03*
X005655Y018655D03*
X004655Y018655D03*
X003655Y018655D03*
X002655Y018655D03*
X001655Y018655D03*
X001655Y019655D03*
X002655Y019655D03*
X003655Y019655D03*
X004655Y019655D03*
X005655Y019655D03*
X006655Y019655D03*
X007655Y019655D03*
X008655Y019655D03*
X009655Y019655D03*
X010655Y019655D03*
X010655Y018655D03*
X011655Y018655D03*
X012655Y018655D03*
X012655Y019655D03*
X011655Y019655D03*
X013655Y019655D03*
X013655Y018655D03*
D29*
X013605Y018689D02*
X013105Y018689D01*
X013105Y018787D02*
X013205Y018787D01*
X013205Y018841D02*
X013205Y018705D01*
X013605Y018705D01*
X013605Y018605D01*
X013705Y018605D01*
X013705Y018205D01*
X013841Y018205D01*
X014105Y018469D01*
X014105Y018605D01*
X013705Y018605D01*
X013705Y018705D01*
X014105Y018705D01*
X014105Y018841D01*
X013991Y018955D01*
X014113Y018955D01*
X014352Y019194D01*
X014352Y017884D01*
X014440Y017796D01*
X015430Y017796D01*
X015518Y017884D01*
X015518Y019426D01*
X015489Y019455D01*
X015840Y019455D01*
X015843Y019447D01*
X015947Y019343D01*
X016082Y019287D01*
X016228Y019287D01*
X016363Y019343D01*
X016467Y019447D01*
X016470Y019455D01*
X016785Y019455D01*
X016785Y019263D01*
X016873Y019175D01*
X017877Y019175D01*
X017965Y019263D01*
X017965Y019455D01*
X018139Y019455D01*
X018139Y019239D01*
X018223Y019155D01*
X018139Y019072D01*
X018139Y018855D01*
X017965Y018855D01*
X017965Y018957D01*
X017877Y019045D01*
X016873Y019045D01*
X016785Y018957D01*
X016785Y018353D01*
X016873Y018265D01*
X017877Y018265D01*
X017965Y018353D01*
X017965Y018455D01*
X018139Y018455D01*
X018139Y018239D01*
X018227Y018151D01*
X018581Y018151D01*
X018581Y018100D01*
X018463Y018100D01*
X018375Y018013D01*
X018375Y017335D01*
X018289Y017249D01*
X018289Y017190D01*
X018022Y017190D01*
X018022Y017249D01*
X017934Y017337D01*
X017376Y017337D01*
X017289Y017249D01*
X017289Y017190D01*
X017022Y017190D01*
X017022Y017249D01*
X016934Y017337D01*
X016376Y017337D01*
X016289Y017249D01*
X016289Y017190D01*
X016022Y017190D01*
X016022Y017249D01*
X015934Y017337D01*
X015376Y017337D01*
X015355Y017315D01*
X015355Y017322D01*
X015355Y017488D01*
X015230Y017613D01*
X015113Y017730D01*
X014420Y017730D01*
X014341Y017809D01*
X014220Y017859D01*
X014090Y017859D01*
X013969Y017809D01*
X013877Y017716D01*
X013827Y017595D01*
X013827Y017465D01*
X013872Y017356D01*
X013396Y017356D01*
X013308Y017268D01*
X013308Y017190D01*
X013022Y017190D01*
X013022Y017249D01*
X012934Y017337D01*
X012376Y017337D01*
X012289Y017249D01*
X012289Y017190D01*
X011758Y017190D01*
X011717Y017230D01*
X010593Y017230D01*
X010505Y017142D01*
X010505Y016018D01*
X010593Y015930D01*
X011717Y015930D01*
X011805Y016018D01*
X011805Y016790D01*
X012289Y016790D01*
X012289Y016731D01*
X012364Y016655D01*
X012289Y016579D01*
X012289Y016061D01*
X012376Y015974D01*
X012455Y015974D01*
X012455Y015285D01*
X011805Y015285D01*
X011805Y015292D01*
X011717Y015380D01*
X010593Y015380D01*
X010505Y015292D01*
X010505Y014168D01*
X010593Y014080D01*
X011717Y014080D01*
X011805Y014168D01*
X011805Y014885D01*
X012738Y014885D01*
X013625Y014885D01*
X013625Y014623D01*
X013705Y014543D01*
X013705Y013488D01*
X013572Y013355D01*
X012855Y013355D01*
X012855Y013454D01*
X012914Y013454D01*
X013002Y013542D01*
X013002Y014099D01*
X012946Y014155D01*
X012972Y014181D01*
X012992Y014215D01*
X013002Y014253D01*
X013002Y014441D01*
X012704Y014441D01*
X012704Y014538D01*
X013002Y014538D01*
X013002Y014726D01*
X012992Y014764D01*
X012972Y014798D01*
X012944Y014826D01*
X012910Y014846D01*
X012872Y014856D01*
X012704Y014856D01*
X012704Y014538D01*
X012607Y014538D01*
X012607Y014856D01*
X012439Y014856D01*
X012400Y014846D01*
X012366Y014826D01*
X012338Y014798D01*
X012319Y014764D01*
X012308Y014726D01*
X012308Y014538D01*
X012606Y014538D01*
X012606Y014441D01*
X012308Y014441D01*
X012308Y014253D01*
X012319Y014215D01*
X012338Y014181D01*
X012364Y014155D01*
X012308Y014099D01*
X012308Y013542D01*
X012396Y013454D01*
X012455Y013454D01*
X012455Y013238D01*
X012455Y013072D01*
X012455Y012856D01*
X012396Y012856D01*
X012308Y012768D01*
X012308Y012690D01*
X012157Y012690D01*
X012072Y012605D01*
X012022Y012554D01*
X012022Y012749D01*
X011934Y012837D01*
X011855Y012837D01*
X011855Y013395D01*
X011856Y013396D01*
X011856Y013914D01*
X011768Y014002D01*
X011211Y014002D01*
X011155Y013946D01*
X011129Y013972D01*
X011095Y013992D01*
X011057Y014002D01*
X010869Y014002D01*
X010869Y013704D01*
X010772Y013704D01*
X010772Y014002D01*
X010584Y014002D01*
X010546Y013992D01*
X010512Y013972D01*
X010484Y013944D01*
X010464Y013910D01*
X010454Y013872D01*
X010454Y013704D01*
X010772Y013704D01*
X010772Y013607D01*
X010454Y013607D01*
X010454Y013439D01*
X010464Y013400D01*
X010484Y013366D01*
X010512Y013338D01*
X010546Y013319D01*
X010584Y013308D01*
X010772Y013308D01*
X010772Y013606D01*
X010869Y013606D01*
X010869Y013308D01*
X011057Y013308D01*
X011095Y013319D01*
X011129Y013338D01*
X011155Y013364D01*
X011211Y013308D01*
X011455Y013308D01*
X011455Y012837D01*
X011376Y012837D01*
X011289Y012749D01*
X011289Y012690D01*
X011022Y012690D01*
X011022Y012749D01*
X010934Y012837D01*
X010376Y012837D01*
X010289Y012749D01*
X010289Y012231D01*
X010364Y012155D01*
X010289Y012079D01*
X010289Y011561D01*
X010376Y011474D01*
X010705Y011474D01*
X010705Y011252D01*
X010655Y011202D01*
X010587Y011270D01*
X010573Y011270D01*
X010355Y011488D01*
X010238Y011605D01*
X010022Y011605D01*
X010022Y012079D01*
X009941Y012160D01*
X009964Y012173D01*
X009992Y012201D01*
X010011Y012235D01*
X010022Y012273D01*
X010022Y012441D01*
X009704Y012441D01*
X009704Y012538D01*
X010022Y012538D01*
X010022Y012706D01*
X010011Y012744D01*
X009992Y012779D01*
X009964Y012807D01*
X009930Y012826D01*
X009891Y012837D01*
X009704Y012837D01*
X009704Y012538D01*
X009607Y012538D01*
X009607Y012837D01*
X009419Y012837D01*
X009381Y012826D01*
X009346Y012807D01*
X009319Y012779D01*
X009299Y012744D01*
X009289Y012706D01*
X009289Y012538D01*
X009606Y012538D01*
X009606Y012441D01*
X009289Y012441D01*
X009289Y012273D01*
X009299Y012235D01*
X009319Y012201D01*
X009346Y012173D01*
X009369Y012160D01*
X009289Y012079D01*
X009289Y011561D01*
X009376Y011474D01*
X009554Y011474D01*
X009572Y011455D01*
X009704Y011324D01*
X009704Y011038D01*
X010002Y011038D01*
X010002Y011205D01*
X010072Y011205D01*
X010135Y011142D01*
X010135Y010188D01*
X010218Y010105D01*
X010002Y010105D01*
X010002Y010599D01*
X009946Y010655D01*
X009972Y010681D01*
X009992Y010715D01*
X010002Y010753D01*
X010002Y010941D01*
X009704Y010941D01*
X009704Y011038D01*
X009607Y011038D01*
X009607Y011356D01*
X009439Y011356D01*
X009400Y011346D01*
X009366Y011326D01*
X009338Y011298D01*
X004105Y011298D01*
X004105Y011396D02*
X009631Y011396D01*
X009607Y011298D02*
X009704Y011298D01*
X009704Y011199D02*
X009607Y011199D01*
X009607Y011101D02*
X009704Y011101D01*
X009704Y011002D02*
X010135Y011002D01*
X010135Y010904D02*
X010002Y010904D01*
X010002Y010805D02*
X010135Y010805D01*
X010135Y010707D02*
X009987Y010707D01*
X009993Y010608D02*
X010135Y010608D01*
X010135Y010509D02*
X010002Y010509D01*
X010002Y010411D02*
X010135Y010411D01*
X010135Y010312D02*
X010002Y010312D01*
X010002Y010214D02*
X010135Y010214D01*
X010208Y010115D02*
X010002Y010115D01*
X009655Y009905D02*
X010405Y009905D01*
X010780Y009530D01*
X011405Y009530D01*
X011530Y009530D01*
X011780Y009780D01*
X012280Y009780D01*
X012280Y011280D01*
X012155Y011405D01*
X012155Y012405D01*
X012240Y012490D01*
X012655Y012490D01*
X012655Y013155D01*
X013655Y013155D01*
X013905Y013405D01*
X013905Y015085D01*
X013905Y015655D01*
X014155Y015905D01*
X014405Y015655D02*
X014405Y015085D01*
X014905Y015085D02*
X014905Y014155D01*
X014577Y014156D02*
X014105Y014156D01*
X014105Y014254D02*
X014591Y014254D01*
X014577Y014220D02*
X014577Y014090D01*
X014627Y013969D01*
X014719Y013877D01*
X014840Y013827D01*
X014970Y013827D01*
X015091Y013877D01*
X015184Y013969D01*
X015205Y014021D01*
X015205Y013295D01*
X015127Y013216D01*
X015077Y013095D01*
X015077Y012965D01*
X015127Y012844D01*
X015219Y012752D01*
X015340Y012702D01*
X015470Y012702D01*
X015589Y012751D01*
X015577Y012720D01*
X015577Y012590D01*
X015627Y012469D01*
X015719Y012377D01*
X015840Y012327D01*
X015970Y012327D01*
X016091Y012377D01*
X016184Y012469D01*
X016234Y012590D01*
X016234Y012720D01*
X016184Y012841D01*
X016105Y012920D01*
X016105Y013646D01*
X016127Y013594D01*
X016219Y013502D01*
X016340Y013452D01*
X016470Y013452D01*
X016589Y013501D01*
X016577Y013470D01*
X016577Y013340D01*
X016627Y013219D01*
X016719Y013127D01*
X016840Y013077D01*
X016970Y013077D01*
X017091Y013127D01*
X017184Y013219D01*
X017234Y013340D01*
X017234Y013470D01*
X017184Y013591D01*
X017105Y013670D01*
X017105Y014543D01*
X017155Y014593D01*
X017213Y014535D01*
X017597Y014535D01*
X017655Y014593D01*
X017713Y014535D01*
X018097Y014535D01*
X018185Y014623D01*
X018185Y015402D01*
X018238Y015455D01*
X018488Y015455D01*
X018605Y015572D01*
X018855Y015822D01*
X018855Y015974D01*
X018934Y015974D01*
X019022Y016061D01*
X019022Y016579D01*
X018946Y016655D01*
X019022Y016731D01*
X019022Y017210D01*
X019099Y017210D01*
X019155Y017266D01*
X019181Y017240D01*
X019215Y017220D01*
X019253Y017210D01*
X019308Y017210D01*
X019308Y017038D01*
X019606Y017038D01*
X019606Y016941D01*
X019308Y016941D01*
X019308Y016753D01*
X019319Y016715D01*
X019338Y016681D01*
X019364Y016655D01*
X019308Y016599D01*
X019308Y016216D01*
X019072Y015980D01*
X018955Y015863D01*
X018955Y015705D01*
X018743Y015705D01*
X018655Y015617D01*
X018655Y013855D01*
X018072Y013855D01*
X017955Y013738D01*
X016705Y012488D01*
X016705Y012322D01*
X016705Y011767D01*
X016655Y011717D01*
X016597Y011775D01*
X016213Y011775D01*
X016155Y011717D01*
X016097Y011775D01*
X015713Y011775D01*
X015655Y011717D01*
X015597Y011775D01*
X015213Y011775D01*
X015155Y011717D01*
X015097Y011775D01*
X014713Y011775D01*
X014655Y011717D01*
X014597Y011775D01*
X014213Y011775D01*
X014155Y011717D01*
X014097Y011775D01*
X013713Y011775D01*
X013625Y011687D01*
X013625Y010855D01*
X013613Y010855D01*
X013447Y010855D01*
X013201Y010609D01*
X013090Y010609D01*
X012969Y010559D01*
X012877Y010466D01*
X012827Y010345D01*
X012827Y010215D01*
X012877Y010094D01*
X012941Y010030D01*
X012877Y009966D01*
X012827Y009845D01*
X012827Y009715D01*
X012877Y009594D01*
X012950Y009520D01*
X012823Y009520D01*
X012480Y009863D01*
X012480Y011363D01*
X012363Y011480D01*
X012355Y011488D01*
X012355Y011495D01*
X012366Y011484D01*
X012400Y011464D01*
X012439Y011454D01*
X012607Y011454D01*
X012607Y011772D01*
X012704Y011772D01*
X012704Y011869D01*
X013002Y011869D01*
X013002Y012057D01*
X012992Y012095D01*
X012972Y012129D01*
X012946Y012155D01*
X013002Y012211D01*
X013002Y012768D01*
X012914Y012856D01*
X012855Y012856D01*
X012855Y012955D01*
X013738Y012955D01*
X013855Y013072D01*
X014105Y013322D01*
X014105Y013488D01*
X014105Y014543D01*
X014155Y014593D01*
X014213Y014535D01*
X014597Y014535D01*
X014655Y014593D01*
X014705Y014543D01*
X014705Y014420D01*
X014627Y014341D01*
X014577Y014220D01*
X014638Y014353D02*
X014105Y014353D01*
X014105Y014451D02*
X014705Y014451D01*
X014698Y014550D02*
X014612Y014550D01*
X014198Y014550D02*
X014112Y014550D01*
X013698Y014550D02*
X013002Y014550D01*
X013002Y014648D02*
X013625Y014648D01*
X013625Y014747D02*
X012996Y014747D01*
X012911Y014845D02*
X013625Y014845D01*
X013905Y015085D02*
X012655Y015085D01*
X011155Y015085D01*
X011155Y014730D01*
X010505Y014747D02*
X008898Y014747D01*
X008827Y014675D02*
X009035Y014883D01*
X009148Y015155D01*
X009148Y015450D01*
X009035Y015722D01*
X008827Y015931D01*
X008554Y016043D01*
X008260Y016043D01*
X007988Y015931D01*
X007781Y015724D01*
X007575Y015931D01*
X007302Y016043D01*
X007008Y016043D01*
X006736Y015931D01*
X006527Y015722D01*
X006415Y015450D01*
X006415Y015155D01*
X006527Y014883D01*
X006736Y014675D01*
X007008Y014562D01*
X007302Y014562D01*
X007575Y014675D01*
X007781Y014881D01*
X007988Y014675D01*
X008260Y014562D01*
X008554Y014562D01*
X008827Y014675D01*
X008762Y014648D02*
X010505Y014648D01*
X010505Y014550D02*
X004217Y014550D01*
X004234Y014590D02*
X004184Y014469D01*
X004105Y014391D01*
X004105Y012920D01*
X004184Y012841D01*
X004234Y012720D01*
X004234Y012590D01*
X004184Y012469D01*
X004105Y012391D01*
X004105Y010920D01*
X004184Y010841D01*
X004234Y010720D01*
X004234Y010590D01*
X004188Y010480D01*
X008863Y010480D01*
X008980Y010363D01*
X009238Y010105D01*
X009308Y010105D01*
X009308Y010599D01*
X009364Y010655D01*
X009338Y010681D01*
X009319Y010715D01*
X009308Y010753D01*
X009308Y010941D01*
X009606Y010941D01*
X009606Y011038D01*
X009308Y011038D01*
X009308Y011226D01*
X009319Y011264D01*
X009338Y011298D01*
X009308Y011199D02*
X004105Y011199D01*
X004105Y011101D02*
X009308Y011101D01*
X009308Y010904D02*
X004121Y010904D01*
X004105Y011002D02*
X009606Y011002D01*
X009308Y010805D02*
X004198Y010805D01*
X004234Y010707D02*
X009324Y010707D01*
X009317Y010608D02*
X004234Y010608D01*
X004200Y010509D02*
X009308Y010509D01*
X009308Y010411D02*
X008932Y010411D01*
X009031Y010312D02*
X009308Y010312D01*
X009308Y010214D02*
X009129Y010214D01*
X009228Y010115D02*
X009308Y010115D01*
X009155Y009905D02*
X008780Y010280D01*
X003905Y010280D01*
X003905Y010655D01*
X003905Y014655D01*
X003905Y012655D01*
X004150Y012874D02*
X006628Y012874D01*
X006530Y012776D02*
X004211Y012776D01*
X004234Y012677D02*
X006488Y012677D01*
X006527Y012773D02*
X006415Y012501D01*
X006415Y012207D01*
X006527Y011934D01*
X006736Y011726D01*
X007008Y011613D01*
X007302Y011613D01*
X007575Y011726D01*
X007781Y011933D01*
X007988Y011726D01*
X008260Y011613D01*
X008554Y011613D01*
X008827Y011726D01*
X009035Y011934D01*
X009148Y012207D01*
X009148Y012501D01*
X009035Y012773D01*
X008827Y012982D01*
X008554Y013094D01*
X008260Y013094D01*
X007988Y012982D01*
X007781Y012775D01*
X007575Y012982D01*
X007302Y013094D01*
X007008Y013094D01*
X006736Y012982D01*
X006527Y012773D01*
X006447Y012579D02*
X004229Y012579D01*
X004188Y012480D02*
X006415Y012480D01*
X006415Y012382D02*
X004105Y012382D01*
X004105Y012283D02*
X006415Y012283D01*
X006424Y012185D02*
X004105Y012185D01*
X004105Y012086D02*
X006464Y012086D01*
X006505Y011988D02*
X004105Y011988D01*
X004105Y011889D02*
X006573Y011889D01*
X006671Y011791D02*
X004105Y011791D01*
X004105Y011692D02*
X006818Y011692D01*
X007492Y011692D02*
X008070Y011692D01*
X007923Y011791D02*
X007639Y011791D01*
X007737Y011889D02*
X007825Y011889D01*
X007780Y012776D02*
X007782Y012776D01*
X007880Y012874D02*
X007682Y012874D01*
X007583Y012973D02*
X007979Y012973D01*
X008205Y013072D02*
X007358Y013072D01*
X006953Y013072D02*
X004105Y013072D01*
X004105Y013170D02*
X011455Y013170D01*
X011455Y013072D02*
X008610Y013072D01*
X008835Y012973D02*
X011455Y012973D01*
X011455Y012874D02*
X008934Y012874D01*
X009032Y012776D02*
X009317Y012776D01*
X009289Y012677D02*
X009075Y012677D01*
X009115Y012579D02*
X009289Y012579D01*
X009148Y012480D02*
X009606Y012480D01*
X009704Y012480D02*
X010289Y012480D01*
X010289Y012382D02*
X010022Y012382D01*
X010022Y012283D02*
X010289Y012283D01*
X010335Y012185D02*
X009976Y012185D01*
X010015Y012086D02*
X010295Y012086D01*
X010289Y011988D02*
X010022Y011988D01*
X010022Y011889D02*
X010289Y011889D01*
X010289Y011791D02*
X010022Y011791D01*
X010022Y011692D02*
X010289Y011692D01*
X010289Y011593D02*
X010250Y011593D01*
X010348Y011495D02*
X010355Y011495D01*
X010447Y011396D02*
X010705Y011396D01*
X010705Y011298D02*
X010545Y011298D01*
X010405Y011155D02*
X010155Y011405D01*
X009905Y011405D01*
X009655Y011655D01*
X009655Y011820D01*
X009289Y011791D02*
X008891Y011791D01*
X008989Y011889D02*
X009289Y011889D01*
X009289Y011988D02*
X009057Y011988D01*
X009098Y012086D02*
X009295Y012086D01*
X009335Y012185D02*
X009139Y012185D01*
X009148Y012283D02*
X009289Y012283D01*
X009289Y012382D02*
X009148Y012382D01*
X009607Y012579D02*
X009704Y012579D01*
X009704Y012677D02*
X009607Y012677D01*
X009607Y012776D02*
X009704Y012776D01*
X009993Y012776D02*
X010316Y012776D01*
X010289Y012677D02*
X010022Y012677D01*
X010022Y012579D02*
X010289Y012579D01*
X010655Y012490D02*
X011655Y012490D01*
X011655Y013490D01*
X011490Y013655D01*
X011856Y013663D02*
X012308Y013663D01*
X012308Y013761D02*
X011856Y013761D01*
X011856Y013860D02*
X012308Y013860D01*
X012308Y013958D02*
X011812Y013958D01*
X011793Y014156D02*
X012364Y014156D01*
X012308Y014254D02*
X011805Y014254D01*
X011805Y014353D02*
X012308Y014353D01*
X012308Y014550D02*
X011805Y014550D01*
X011805Y014648D02*
X012308Y014648D01*
X012314Y014747D02*
X011805Y014747D01*
X011805Y014845D02*
X012399Y014845D01*
X012607Y014845D02*
X012704Y014845D01*
X012704Y014747D02*
X012607Y014747D01*
X012607Y014648D02*
X012704Y014648D01*
X012704Y014550D02*
X012607Y014550D01*
X012606Y014451D02*
X011805Y014451D01*
X012308Y014057D02*
X004105Y014057D01*
X004105Y013958D02*
X010498Y013958D01*
X010454Y013860D02*
X004105Y013860D01*
X004105Y013761D02*
X010454Y013761D01*
X010454Y013564D02*
X004105Y013564D01*
X004105Y013466D02*
X010454Y013466D01*
X010483Y013367D02*
X004105Y013367D01*
X004105Y013269D02*
X011455Y013269D01*
X011855Y013269D02*
X012455Y013269D01*
X012455Y013367D02*
X011855Y013367D01*
X011856Y013466D02*
X012384Y013466D01*
X012308Y013564D02*
X011856Y013564D01*
X011855Y013170D02*
X012455Y013170D01*
X012455Y013072D02*
X011855Y013072D01*
X011855Y012973D02*
X012455Y012973D01*
X012455Y012874D02*
X011855Y012874D01*
X011994Y012776D02*
X012316Y012776D01*
X012145Y012677D02*
X012022Y012677D01*
X012022Y012579D02*
X012046Y012579D01*
X011316Y012776D02*
X010994Y012776D01*
X010869Y013367D02*
X010772Y013367D01*
X010772Y013466D02*
X010869Y013466D01*
X010869Y013564D02*
X010772Y013564D01*
X010772Y013663D02*
X004105Y013663D01*
X004105Y014156D02*
X010518Y014156D01*
X010505Y014254D02*
X004105Y014254D01*
X004105Y014353D02*
X010505Y014353D01*
X010505Y014451D02*
X004166Y014451D01*
X004234Y014590D02*
X004234Y014720D01*
X004184Y014841D01*
X004091Y014934D01*
X003970Y014984D01*
X003840Y014984D01*
X003730Y014938D01*
X003730Y016822D01*
X004363Y017455D01*
X011891Y017455D01*
X011969Y017377D01*
X012090Y017327D01*
X012220Y017327D01*
X012341Y017377D01*
X012434Y017469D01*
X012484Y017590D01*
X012484Y017720D01*
X012434Y017841D01*
X012341Y017934D01*
X012220Y017984D01*
X012090Y017984D01*
X011969Y017934D01*
X011891Y017855D01*
X004197Y017855D01*
X004080Y017738D01*
X003355Y017013D01*
X003355Y018319D01*
X003469Y018205D01*
X003841Y018205D01*
X004105Y018469D01*
X004105Y018841D01*
X003991Y018955D01*
X004319Y018955D01*
X004205Y018841D01*
X004205Y018469D01*
X004469Y018205D01*
X004841Y018205D01*
X005105Y018469D01*
X005105Y018841D01*
X004991Y018955D01*
X005319Y018955D01*
X005205Y018841D01*
X005205Y018705D01*
X005605Y018705D01*
X005605Y018605D01*
X005705Y018605D01*
X005705Y018205D01*
X005841Y018205D01*
X006105Y018469D01*
X006105Y018605D01*
X005705Y018605D01*
X005705Y018705D01*
X006105Y018705D01*
X006105Y018841D01*
X005991Y018955D01*
X006319Y018955D01*
X006205Y018841D01*
X006205Y018469D01*
X006469Y018205D01*
X006841Y018205D01*
X007105Y018469D01*
X007105Y018841D01*
X006991Y018955D01*
X007319Y018955D01*
X007205Y018841D01*
X007205Y018469D01*
X007469Y018205D01*
X007841Y018205D01*
X008105Y018469D01*
X008105Y018841D01*
X007991Y018955D01*
X008319Y018955D01*
X008205Y018841D01*
X008205Y018469D01*
X008469Y018205D01*
X008841Y018205D01*
X009105Y018469D01*
X009105Y018841D01*
X008991Y018955D01*
X009319Y018955D01*
X009205Y018841D01*
X009205Y018469D01*
X009469Y018205D01*
X009841Y018205D01*
X010105Y018469D01*
X010105Y018841D01*
X009991Y018955D01*
X010319Y018955D01*
X010205Y018841D01*
X010205Y018469D01*
X010469Y018205D01*
X010841Y018205D01*
X011105Y018469D01*
X011105Y018841D01*
X010991Y018955D01*
X011319Y018955D01*
X011205Y018841D01*
X011205Y018469D01*
X011469Y018205D01*
X011841Y018205D01*
X012105Y018469D01*
X012105Y018841D01*
X011991Y018955D01*
X012319Y018955D01*
X012205Y018841D01*
X012205Y018469D01*
X012469Y018205D01*
X012841Y018205D01*
X013105Y018469D01*
X013105Y018841D01*
X012991Y018955D01*
X013319Y018955D01*
X013205Y018841D01*
X013249Y018886D02*
X013061Y018886D01*
X013105Y018590D02*
X013205Y018590D01*
X013205Y018605D02*
X013205Y018469D01*
X013469Y018205D01*
X013605Y018205D01*
X013605Y018605D01*
X013205Y018605D01*
X013205Y018491D02*
X013105Y018491D01*
X013029Y018393D02*
X013281Y018393D01*
X013379Y018294D02*
X012931Y018294D01*
X012379Y018294D02*
X011931Y018294D01*
X012029Y018393D02*
X012281Y018393D01*
X012205Y018491D02*
X012105Y018491D01*
X012105Y018590D02*
X012205Y018590D01*
X012205Y018689D02*
X012105Y018689D01*
X012105Y018787D02*
X012205Y018787D01*
X012249Y018886D02*
X012061Y018886D01*
X011991Y019355D02*
X012105Y019469D01*
X012105Y019841D01*
X011841Y020105D01*
X011469Y020105D01*
X011205Y019841D01*
X011205Y019469D01*
X011319Y019355D01*
X010991Y019355D01*
X011105Y019469D01*
X011105Y019605D01*
X010705Y019605D01*
X010705Y019705D01*
X010605Y019705D01*
X010605Y019605D01*
X010205Y019605D01*
X010205Y019469D01*
X010319Y019355D01*
X009991Y019355D01*
X010105Y019469D01*
X010105Y019841D01*
X009841Y020105D01*
X009469Y020105D01*
X009205Y019841D01*
X009205Y019469D01*
X009319Y019355D01*
X008991Y019355D01*
X009105Y019469D01*
X009105Y019841D01*
X008841Y020105D01*
X008469Y020105D01*
X008205Y019841D01*
X008205Y019469D01*
X008319Y019355D01*
X007991Y019355D01*
X008105Y019469D01*
X008105Y019605D01*
X007705Y019605D01*
X007705Y019705D01*
X007605Y019705D01*
X007605Y019605D01*
X007205Y019605D01*
X007205Y019469D01*
X007319Y019355D01*
X006991Y019355D01*
X007105Y019469D01*
X007105Y019841D01*
X006841Y020105D01*
X006469Y020105D01*
X006205Y019841D01*
X006205Y019469D01*
X006319Y019355D01*
X005991Y019355D01*
X006105Y019469D01*
X006105Y019841D01*
X005841Y020105D01*
X005469Y020105D01*
X005205Y019841D01*
X005205Y019469D01*
X005319Y019355D01*
X004991Y019355D01*
X005105Y019469D01*
X005105Y019841D01*
X004841Y020105D01*
X004469Y020105D01*
X004205Y019841D01*
X004205Y019469D01*
X004319Y019355D01*
X003991Y019355D01*
X004105Y019469D01*
X004105Y019605D01*
X003705Y019605D01*
X003705Y019705D01*
X003605Y019705D01*
X003605Y019605D01*
X003205Y019605D01*
X003205Y019469D01*
X003319Y019355D01*
X003238Y019355D01*
X003072Y019355D01*
X002991Y019355D01*
X003105Y019469D01*
X003105Y019841D01*
X002841Y020105D01*
X002469Y020105D01*
X002205Y019841D01*
X002205Y019469D01*
X002319Y019355D01*
X002238Y019355D01*
X002105Y019488D01*
X002105Y019841D01*
X001841Y020105D01*
X001469Y020105D01*
X001205Y019841D01*
X001205Y019469D01*
X001469Y019205D01*
X001822Y019205D01*
X001955Y019072D01*
X002072Y018955D01*
X002319Y018955D01*
X002205Y018841D01*
X002205Y018469D01*
X002469Y018205D01*
X002841Y018205D01*
X002955Y018319D01*
X002955Y006920D01*
X002877Y006841D01*
X002827Y006720D01*
X002827Y006590D01*
X002877Y006469D01*
X002969Y006377D01*
X003090Y006327D01*
X003220Y006327D01*
X003341Y006377D01*
X003434Y006469D01*
X003827Y006469D01*
X003827Y006465D02*
X003877Y006344D01*
X003969Y006252D01*
X004090Y006202D01*
X004220Y006202D01*
X004341Y006252D01*
X004420Y006330D01*
X005697Y006330D01*
X005863Y006330D01*
X006613Y007080D01*
X006732Y007080D01*
X006527Y006876D01*
X006415Y006604D01*
X006415Y006309D01*
X006527Y006037D01*
X006736Y005828D01*
X007008Y005716D01*
X007302Y005716D01*
X007575Y005828D01*
X007781Y006035D01*
X007988Y005828D01*
X008260Y005716D01*
X008554Y005716D01*
X008827Y005828D01*
X009035Y006037D01*
X009148Y006309D01*
X009148Y006604D01*
X009035Y006876D01*
X008830Y007080D01*
X009794Y007080D01*
X009571Y006902D01*
X009294Y006496D01*
X009149Y006026D01*
X009149Y005534D01*
X009294Y005064D01*
X009571Y004658D01*
X009955Y004351D01*
X010413Y004171D01*
X010729Y004148D01*
X010697Y004129D01*
X010669Y004102D01*
X010649Y004067D01*
X010639Y004029D01*
X010639Y003705D01*
X011054Y003705D01*
X011054Y003605D01*
X011154Y003605D01*
X011154Y003159D01*
X011154Y002705D01*
X011054Y002705D01*
X011054Y002605D01*
X011154Y002605D01*
X011154Y002151D01*
X011439Y002151D01*
X011455Y002155D01*
X011455Y002073D01*
X011384Y002002D01*
X011042Y002002D01*
X010954Y001914D01*
X010954Y001396D01*
X011042Y001308D01*
X011599Y001308D01*
X011655Y001364D01*
X011711Y001308D01*
X012268Y001308D01*
X012356Y001396D01*
X012356Y001455D01*
X013072Y001455D01*
X013238Y001455D01*
X013488Y001705D01*
X013605Y001822D01*
X013605Y002356D01*
X013780Y002356D01*
X013868Y002443D01*
X013868Y003867D01*
X013780Y003955D01*
X013635Y003955D01*
X013635Y005635D01*
X014062Y005635D01*
X014062Y005895D01*
X014082Y005895D01*
X014082Y005635D01*
X014527Y005635D01*
X014565Y005645D01*
X014600Y005665D01*
X014627Y005693D01*
X014647Y005727D01*
X014657Y005765D01*
X014657Y005895D01*
X014083Y005895D01*
X014083Y005915D01*
X014657Y005915D01*
X014657Y006045D01*
X014653Y006060D01*
X014683Y006052D01*
X015105Y006052D01*
X015105Y006605D01*
X015205Y006605D01*
X015205Y006052D01*
X015628Y006052D01*
X015653Y006059D01*
X015653Y005723D01*
X015741Y005635D01*
X016735Y005635D01*
X016805Y005705D01*
X016974Y005705D01*
X016974Y005376D01*
X017061Y005289D01*
X017120Y005289D01*
X017120Y005157D01*
X017120Y004992D01*
X017539Y004573D01*
X017539Y004231D01*
X017614Y004155D01*
X017539Y004079D01*
X017539Y003561D01*
X017626Y003474D01*
X017635Y003474D01*
X017635Y003425D01*
X017372Y003425D01*
X017372Y003867D01*
X017284Y003955D01*
X016530Y003955D01*
X016442Y003867D01*
X016442Y002443D01*
X016530Y002356D01*
X017284Y002356D01*
X017372Y002443D01*
X017372Y002885D01*
X017959Y002885D01*
X018601Y002885D01*
X018709Y002885D01*
X018787Y002918D01*
X018787Y002832D01*
X018843Y002697D01*
X018947Y002593D01*
X019082Y002537D01*
X019228Y002537D01*
X019363Y002593D01*
X019467Y002697D01*
X019523Y002832D01*
X019523Y002978D01*
X019467Y003113D01*
X019441Y003139D01*
X019572Y003139D01*
X019659Y003227D01*
X019659Y003981D01*
X019572Y004069D01*
X018739Y004069D01*
X018651Y003981D01*
X018651Y003533D01*
X018543Y003425D01*
X018175Y003425D01*
X018175Y003474D01*
X018184Y003474D01*
X018272Y003561D01*
X018272Y004079D01*
X018196Y004155D01*
X018272Y004231D01*
X018272Y004749D01*
X018184Y004837D01*
X017841Y004837D01*
X017520Y005157D01*
X017520Y005289D01*
X017579Y005289D01*
X017660Y005369D01*
X017673Y005346D01*
X017701Y005319D01*
X017735Y005299D01*
X017773Y005289D01*
X017941Y005289D01*
X017941Y005606D01*
X018038Y005606D01*
X018038Y005289D01*
X018206Y005289D01*
X018244Y005299D01*
X018279Y005319D01*
X018307Y005346D01*
X018326Y005381D01*
X018337Y005419D01*
X018337Y005607D01*
X018038Y005607D01*
X018038Y005704D01*
X017941Y005704D01*
X017941Y006022D01*
X017773Y006022D01*
X017735Y006011D01*
X017701Y005992D01*
X017673Y005964D01*
X017660Y005941D01*
X017579Y006022D01*
X017237Y006022D01*
X017153Y006105D01*
X016988Y006105D01*
X016805Y006105D01*
X016755Y006155D01*
X016805Y006205D01*
X017153Y006205D01*
X017256Y006308D01*
X017599Y006308D01*
X017655Y006364D01*
X017711Y006308D01*
X018268Y006308D01*
X018356Y006396D01*
X018356Y006455D01*
X018474Y006455D01*
X018474Y006376D01*
X018561Y006289D01*
X019079Y006289D01*
X019160Y006369D01*
X019173Y006346D01*
X019201Y006319D01*
X019235Y006299D01*
X019273Y006289D01*
X019441Y006289D01*
X019441Y006606D01*
X019538Y006606D01*
X019538Y006289D01*
X019706Y006289D01*
X019744Y006299D01*
X019779Y006319D01*
X019807Y006346D01*
X019826Y006381D01*
X019837Y006419D01*
X019837Y006607D01*
X019538Y006607D01*
X019538Y006704D01*
X019441Y006704D01*
X019441Y007022D01*
X019273Y007022D01*
X019235Y007011D01*
X019201Y006992D01*
X019173Y006964D01*
X019160Y006941D01*
X019079Y007022D01*
X018561Y007022D01*
X018474Y006934D01*
X018474Y006855D01*
X018356Y006855D01*
X018356Y006914D01*
X018315Y006955D01*
X018403Y006955D01*
X018756Y007308D01*
X019099Y007308D01*
X019155Y007364D01*
X019181Y007338D01*
X019215Y007319D01*
X019253Y007308D01*
X019441Y007308D01*
X019441Y007606D01*
X019538Y007606D01*
X019538Y007308D01*
X019726Y007308D01*
X019764Y007319D01*
X019798Y007338D01*
X019826Y007366D01*
X019846Y007400D01*
X019856Y007439D01*
X019856Y007607D01*
X019538Y007607D01*
X019538Y007704D01*
X019441Y007704D01*
X019441Y008002D01*
X019253Y008002D01*
X019215Y007992D01*
X019181Y007972D01*
X019155Y007946D01*
X019099Y008002D01*
X018542Y008002D01*
X018454Y007914D01*
X018454Y007571D01*
X018337Y007454D01*
X018337Y007934D01*
X018305Y007965D01*
X018309Y007969D01*
X018359Y008090D01*
X018359Y008220D01*
X018309Y008341D01*
X018216Y008434D01*
X018095Y008484D01*
X017965Y008484D01*
X017844Y008434D01*
X017752Y008341D01*
X017702Y008220D01*
X017702Y008090D01*
X017730Y008021D01*
X017655Y007946D01*
X017579Y008022D01*
X017237Y008022D01*
X016903Y008355D01*
X016856Y008355D01*
X016856Y008414D01*
X016768Y008502D01*
X016211Y008502D01*
X016155Y008446D01*
X016129Y008472D01*
X016095Y008492D01*
X016057Y008502D01*
X015869Y008502D01*
X015869Y008204D01*
X015772Y008204D01*
X015772Y008502D01*
X015584Y008502D01*
X015546Y008492D01*
X015512Y008472D01*
X015484Y008444D01*
X015464Y008410D01*
X015454Y008372D01*
X015454Y008204D01*
X015772Y008204D01*
X015772Y008107D01*
X015454Y008107D01*
X015454Y007939D01*
X015464Y007900D01*
X015484Y007866D01*
X015512Y007838D01*
X015546Y007819D01*
X015584Y007808D01*
X015772Y007808D01*
X015772Y008106D01*
X015869Y008106D01*
X015869Y007808D01*
X016057Y007808D01*
X016095Y007819D01*
X016129Y007838D01*
X016155Y007864D01*
X016211Y007808D01*
X016768Y007808D01*
X016826Y007866D01*
X016974Y007719D01*
X016974Y007591D01*
X016823Y007440D01*
X016823Y007587D01*
X016735Y007675D01*
X015741Y007675D01*
X015704Y007639D01*
X015105Y008238D01*
X014988Y008355D01*
X014856Y008355D01*
X014856Y008414D01*
X014768Y008502D01*
X014211Y008502D01*
X014155Y008446D01*
X014129Y008472D01*
X014095Y008492D01*
X014057Y008502D01*
X013869Y008502D01*
X013869Y008204D01*
X013772Y008204D01*
X013772Y008502D01*
X013584Y008502D01*
X013546Y008492D01*
X013512Y008472D01*
X013484Y008444D01*
X013464Y008410D01*
X013454Y008372D01*
X013454Y008204D01*
X013772Y008204D01*
X013772Y008107D01*
X013454Y008107D01*
X013454Y007939D01*
X013464Y007900D01*
X013484Y007866D01*
X013512Y007838D01*
X013546Y007819D01*
X013584Y007808D01*
X013772Y007808D01*
X013772Y008106D01*
X013869Y008106D01*
X013869Y007808D01*
X014057Y007808D01*
X014095Y007819D01*
X014129Y007838D01*
X014155Y007864D01*
X014211Y007808D01*
X014768Y007808D01*
X014856Y007896D01*
X014856Y007921D01*
X015520Y007258D01*
X015205Y007258D01*
X015205Y006705D01*
X015105Y006705D01*
X015105Y007258D01*
X014683Y007258D01*
X014657Y007251D01*
X014657Y007587D01*
X014570Y007675D01*
X013575Y007675D01*
X013505Y007605D01*
X013488Y007605D01*
X013322Y007605D01*
X012572Y006855D01*
X012455Y006738D01*
X012455Y005238D01*
X012214Y004996D01*
X012357Y005294D01*
X012430Y005780D01*
X012357Y006266D01*
X012357Y006266D01*
X012143Y006710D01*
X011809Y007070D01*
X011383Y007316D01*
X011321Y007330D01*
X011322Y007330D01*
X011488Y007330D01*
X011988Y007830D01*
X012105Y007947D01*
X012105Y008058D01*
X012175Y008128D01*
X012175Y009122D01*
X012131Y009166D01*
X012184Y009219D01*
X012234Y009340D01*
X012234Y009470D01*
X012188Y009580D01*
X012197Y009580D01*
X012657Y009120D01*
X012823Y009120D01*
X013789Y009120D01*
X013789Y009061D01*
X013876Y008974D01*
X014434Y008974D01*
X014522Y009061D01*
X014522Y009120D01*
X014789Y009120D01*
X014789Y009061D01*
X014876Y008974D01*
X015434Y008974D01*
X015522Y009061D01*
X015522Y009120D01*
X015789Y009120D01*
X015789Y009061D01*
X015876Y008974D01*
X016434Y008974D01*
X016522Y009061D01*
X016522Y009579D01*
X016446Y009655D01*
X016522Y009731D01*
X016522Y010249D01*
X016434Y010337D01*
X016369Y010337D01*
X016605Y010572D01*
X016605Y010683D01*
X016655Y010733D01*
X016713Y010675D01*
X017097Y010675D01*
X017155Y010733D01*
X017213Y010675D01*
X017597Y010675D01*
X017655Y010733D01*
X017683Y010705D01*
X017717Y010685D01*
X017755Y010675D01*
X017890Y010675D01*
X017890Y011210D01*
X017920Y011210D01*
X017920Y010675D01*
X018055Y010675D01*
X018093Y010685D01*
X018127Y010705D01*
X018155Y010733D01*
X018175Y010767D01*
X018185Y010805D01*
X018655Y010805D01*
X018655Y010707D02*
X018129Y010707D01*
X018185Y010805D02*
X018185Y011210D01*
X017920Y011210D01*
X017920Y011240D01*
X017890Y011240D01*
X017890Y011775D01*
X017755Y011775D01*
X017717Y011765D01*
X017683Y011745D01*
X017655Y011717D01*
X017605Y011767D01*
X017605Y011822D01*
X017738Y011955D01*
X018322Y011955D01*
X018655Y011622D01*
X018655Y010190D01*
X018002Y010190D01*
X018002Y010268D01*
X017914Y010356D01*
X017396Y010356D01*
X017308Y010268D01*
X017308Y009711D01*
X017364Y009655D01*
X017338Y009629D01*
X017319Y009595D01*
X017308Y009557D01*
X017308Y009369D01*
X017606Y009369D01*
X017606Y009272D01*
X017308Y009272D01*
X017308Y009084D01*
X017319Y009046D01*
X017338Y009012D01*
X017366Y008984D01*
X017400Y008964D01*
X017439Y008954D01*
X017607Y008954D01*
X017607Y009272D01*
X017704Y009272D01*
X017704Y009369D01*
X018002Y009369D01*
X018002Y009557D01*
X017992Y009595D01*
X017972Y009629D01*
X017946Y009655D01*
X018002Y009711D01*
X018002Y009790D01*
X018655Y009790D01*
X018655Y009693D01*
X018743Y009605D01*
X019567Y009605D01*
X019655Y009693D01*
X019655Y011817D01*
X019567Y011905D01*
X018938Y011905D01*
X018488Y012355D01*
X018322Y012355D01*
X017572Y012355D01*
X017455Y012238D01*
X017205Y011988D01*
X017205Y011822D01*
X017205Y011767D01*
X017155Y011717D01*
X017105Y011767D01*
X017105Y012322D01*
X018238Y013455D01*
X018693Y013455D01*
X018743Y013405D01*
X019567Y013405D01*
X019655Y013493D01*
X019655Y015617D01*
X019567Y015705D01*
X019363Y015705D01*
X019612Y015954D01*
X019914Y015954D01*
X020002Y016042D01*
X020002Y016599D01*
X019946Y016655D01*
X019972Y016681D01*
X019992Y016715D01*
X020002Y016753D01*
X020002Y016941D01*
X019704Y016941D01*
X019704Y017038D01*
X020002Y017038D01*
X020002Y017226D01*
X019992Y017264D01*
X019972Y017298D01*
X019944Y017326D01*
X019933Y017333D01*
X019935Y017340D01*
X019935Y017605D01*
X019579Y017605D01*
X019579Y017705D01*
X019479Y017705D01*
X019479Y018100D01*
X019253Y018100D01*
X019215Y018090D01*
X019181Y018070D01*
X019155Y018044D01*
X019099Y018100D01*
X018981Y018100D01*
X018981Y018151D01*
X019069Y018239D01*
X019069Y019072D01*
X018985Y019155D01*
X019069Y019239D01*
X019069Y020072D01*
X018981Y020159D01*
X018227Y020159D01*
X018139Y020072D01*
X018139Y019855D01*
X017965Y019855D01*
X017965Y019867D01*
X017877Y019955D01*
X016873Y019955D01*
X016785Y019867D01*
X016785Y019855D01*
X016470Y019855D01*
X016467Y019863D01*
X016363Y019967D01*
X016228Y020023D01*
X016082Y020023D01*
X015947Y019967D01*
X015843Y019863D01*
X015840Y019855D01*
X014363Y019855D01*
X014197Y019855D01*
X014105Y019763D01*
X014105Y019841D01*
X013841Y020105D01*
X013469Y020105D01*
X013205Y019841D01*
X013205Y019469D01*
X013319Y019355D01*
X012991Y019355D01*
X013105Y019469D01*
X013105Y019841D01*
X012841Y020105D01*
X012469Y020105D01*
X012205Y019841D01*
X012205Y019469D01*
X012319Y019355D01*
X011991Y019355D01*
X012015Y019378D02*
X012295Y019378D01*
X012205Y019477D02*
X012105Y019477D01*
X012105Y019575D02*
X012205Y019575D01*
X012205Y019674D02*
X012105Y019674D01*
X012105Y019773D02*
X012205Y019773D01*
X012235Y019871D02*
X012076Y019871D01*
X011977Y019970D02*
X012333Y019970D01*
X012432Y020068D02*
X011878Y020068D01*
X011432Y020068D02*
X010878Y020068D01*
X010841Y020105D02*
X010705Y020105D01*
X010705Y019705D01*
X011105Y019705D01*
X011105Y019841D01*
X010841Y020105D01*
X010705Y020068D02*
X010605Y020068D01*
X010605Y020105D02*
X010469Y020105D01*
X010205Y019841D01*
X010205Y019705D01*
X010605Y019705D01*
X010605Y020105D01*
X010605Y019970D02*
X010705Y019970D01*
X010705Y019871D02*
X010605Y019871D01*
X010605Y019773D02*
X010705Y019773D01*
X010705Y019674D02*
X011205Y019674D01*
X011205Y019773D02*
X011105Y019773D01*
X011076Y019871D02*
X011235Y019871D01*
X011333Y019970D02*
X010977Y019970D01*
X011105Y019575D02*
X011205Y019575D01*
X011205Y019477D02*
X011105Y019477D01*
X011015Y019378D02*
X011295Y019378D01*
X011249Y018886D02*
X011061Y018886D01*
X011105Y018787D02*
X011205Y018787D01*
X011205Y018689D02*
X011105Y018689D01*
X011105Y018590D02*
X011205Y018590D01*
X011205Y018491D02*
X011105Y018491D01*
X011029Y018393D02*
X011281Y018393D01*
X011379Y018294D02*
X010931Y018294D01*
X010379Y018294D02*
X009931Y018294D01*
X010029Y018393D02*
X010281Y018393D01*
X010205Y018491D02*
X010105Y018491D01*
X010105Y018590D02*
X010205Y018590D01*
X010205Y018689D02*
X010105Y018689D01*
X010105Y018787D02*
X010205Y018787D01*
X010249Y018886D02*
X010061Y018886D01*
X010015Y019378D02*
X010295Y019378D01*
X010205Y019477D02*
X010105Y019477D01*
X010105Y019575D02*
X010205Y019575D01*
X010105Y019674D02*
X010605Y019674D01*
X010333Y019970D02*
X009977Y019970D01*
X009878Y020068D02*
X010432Y020068D01*
X010235Y019871D02*
X010076Y019871D01*
X010105Y019773D02*
X010205Y019773D01*
X009432Y020068D02*
X008878Y020068D01*
X008977Y019970D02*
X009333Y019970D01*
X009235Y019871D02*
X009076Y019871D01*
X009105Y019773D02*
X009205Y019773D01*
X009205Y019674D02*
X009105Y019674D01*
X009105Y019575D02*
X009205Y019575D01*
X009205Y019477D02*
X009105Y019477D01*
X009015Y019378D02*
X009295Y019378D01*
X009249Y018886D02*
X009061Y018886D01*
X009105Y018787D02*
X009205Y018787D01*
X009205Y018689D02*
X009105Y018689D01*
X009105Y018590D02*
X009205Y018590D01*
X009205Y018491D02*
X009105Y018491D01*
X009029Y018393D02*
X009281Y018393D01*
X009379Y018294D02*
X008931Y018294D01*
X008379Y018294D02*
X007931Y018294D01*
X008029Y018393D02*
X008281Y018393D01*
X008205Y018491D02*
X008105Y018491D01*
X008105Y018590D02*
X008205Y018590D01*
X008205Y018689D02*
X008105Y018689D01*
X008105Y018787D02*
X008205Y018787D01*
X008249Y018886D02*
X008061Y018886D01*
X008015Y019378D02*
X008295Y019378D01*
X008205Y019477D02*
X008105Y019477D01*
X008105Y019575D02*
X008205Y019575D01*
X008205Y019674D02*
X007705Y019674D01*
X007705Y019705D02*
X008105Y019705D01*
X008105Y019841D01*
X007841Y020105D01*
X007705Y020105D01*
X007705Y019705D01*
X007705Y019773D02*
X007605Y019773D01*
X007605Y019705D02*
X007605Y020105D01*
X007469Y020105D01*
X007205Y019841D01*
X007205Y019705D01*
X007605Y019705D01*
X007605Y019674D02*
X007105Y019674D01*
X007105Y019773D02*
X007205Y019773D01*
X007235Y019871D02*
X007076Y019871D01*
X006977Y019970D02*
X007333Y019970D01*
X007432Y020068D02*
X006878Y020068D01*
X006432Y020068D02*
X005878Y020068D01*
X005977Y019970D02*
X006333Y019970D01*
X006235Y019871D02*
X006076Y019871D01*
X006105Y019773D02*
X006205Y019773D01*
X006205Y019674D02*
X006105Y019674D01*
X006105Y019575D02*
X006205Y019575D01*
X006205Y019477D02*
X006105Y019477D01*
X006015Y019378D02*
X006295Y019378D01*
X006249Y018886D02*
X006061Y018886D01*
X006105Y018787D02*
X006205Y018787D01*
X006205Y018689D02*
X005705Y018689D01*
X005705Y018590D02*
X005605Y018590D01*
X005605Y018605D02*
X005605Y018205D01*
X005469Y018205D01*
X005205Y018469D01*
X005205Y018605D01*
X005605Y018605D01*
X005605Y018689D02*
X005105Y018689D01*
X005105Y018787D02*
X005205Y018787D01*
X005249Y018886D02*
X005061Y018886D01*
X005105Y018590D02*
X005205Y018590D01*
X005205Y018491D02*
X005105Y018491D01*
X005029Y018393D02*
X005281Y018393D01*
X005379Y018294D02*
X004931Y018294D01*
X004379Y018294D02*
X003931Y018294D01*
X004029Y018393D02*
X004281Y018393D01*
X004205Y018491D02*
X004105Y018491D01*
X004105Y018590D02*
X004205Y018590D01*
X004205Y018689D02*
X004105Y018689D01*
X004105Y018787D02*
X004205Y018787D01*
X004249Y018886D02*
X004061Y018886D01*
X004015Y019378D02*
X004295Y019378D01*
X004205Y019477D02*
X004105Y019477D01*
X004105Y019575D02*
X004205Y019575D01*
X004205Y019674D02*
X003705Y019674D01*
X003705Y019705D02*
X004105Y019705D01*
X004105Y019841D01*
X003841Y020105D01*
X003705Y020105D01*
X003705Y019705D01*
X003705Y019773D02*
X003605Y019773D01*
X003605Y019705D02*
X003605Y020105D01*
X003469Y020105D01*
X003205Y019841D01*
X003205Y019705D01*
X003605Y019705D01*
X003605Y019674D02*
X003105Y019674D01*
X003105Y019773D02*
X003205Y019773D01*
X003235Y019871D02*
X003076Y019871D01*
X002977Y019970D02*
X003333Y019970D01*
X003432Y020068D02*
X002878Y020068D01*
X002432Y020068D02*
X001878Y020068D01*
X001977Y019970D02*
X002333Y019970D01*
X002235Y019871D02*
X002076Y019871D01*
X002105Y019773D02*
X002205Y019773D01*
X002205Y019674D02*
X002105Y019674D01*
X002105Y019575D02*
X002205Y019575D01*
X002205Y019477D02*
X002116Y019477D01*
X002215Y019378D02*
X002295Y019378D01*
X002155Y019155D02*
X001655Y019655D01*
X001333Y019970D02*
X000805Y019970D01*
X000805Y020068D02*
X001432Y020068D01*
X001235Y019871D02*
X000805Y019871D01*
X000805Y019773D02*
X001205Y019773D01*
X001205Y019674D02*
X000805Y019674D01*
X000805Y019575D02*
X001205Y019575D01*
X001205Y019477D02*
X000805Y019477D01*
X000805Y019378D02*
X001295Y019378D01*
X001394Y019280D02*
X000805Y019280D01*
X000805Y019181D02*
X001846Y019181D01*
X001841Y019105D02*
X001469Y019105D01*
X001205Y018841D01*
X001205Y018469D01*
X001469Y018205D01*
X001841Y018205D01*
X002105Y018469D01*
X002105Y018841D01*
X001841Y019105D01*
X001864Y019083D02*
X001945Y019083D01*
X001955Y019072D02*
X001955Y019072D01*
X001962Y018984D02*
X002043Y018984D01*
X002061Y018886D02*
X002249Y018886D01*
X002205Y018787D02*
X002105Y018787D01*
X002105Y018689D02*
X002205Y018689D01*
X002205Y018590D02*
X002105Y018590D01*
X002105Y018491D02*
X002205Y018491D01*
X002281Y018393D02*
X002029Y018393D01*
X001931Y018294D02*
X002379Y018294D01*
X002212Y018097D02*
X002955Y018097D01*
X002955Y017999D02*
X002450Y017999D01*
X002519Y017970D02*
X002173Y018113D01*
X001799Y018113D01*
X001453Y017970D01*
X001188Y017706D01*
X001045Y017360D01*
X001045Y016986D01*
X001188Y016640D01*
X001453Y016375D01*
X001799Y016232D01*
X002173Y016232D01*
X002519Y016375D01*
X002783Y016640D01*
X002926Y016986D01*
X002926Y017360D01*
X002783Y017706D01*
X002519Y017970D01*
X002589Y017900D02*
X002955Y017900D01*
X002955Y017802D02*
X002687Y017802D01*
X002784Y017703D02*
X002955Y017703D01*
X002955Y017605D02*
X002825Y017605D01*
X002866Y017506D02*
X002955Y017506D01*
X002955Y017407D02*
X002907Y017407D01*
X002926Y017309D02*
X002955Y017309D01*
X002955Y017210D02*
X002926Y017210D01*
X002926Y017112D02*
X002955Y017112D01*
X002955Y017013D02*
X002926Y017013D01*
X002897Y016915D02*
X002955Y016915D01*
X002955Y016816D02*
X002856Y016816D01*
X002815Y016718D02*
X002955Y016718D01*
X002955Y016619D02*
X002762Y016619D01*
X002664Y016521D02*
X002955Y016521D01*
X002955Y016422D02*
X002565Y016422D01*
X002393Y016324D02*
X002955Y016324D01*
X002955Y016225D02*
X000805Y016225D01*
X000805Y016324D02*
X001578Y016324D01*
X001406Y016422D02*
X000805Y016422D01*
X000805Y016521D02*
X001308Y016521D01*
X001209Y016619D02*
X000805Y016619D01*
X000805Y016718D02*
X001156Y016718D01*
X001115Y016816D02*
X000805Y016816D01*
X000805Y016915D02*
X001075Y016915D01*
X001045Y017013D02*
X000805Y017013D01*
X000805Y017112D02*
X001045Y017112D01*
X001045Y017210D02*
X000805Y017210D01*
X000805Y017309D02*
X001045Y017309D01*
X001065Y017407D02*
X000805Y017407D01*
X000805Y017506D02*
X001106Y017506D01*
X001147Y017605D02*
X000805Y017605D01*
X000805Y017703D02*
X001187Y017703D01*
X001285Y017802D02*
X000805Y017802D01*
X000805Y017900D02*
X001383Y017900D01*
X001522Y017999D02*
X000805Y017999D01*
X000805Y018097D02*
X001760Y018097D01*
X001379Y018294D02*
X000805Y018294D01*
X000805Y018196D02*
X002955Y018196D01*
X002955Y018294D02*
X002931Y018294D01*
X003355Y018294D02*
X003379Y018294D01*
X003355Y018196D02*
X014352Y018196D01*
X014352Y018294D02*
X013931Y018294D01*
X014029Y018393D02*
X014352Y018393D01*
X014352Y018491D02*
X014105Y018491D01*
X014105Y018590D02*
X014352Y018590D01*
X014352Y018689D02*
X013705Y018689D01*
X013705Y018590D02*
X013605Y018590D01*
X013605Y018491D02*
X013705Y018491D01*
X013705Y018393D02*
X013605Y018393D01*
X013605Y018294D02*
X013705Y018294D01*
X013962Y017802D02*
X012450Y017802D01*
X012484Y017703D02*
X013871Y017703D01*
X013831Y017605D02*
X012484Y017605D01*
X012449Y017506D02*
X013827Y017506D01*
X013850Y017407D02*
X012372Y017407D01*
X012349Y017309D02*
X004217Y017309D01*
X004315Y017407D02*
X011938Y017407D01*
X011737Y017210D02*
X012289Y017210D01*
X012655Y016990D02*
X011565Y016990D01*
X011155Y016580D01*
X010505Y016619D02*
X003730Y016619D01*
X003730Y016521D02*
X010505Y016521D01*
X010505Y016422D02*
X003730Y016422D01*
X003730Y016324D02*
X010505Y016324D01*
X010505Y016225D02*
X003730Y016225D01*
X003730Y016126D02*
X010505Y016126D01*
X010505Y016028D02*
X008592Y016028D01*
X008828Y015929D02*
X012455Y015929D01*
X012455Y015831D02*
X008926Y015831D01*
X009025Y015732D02*
X012455Y015732D01*
X012455Y015634D02*
X009072Y015634D01*
X009112Y015535D02*
X012455Y015535D01*
X012455Y015437D02*
X009148Y015437D01*
X009148Y015338D02*
X010551Y015338D01*
X010505Y015240D02*
X009148Y015240D01*
X009142Y015141D02*
X010505Y015141D01*
X010505Y015042D02*
X009101Y015042D01*
X009060Y014944D02*
X010505Y014944D01*
X010505Y014845D02*
X008997Y014845D01*
X008052Y014648D02*
X007510Y014648D01*
X007646Y014747D02*
X007916Y014747D01*
X007817Y014845D02*
X007745Y014845D01*
X007773Y015732D02*
X007789Y015732D01*
X007888Y015831D02*
X007674Y015831D01*
X007576Y015929D02*
X007986Y015929D01*
X008223Y016028D02*
X007340Y016028D01*
X006971Y016028D02*
X003730Y016028D01*
X003730Y015929D02*
X006734Y015929D01*
X006636Y015831D02*
X003730Y015831D01*
X003730Y015732D02*
X006537Y015732D01*
X006491Y015634D02*
X003730Y015634D01*
X003730Y015535D02*
X006450Y015535D01*
X006415Y015437D02*
X003730Y015437D01*
X003730Y015338D02*
X006415Y015338D01*
X006415Y015240D02*
X003730Y015240D01*
X003730Y015141D02*
X006421Y015141D01*
X006461Y015042D02*
X003730Y015042D01*
X003730Y014944D02*
X003744Y014944D01*
X004066Y014944D02*
X006502Y014944D01*
X006565Y014845D02*
X004179Y014845D01*
X004223Y014747D02*
X006664Y014747D01*
X006800Y014648D02*
X004234Y014648D01*
X002955Y014648D02*
X000805Y014648D01*
X000805Y014550D02*
X002955Y014550D01*
X002955Y014451D02*
X000805Y014451D01*
X000805Y014353D02*
X002955Y014353D01*
X002955Y014254D02*
X000805Y014254D01*
X000805Y014156D02*
X002955Y014156D01*
X002955Y014057D02*
X000805Y014057D01*
X000805Y013958D02*
X002955Y013958D01*
X002955Y013860D02*
X000805Y013860D01*
X000805Y013761D02*
X002955Y013761D01*
X002955Y013663D02*
X000805Y013663D01*
X000805Y013564D02*
X002955Y013564D01*
X002955Y013466D02*
X000805Y013466D01*
X000805Y013367D02*
X002955Y013367D01*
X002955Y013269D02*
X000805Y013269D01*
X000805Y013170D02*
X002955Y013170D01*
X002955Y013072D02*
X000805Y013072D01*
X000805Y012973D02*
X002955Y012973D01*
X002955Y012874D02*
X000805Y012874D01*
X000805Y012776D02*
X002955Y012776D01*
X002955Y012677D02*
X000805Y012677D01*
X000805Y012579D02*
X002955Y012579D01*
X002955Y012480D02*
X000805Y012480D01*
X000805Y012382D02*
X002955Y012382D01*
X002955Y012283D02*
X000805Y012283D01*
X000805Y012185D02*
X002955Y012185D01*
X002955Y012086D02*
X000805Y012086D01*
X000805Y011988D02*
X002955Y011988D01*
X002955Y011889D02*
X000805Y011889D01*
X000805Y011791D02*
X002955Y011791D01*
X002955Y011692D02*
X000805Y011692D01*
X000805Y011593D02*
X002955Y011593D01*
X002955Y011495D02*
X000805Y011495D01*
X000805Y011396D02*
X002955Y011396D01*
X002955Y011298D02*
X000805Y011298D01*
X000805Y011199D02*
X002955Y011199D01*
X002955Y011101D02*
X000805Y011101D01*
X000805Y011002D02*
X002955Y011002D01*
X002955Y010904D02*
X000805Y010904D01*
X000805Y010805D02*
X002955Y010805D01*
X002955Y010707D02*
X000805Y010707D01*
X000805Y010608D02*
X002955Y010608D01*
X002955Y010509D02*
X000805Y010509D01*
X000805Y010411D02*
X002955Y010411D01*
X002955Y010312D02*
X000805Y010312D01*
X000805Y010214D02*
X002955Y010214D01*
X002955Y010115D02*
X000805Y010115D01*
X000805Y010017D02*
X002955Y010017D01*
X002955Y009918D02*
X000805Y009918D01*
X000805Y009820D02*
X002955Y009820D01*
X002955Y009721D02*
X000805Y009721D01*
X000805Y009623D02*
X002955Y009623D01*
X002955Y009524D02*
X000805Y009524D01*
X000805Y009425D02*
X002955Y009425D01*
X002955Y009327D02*
X000805Y009327D01*
X000805Y009228D02*
X002955Y009228D01*
X002955Y009130D02*
X000805Y009130D01*
X000805Y009031D02*
X002955Y009031D01*
X002955Y008933D02*
X000805Y008933D01*
X000805Y008834D02*
X002955Y008834D01*
X002955Y008736D02*
X000805Y008736D01*
X000805Y008637D02*
X002955Y008637D01*
X002955Y008539D02*
X000805Y008539D01*
X000805Y008440D02*
X002955Y008440D01*
X002955Y008341D02*
X000805Y008341D01*
X000805Y008243D02*
X002955Y008243D01*
X002955Y008144D02*
X000805Y008144D01*
X000805Y008046D02*
X002955Y008046D01*
X002955Y007947D02*
X000805Y007947D01*
X000805Y007849D02*
X002955Y007849D01*
X002955Y007750D02*
X000805Y007750D01*
X000805Y007652D02*
X002955Y007652D01*
X002955Y007553D02*
X000805Y007553D01*
X000805Y007455D02*
X002955Y007455D01*
X002955Y007356D02*
X000805Y007356D01*
X000805Y007258D02*
X002955Y007258D01*
X002955Y007159D02*
X000805Y007159D01*
X000805Y007060D02*
X002955Y007060D01*
X002955Y006962D02*
X000805Y006962D01*
X000805Y006863D02*
X002899Y006863D01*
X002845Y006765D02*
X000805Y006765D01*
X000805Y006666D02*
X002827Y006666D01*
X002836Y006568D02*
X000805Y006568D01*
X000805Y006469D02*
X002877Y006469D01*
X002984Y006371D02*
X000805Y006371D01*
X000805Y006272D02*
X003949Y006272D01*
X003866Y006371D02*
X003326Y006371D01*
X003434Y006469D02*
X003484Y006590D01*
X003484Y006720D01*
X003434Y006841D01*
X003355Y006920D01*
X003355Y009372D01*
X003465Y009327D01*
X003595Y009327D01*
X003705Y009372D01*
X003705Y008920D01*
X003627Y008841D01*
X003577Y008720D01*
X003577Y008590D01*
X003627Y008469D01*
X003719Y008377D01*
X003840Y008327D01*
X003970Y008327D01*
X004091Y008377D01*
X004184Y008469D01*
X004234Y008590D01*
X004234Y008720D01*
X004184Y008841D01*
X004105Y008920D01*
X004105Y010080D01*
X006850Y010080D01*
X006827Y010071D01*
X006743Y010022D01*
X006666Y009963D01*
X006597Y009894D01*
X006538Y009817D01*
X006490Y009733D01*
X006452Y009644D01*
X006427Y009550D01*
X006415Y009455D01*
X007105Y009455D01*
X007105Y009355D01*
X007205Y009355D01*
X007205Y008665D01*
X007300Y008677D01*
X007394Y008702D01*
X007483Y008740D01*
X007567Y008788D01*
X007644Y008847D01*
X007713Y008916D01*
X007772Y008993D01*
X007781Y009008D01*
X007790Y008993D01*
X007849Y008916D01*
X007918Y008847D01*
X007995Y008788D01*
X008079Y008740D01*
X008169Y008702D01*
X008262Y008677D01*
X008357Y008665D01*
X008357Y009355D01*
X008457Y009355D01*
X008457Y008665D01*
X008552Y008677D01*
X008646Y008702D01*
X008735Y008740D01*
X008819Y008788D01*
X008896Y008847D01*
X008965Y008916D01*
X009024Y008993D01*
X009073Y009077D01*
X009110Y009167D01*
X009135Y009260D01*
X009147Y009355D01*
X008457Y009355D01*
X008457Y009455D01*
X009147Y009455D01*
X009135Y009550D01*
X009110Y009644D01*
X009084Y009705D01*
X009238Y009705D01*
X009308Y009705D01*
X009308Y009211D01*
X009364Y009155D01*
X009338Y009129D01*
X009319Y009095D01*
X009308Y009057D01*
X009308Y008869D01*
X009606Y008869D01*
X009606Y008772D01*
X009308Y008772D01*
X009308Y008584D01*
X009319Y008546D01*
X009338Y008512D01*
X009366Y008484D01*
X009400Y008464D01*
X009439Y008454D01*
X009607Y008454D01*
X009607Y008772D01*
X009704Y008772D01*
X009704Y008869D01*
X010002Y008869D01*
X010002Y009057D01*
X009992Y009095D01*
X009972Y009129D01*
X009946Y009155D01*
X010002Y009211D01*
X010002Y009705D01*
X010271Y009705D01*
X010219Y009684D01*
X010127Y009591D01*
X010077Y009470D01*
X010077Y009340D01*
X010127Y009219D01*
X010179Y009166D01*
X010135Y009122D01*
X010135Y008293D01*
X010072Y008230D01*
X009488Y008230D01*
X009322Y008230D01*
X009197Y008105D01*
X005072Y008105D01*
X004955Y007988D01*
X004701Y007734D01*
X004590Y007734D01*
X004469Y007684D01*
X004377Y007591D01*
X004327Y007470D01*
X004327Y007340D01*
X004377Y007219D01*
X004469Y007127D01*
X004590Y007077D01*
X004720Y007077D01*
X004841Y007127D01*
X004934Y007219D01*
X004984Y007340D01*
X004984Y007451D01*
X005238Y007705D01*
X009363Y007705D01*
X009480Y007822D01*
X009488Y007830D01*
X010238Y007830D01*
X010355Y007947D01*
X010448Y008040D01*
X010587Y008040D01*
X010658Y008111D01*
X010665Y008098D01*
X010693Y008070D01*
X010727Y008050D01*
X010765Y008040D01*
X010895Y008040D01*
X010895Y008615D01*
X010915Y008615D01*
X010915Y008040D01*
X011045Y008040D01*
X011083Y008050D01*
X011117Y008070D01*
X011145Y008098D01*
X011152Y008111D01*
X011223Y008040D01*
X011587Y008040D01*
X011655Y008108D01*
X011678Y008085D01*
X011322Y007730D01*
X010072Y007730D01*
X009955Y007613D01*
X009822Y007480D01*
X006447Y007480D01*
X006330Y007363D01*
X005697Y006730D01*
X004420Y006730D01*
X004341Y006809D01*
X004220Y006859D01*
X004090Y006859D01*
X003969Y006809D01*
X003877Y006716D01*
X003827Y006595D01*
X003827Y006465D01*
X003827Y006568D02*
X003474Y006568D01*
X003484Y006666D02*
X003856Y006666D01*
X003925Y006765D02*
X003465Y006765D01*
X003411Y006863D02*
X005831Y006863D01*
X005929Y006962D02*
X003355Y006962D01*
X003355Y007060D02*
X006028Y007060D01*
X006126Y007159D02*
X004873Y007159D01*
X004949Y007258D02*
X006225Y007258D01*
X006323Y007356D02*
X004984Y007356D01*
X004987Y007455D02*
X006422Y007455D01*
X006530Y007280D02*
X009905Y007280D01*
X010155Y007530D01*
X011405Y007530D01*
X011905Y008030D01*
X011905Y008625D01*
X011905Y009405D01*
X012211Y009524D02*
X012253Y009524D01*
X012234Y009425D02*
X012352Y009425D01*
X012450Y009327D02*
X012228Y009327D01*
X012187Y009228D02*
X012549Y009228D01*
X012648Y009130D02*
X012167Y009130D01*
X012175Y009031D02*
X013819Y009031D01*
X014155Y009320D02*
X012740Y009320D01*
X012280Y009780D01*
X012480Y009863D02*
X012480Y009863D01*
X012480Y009918D02*
X012857Y009918D01*
X012827Y009820D02*
X012523Y009820D01*
X012622Y009721D02*
X012827Y009721D01*
X012865Y009623D02*
X012720Y009623D01*
X012819Y009524D02*
X012947Y009524D01*
X013155Y009780D02*
X013780Y010405D01*
X014155Y010405D01*
X014405Y010655D01*
X014405Y011225D01*
X013905Y011225D02*
X013905Y010780D01*
X013780Y010655D01*
X013530Y010655D01*
X013155Y010280D01*
X012920Y010509D02*
X012480Y010509D01*
X012480Y010411D02*
X012854Y010411D01*
X012827Y010312D02*
X012480Y010312D01*
X012480Y010214D02*
X012827Y010214D01*
X012868Y010115D02*
X012480Y010115D01*
X012480Y010017D02*
X012927Y010017D01*
X013089Y010608D02*
X012480Y010608D01*
X012480Y010707D02*
X013299Y010707D01*
X013397Y010805D02*
X012480Y010805D01*
X012480Y010904D02*
X013625Y010904D01*
X013625Y011002D02*
X012480Y011002D01*
X012480Y011101D02*
X013625Y011101D01*
X013625Y011199D02*
X012480Y011199D01*
X012480Y011298D02*
X013625Y011298D01*
X013625Y011396D02*
X012447Y011396D01*
X012355Y011495D02*
X012355Y011495D01*
X012607Y011495D02*
X012704Y011495D01*
X012704Y011454D02*
X012872Y011454D01*
X012910Y011464D01*
X012944Y011484D01*
X012972Y011512D01*
X012992Y011546D01*
X013002Y011584D01*
X013002Y011772D01*
X012704Y011772D01*
X012704Y011454D01*
X012704Y011593D02*
X012607Y011593D01*
X012607Y011692D02*
X012704Y011692D01*
X012704Y011791D02*
X016705Y011791D01*
X016705Y011889D02*
X013002Y011889D01*
X013002Y011988D02*
X016705Y011988D01*
X016705Y012086D02*
X012994Y012086D01*
X012976Y012185D02*
X016705Y012185D01*
X016705Y012283D02*
X013002Y012283D01*
X013002Y012382D02*
X015714Y012382D01*
X015622Y012480D02*
X013002Y012480D01*
X013002Y012579D02*
X015581Y012579D01*
X015577Y012677D02*
X013002Y012677D01*
X012994Y012776D02*
X015195Y012776D01*
X015114Y012874D02*
X012855Y012874D01*
X012655Y013155D02*
X012655Y013820D01*
X013002Y013860D02*
X013705Y013860D01*
X013705Y013958D02*
X013002Y013958D01*
X013002Y014057D02*
X013705Y014057D01*
X013705Y014156D02*
X012946Y014156D01*
X013002Y014254D02*
X013705Y014254D01*
X013705Y014353D02*
X013002Y014353D01*
X012704Y014451D02*
X013705Y014451D01*
X014105Y014057D02*
X014590Y014057D01*
X014637Y013958D02*
X014105Y013958D01*
X014105Y013860D02*
X014760Y013860D01*
X015051Y013860D02*
X015205Y013860D01*
X015205Y013958D02*
X015173Y013958D01*
X015205Y013761D02*
X014105Y013761D01*
X014105Y013663D02*
X015205Y013663D01*
X015205Y013564D02*
X014105Y013564D01*
X014105Y013466D02*
X015205Y013466D01*
X015205Y013367D02*
X014105Y013367D01*
X014051Y013269D02*
X015179Y013269D01*
X015108Y013170D02*
X013953Y013170D01*
X013854Y013072D02*
X015077Y013072D01*
X015077Y012973D02*
X013756Y012973D01*
X013584Y013367D02*
X012855Y013367D01*
X012926Y013466D02*
X013683Y013466D01*
X013705Y013564D02*
X013002Y013564D01*
X013002Y013663D02*
X013705Y013663D01*
X013705Y013761D02*
X013002Y013761D01*
X012655Y015085D02*
X012655Y016320D01*
X012289Y016324D02*
X011805Y016324D01*
X011805Y016422D02*
X012289Y016422D01*
X012289Y016521D02*
X011805Y016521D01*
X011805Y016619D02*
X012328Y016619D01*
X012302Y016718D02*
X011805Y016718D01*
X011805Y016225D02*
X012289Y016225D01*
X012289Y016126D02*
X011805Y016126D01*
X011805Y016028D02*
X012322Y016028D01*
X012855Y015974D02*
X012934Y015974D01*
X013022Y016061D01*
X013022Y016579D01*
X012946Y016655D01*
X013022Y016731D01*
X013022Y016790D01*
X013308Y016790D01*
X013308Y016711D01*
X013364Y016655D01*
X013338Y016629D01*
X013319Y016595D01*
X013308Y016557D01*
X013308Y016369D01*
X013606Y016369D01*
X013606Y016272D01*
X013308Y016272D01*
X013308Y016084D01*
X013319Y016046D01*
X013338Y016012D01*
X013366Y015984D01*
X013400Y015964D01*
X013439Y015954D01*
X013607Y015954D01*
X013607Y016272D01*
X013704Y016272D01*
X013704Y016369D01*
X014002Y016369D01*
X014002Y016557D01*
X013992Y016595D01*
X013972Y016629D01*
X013946Y016655D01*
X014002Y016711D01*
X014002Y016790D01*
X014289Y016790D01*
X014289Y016731D01*
X014364Y016655D01*
X014289Y016579D01*
X014289Y016205D01*
X014220Y016234D01*
X014090Y016234D01*
X014002Y016197D01*
X014002Y016272D01*
X013704Y016272D01*
X013704Y015954D01*
X013827Y015954D01*
X013827Y015860D01*
X013822Y015855D01*
X013705Y015738D01*
X013705Y015627D01*
X013625Y015547D01*
X013625Y015285D01*
X012855Y015285D01*
X012855Y015974D01*
X012855Y015929D02*
X013827Y015929D01*
X013798Y015831D02*
X012855Y015831D01*
X012855Y015732D02*
X013705Y015732D01*
X013705Y015634D02*
X012855Y015634D01*
X012855Y015535D02*
X013625Y015535D01*
X013625Y015437D02*
X012855Y015437D01*
X012855Y015338D02*
X013625Y015338D01*
X013607Y016028D02*
X013704Y016028D01*
X013704Y016126D02*
X013607Y016126D01*
X013607Y016225D02*
X013704Y016225D01*
X013704Y016324D02*
X014289Y016324D01*
X014289Y016422D02*
X014002Y016422D01*
X014002Y016521D02*
X014289Y016521D01*
X014328Y016619D02*
X013978Y016619D01*
X014002Y016718D02*
X014302Y016718D01*
X014655Y016990D02*
X013655Y016990D01*
X012655Y016990D01*
X013022Y017210D02*
X013308Y017210D01*
X013349Y017309D02*
X012961Y017309D01*
X013009Y016718D02*
X013308Y016718D01*
X013333Y016619D02*
X012982Y016619D01*
X013022Y016521D02*
X013308Y016521D01*
X013308Y016422D02*
X013022Y016422D01*
X013022Y016324D02*
X013606Y016324D01*
X013329Y016028D02*
X012988Y016028D01*
X013022Y016126D02*
X013308Y016126D01*
X013308Y016225D02*
X013022Y016225D01*
X012455Y015338D02*
X011759Y015338D01*
X011168Y013958D02*
X011143Y013958D01*
X010869Y013958D02*
X010772Y013958D01*
X010772Y013860D02*
X010869Y013860D01*
X010869Y013761D02*
X010772Y013761D01*
X010655Y011820D02*
X010905Y011570D01*
X010905Y010685D01*
X010905Y009905D01*
X011405Y009905D02*
X011405Y010685D01*
X011405Y011570D01*
X011655Y011820D01*
X012955Y011495D02*
X013625Y011495D01*
X013625Y011593D02*
X013002Y011593D01*
X013002Y011692D02*
X013630Y011692D01*
X014570Y010405D02*
X014155Y009990D01*
X014570Y010405D02*
X014905Y010405D01*
X015405Y010905D01*
X015405Y011225D01*
X015905Y011225D02*
X015905Y010655D01*
X015655Y010405D01*
X015570Y010405D01*
X015155Y009990D01*
X015155Y009320D02*
X014155Y009320D01*
X014491Y009031D02*
X014819Y009031D01*
X015155Y009320D02*
X016155Y009320D01*
X015819Y009031D02*
X015491Y009031D01*
X015482Y008440D02*
X014830Y008440D01*
X015002Y008341D02*
X015454Y008341D01*
X015454Y008243D02*
X015100Y008243D01*
X015199Y008144D02*
X015772Y008144D01*
X015772Y008046D02*
X015869Y008046D01*
X015869Y007947D02*
X015772Y007947D01*
X015772Y007849D02*
X015869Y007849D01*
X015717Y007652D02*
X015691Y007652D01*
X015593Y007750D02*
X016943Y007750D01*
X016974Y007652D02*
X016758Y007652D01*
X016823Y007553D02*
X016936Y007553D01*
X016837Y007455D02*
X016823Y007455D01*
X016905Y007240D02*
X017320Y007655D01*
X016820Y008155D01*
X016490Y008155D01*
X016809Y007849D02*
X016844Y007849D01*
X017114Y008144D02*
X017702Y008144D01*
X017711Y008243D02*
X017015Y008243D01*
X016917Y008341D02*
X017752Y008341D01*
X017860Y008440D02*
X016830Y008440D01*
X017213Y008046D02*
X017720Y008046D01*
X017656Y007947D02*
X017654Y007947D01*
X017990Y008115D02*
X017990Y007655D01*
X018337Y007652D02*
X018454Y007652D01*
X018454Y007750D02*
X018337Y007750D01*
X018337Y007849D02*
X018454Y007849D01*
X018487Y007947D02*
X018323Y007947D01*
X018340Y008046D02*
X020190Y008046D01*
X020190Y008144D02*
X018359Y008144D01*
X018349Y008243D02*
X020190Y008243D01*
X020190Y008341D02*
X018308Y008341D01*
X018200Y008440D02*
X020190Y008440D01*
X020190Y008539D02*
X012175Y008539D01*
X012175Y008637D02*
X020190Y008637D01*
X020190Y008736D02*
X012175Y008736D01*
X012175Y008834D02*
X020190Y008834D01*
X020190Y008933D02*
X012175Y008933D01*
X012175Y008440D02*
X013482Y008440D01*
X013454Y008341D02*
X012175Y008341D01*
X012175Y008243D02*
X013454Y008243D01*
X013454Y008046D02*
X012105Y008046D01*
X012105Y007947D02*
X013454Y007947D01*
X013501Y007849D02*
X012007Y007849D01*
X011908Y007750D02*
X015027Y007750D01*
X015126Y007652D02*
X014593Y007652D01*
X014657Y007553D02*
X015224Y007553D01*
X015323Y007455D02*
X014657Y007455D01*
X014657Y007356D02*
X015421Y007356D01*
X015205Y007258D02*
X015105Y007258D01*
X015105Y007159D02*
X015205Y007159D01*
X015205Y007060D02*
X015105Y007060D01*
X015105Y006962D02*
X015205Y006962D01*
X015205Y006863D02*
X015105Y006863D01*
X015105Y006765D02*
X015205Y006765D01*
X015205Y006568D02*
X015105Y006568D01*
X015105Y006469D02*
X015205Y006469D01*
X015205Y006371D02*
X015105Y006371D01*
X015105Y006272D02*
X015205Y006272D01*
X015205Y006174D02*
X015105Y006174D01*
X015105Y006075D02*
X015205Y006075D01*
X015653Y005976D02*
X014657Y005976D01*
X014657Y005878D02*
X015653Y005878D01*
X015653Y005779D02*
X014657Y005779D01*
X014615Y005681D02*
X015695Y005681D01*
X016238Y005905D02*
X017070Y005905D01*
X017320Y005655D01*
X017320Y005074D01*
X017905Y004490D01*
X018272Y004498D02*
X018651Y004498D01*
X018651Y004400D02*
X018272Y004400D01*
X018272Y004301D02*
X018680Y004301D01*
X018681Y004299D02*
X018709Y004271D01*
X018743Y004252D01*
X018781Y004241D01*
X019105Y004241D01*
X019105Y004656D01*
X019205Y004656D01*
X019205Y004241D01*
X019529Y004241D01*
X019567Y004252D01*
X019602Y004271D01*
X019629Y004299D01*
X019649Y004333D01*
X019659Y004372D01*
X019659Y004656D01*
X019205Y004656D01*
X019205Y004756D01*
X019659Y004756D01*
X019659Y005041D01*
X019649Y005079D01*
X019629Y005113D01*
X019602Y005141D01*
X019567Y005161D01*
X019529Y005171D01*
X019205Y005171D01*
X019205Y004756D01*
X019105Y004756D01*
X019105Y004656D01*
X018651Y004656D01*
X018651Y004372D01*
X018661Y004333D01*
X018681Y004299D01*
X018675Y004006D02*
X018272Y004006D01*
X018272Y003907D02*
X018651Y003907D01*
X018651Y003809D02*
X018272Y003809D01*
X018272Y003710D02*
X018651Y003710D01*
X018651Y003611D02*
X018272Y003611D01*
X018223Y003513D02*
X018631Y003513D01*
X018247Y004104D02*
X020190Y004104D01*
X020190Y004006D02*
X019635Y004006D01*
X019659Y003907D02*
X020190Y003907D01*
X020190Y003809D02*
X019659Y003809D01*
X019659Y003710D02*
X020190Y003710D01*
X020190Y003611D02*
X019659Y003611D01*
X019659Y003513D02*
X020190Y003513D01*
X020190Y003414D02*
X019659Y003414D01*
X019659Y003316D02*
X020190Y003316D01*
X020190Y003217D02*
X019650Y003217D01*
X019462Y003119D02*
X020190Y003119D01*
X020190Y003020D02*
X019506Y003020D01*
X019523Y002922D02*
X020190Y002922D01*
X020190Y002823D02*
X019519Y002823D01*
X019478Y002725D02*
X020190Y002725D01*
X020190Y002626D02*
X019396Y002626D01*
X018914Y002626D02*
X017372Y002626D01*
X017372Y002725D02*
X018832Y002725D01*
X018791Y002823D02*
X017372Y002823D01*
X017372Y002527D02*
X020190Y002527D01*
X020190Y002429D02*
X017358Y002429D01*
X016457Y002429D02*
X013854Y002429D01*
X013868Y002527D02*
X016442Y002527D01*
X016442Y002626D02*
X013868Y002626D01*
X013868Y002725D02*
X016442Y002725D01*
X016442Y002823D02*
X013868Y002823D01*
X013868Y002922D02*
X016442Y002922D01*
X016442Y003020D02*
X013868Y003020D01*
X013868Y003119D02*
X016442Y003119D01*
X016442Y003217D02*
X013868Y003217D01*
X013868Y003316D02*
X016442Y003316D01*
X016442Y003414D02*
X013868Y003414D01*
X013868Y003513D02*
X016442Y003513D01*
X016442Y003611D02*
X013868Y003611D01*
X013868Y003710D02*
X016442Y003710D01*
X016442Y003809D02*
X013868Y003809D01*
X013828Y003907D02*
X016482Y003907D01*
X017332Y003907D02*
X017539Y003907D01*
X017539Y003809D02*
X017372Y003809D01*
X017372Y003710D02*
X017539Y003710D01*
X017539Y003611D02*
X017372Y003611D01*
X017372Y003513D02*
X017587Y003513D01*
X017539Y004006D02*
X013635Y004006D01*
X013635Y004104D02*
X017563Y004104D01*
X017567Y004203D02*
X013635Y004203D01*
X013635Y004301D02*
X017539Y004301D01*
X017539Y004400D02*
X013635Y004400D01*
X013635Y004498D02*
X017539Y004498D01*
X017515Y004597D02*
X013635Y004597D01*
X013635Y004695D02*
X017417Y004695D01*
X017318Y004794D02*
X013635Y004794D01*
X013635Y004892D02*
X017220Y004892D01*
X017121Y004991D02*
X013635Y004991D01*
X013635Y005090D02*
X017120Y005090D01*
X017120Y005188D02*
X013635Y005188D01*
X013635Y005287D02*
X017120Y005287D01*
X016974Y005385D02*
X013635Y005385D01*
X013635Y005484D02*
X016974Y005484D01*
X016974Y005582D02*
X013635Y005582D01*
X014062Y005681D02*
X014082Y005681D01*
X014082Y005779D02*
X014062Y005779D01*
X014062Y005878D02*
X014082Y005878D01*
X014657Y007258D02*
X014681Y007258D01*
X014809Y007849D02*
X014929Y007849D01*
X014905Y008155D02*
X014490Y008155D01*
X014171Y007849D02*
X014140Y007849D01*
X013869Y007849D02*
X013772Y007849D01*
X013772Y007947D02*
X013869Y007947D01*
X013869Y008046D02*
X013772Y008046D01*
X013772Y008144D02*
X012175Y008144D01*
X011810Y007652D02*
X013552Y007652D01*
X013405Y007405D02*
X012655Y006655D01*
X012655Y005155D01*
X011655Y004155D01*
X011655Y001990D01*
X011320Y001655D01*
X011417Y002035D02*
X009959Y002035D01*
X009956Y002027D02*
X010024Y002191D01*
X010024Y002369D01*
X009956Y002533D01*
X009830Y002659D01*
X009666Y002727D01*
X008894Y002727D01*
X008730Y002659D01*
X008604Y002533D01*
X008582Y002480D01*
X004113Y002480D01*
X003355Y003238D01*
X003355Y004391D01*
X003434Y004469D01*
X003484Y004590D01*
X003484Y004720D01*
X003434Y004841D01*
X003341Y004934D01*
X003220Y004984D01*
X003090Y004984D01*
X002969Y004934D01*
X002877Y004841D01*
X002827Y004720D01*
X002827Y004590D01*
X002877Y004469D01*
X002955Y004391D01*
X002955Y003072D01*
X003072Y002955D01*
X003947Y002080D01*
X004113Y002080D01*
X008582Y002080D01*
X008604Y002027D01*
X008730Y001901D01*
X008894Y001833D01*
X009666Y001833D01*
X009830Y001901D01*
X009956Y002027D01*
X010000Y002133D02*
X011455Y002133D01*
X011154Y002232D02*
X011054Y002232D01*
X011054Y002151D02*
X011054Y002605D01*
X010639Y002605D01*
X010639Y002281D01*
X010649Y002243D01*
X010669Y002209D01*
X010697Y002181D01*
X010731Y002161D01*
X010769Y002151D01*
X011054Y002151D01*
X011054Y002330D02*
X011154Y002330D01*
X011154Y002429D02*
X011054Y002429D01*
X011054Y002527D02*
X011154Y002527D01*
X011054Y002626D02*
X009863Y002626D01*
X009958Y002527D02*
X010639Y002527D01*
X010639Y002429D02*
X009999Y002429D01*
X010024Y002330D02*
X010639Y002330D01*
X010656Y002232D02*
X010024Y002232D01*
X009865Y001936D02*
X010976Y001936D01*
X010954Y001838D02*
X009676Y001838D01*
X009666Y001727D02*
X008894Y001727D01*
X008730Y001659D01*
X008604Y001533D01*
X008536Y001369D01*
X008536Y001191D01*
X008604Y001027D01*
X008730Y000901D01*
X008894Y000833D01*
X009666Y000833D01*
X009830Y000901D01*
X009956Y001027D01*
X010024Y001191D01*
X010024Y001369D01*
X009956Y001533D01*
X009830Y001659D01*
X009666Y001727D01*
X009848Y001641D02*
X010954Y001641D01*
X010954Y001739D02*
X002926Y001739D01*
X002926Y001824D02*
X002926Y001450D01*
X002783Y001105D01*
X002519Y000840D01*
X002434Y000805D01*
X020190Y000805D01*
X020190Y020190D01*
X000805Y020190D01*
X000805Y000805D01*
X001538Y000805D01*
X001453Y000840D01*
X001188Y001105D01*
X001045Y001450D01*
X001045Y001824D01*
X001188Y002170D01*
X001453Y002435D01*
X001799Y002578D01*
X002173Y002578D01*
X002519Y002435D01*
X002783Y002170D01*
X002926Y001824D01*
X002921Y001838D02*
X008884Y001838D01*
X008695Y001936D02*
X002880Y001936D01*
X002839Y002035D02*
X008601Y002035D01*
X008712Y001641D02*
X002926Y001641D01*
X002926Y001542D02*
X008613Y001542D01*
X008567Y001443D02*
X002924Y001443D01*
X002883Y001345D02*
X008536Y001345D01*
X008536Y001246D02*
X002842Y001246D01*
X002801Y001148D02*
X008554Y001148D01*
X008595Y001049D02*
X002728Y001049D01*
X002629Y000951D02*
X008681Y000951D01*
X008849Y000852D02*
X002531Y000852D01*
X001441Y000852D02*
X000805Y000852D01*
X000805Y000951D02*
X001342Y000951D01*
X001244Y001049D02*
X000805Y001049D01*
X000805Y001148D02*
X001171Y001148D01*
X001130Y001246D02*
X000805Y001246D01*
X000805Y001345D02*
X001089Y001345D01*
X001048Y001443D02*
X000805Y001443D01*
X000805Y001542D02*
X001045Y001542D01*
X001045Y001641D02*
X000805Y001641D01*
X000805Y001739D02*
X001045Y001739D01*
X001051Y001838D02*
X000805Y001838D01*
X000805Y001936D02*
X001092Y001936D01*
X001132Y002035D02*
X000805Y002035D01*
X000805Y002133D02*
X001173Y002133D01*
X001250Y002232D02*
X000805Y002232D01*
X000805Y002330D02*
X001349Y002330D01*
X001447Y002429D02*
X000805Y002429D01*
X000805Y002527D02*
X001677Y002527D01*
X002295Y002527D02*
X003500Y002527D01*
X003598Y002429D02*
X002524Y002429D01*
X002623Y002330D02*
X003697Y002330D01*
X003796Y002232D02*
X002721Y002232D01*
X002798Y002133D02*
X003894Y002133D01*
X004030Y002280D02*
X003155Y003155D01*
X003155Y004655D01*
X002928Y004892D02*
X000805Y004892D01*
X000805Y004794D02*
X002857Y004794D01*
X002827Y004695D02*
X000805Y004695D01*
X000805Y004597D02*
X002827Y004597D01*
X002865Y004498D02*
X000805Y004498D01*
X000805Y004400D02*
X002946Y004400D01*
X002955Y004301D02*
X000805Y004301D01*
X000805Y004203D02*
X002955Y004203D01*
X002955Y004104D02*
X000805Y004104D01*
X000805Y004006D02*
X002955Y004006D01*
X002955Y003907D02*
X000805Y003907D01*
X000805Y003809D02*
X002955Y003809D01*
X002955Y003710D02*
X000805Y003710D01*
X000805Y003611D02*
X002955Y003611D01*
X002955Y003513D02*
X000805Y003513D01*
X000805Y003414D02*
X002955Y003414D01*
X002955Y003316D02*
X000805Y003316D01*
X000805Y003217D02*
X002955Y003217D01*
X002955Y003119D02*
X000805Y003119D01*
X000805Y003020D02*
X003007Y003020D01*
X003106Y002922D02*
X000805Y002922D01*
X000805Y002823D02*
X003204Y002823D01*
X003303Y002725D02*
X000805Y002725D01*
X000805Y002626D02*
X003401Y002626D01*
X003671Y002922D02*
X006694Y002922D01*
X006736Y002880D02*
X007008Y002767D01*
X007302Y002767D01*
X007575Y002880D01*
X007781Y003086D01*
X007988Y002880D01*
X008260Y002767D01*
X008554Y002767D01*
X008827Y002880D01*
X009035Y003088D01*
X009148Y003360D01*
X009148Y003655D01*
X009035Y003927D01*
X008827Y004135D01*
X008554Y004248D01*
X008260Y004248D01*
X007988Y004135D01*
X007781Y003929D01*
X007575Y004135D01*
X007302Y004248D01*
X007008Y004248D01*
X006736Y004135D01*
X006527Y003927D01*
X006415Y003655D01*
X006415Y003360D01*
X006527Y003088D01*
X006736Y002880D01*
X006872Y002823D02*
X003770Y002823D01*
X003869Y002725D02*
X008889Y002725D01*
X008869Y002922D02*
X010639Y002922D01*
X010639Y003020D02*
X008967Y003020D01*
X009048Y003119D02*
X010686Y003119D01*
X010697Y003129D02*
X010669Y003102D01*
X010649Y003067D01*
X010639Y003029D01*
X010639Y002705D01*
X011054Y002705D01*
X011054Y003159D01*
X011054Y003605D01*
X010639Y003605D01*
X010639Y003281D01*
X010649Y003243D01*
X010669Y003209D01*
X010697Y003181D01*
X010731Y003161D01*
X010753Y003155D01*
X010731Y003149D01*
X010697Y003129D01*
X010664Y003217D02*
X009088Y003217D01*
X009129Y003316D02*
X010639Y003316D01*
X010639Y003414D02*
X009148Y003414D01*
X009148Y003513D02*
X010639Y003513D01*
X010639Y003710D02*
X009125Y003710D01*
X009148Y003611D02*
X011054Y003611D01*
X011054Y003705D02*
X011054Y004159D01*
X011011Y004159D01*
X011383Y004244D01*
X011569Y004351D01*
X011455Y004238D01*
X011455Y004155D01*
X011439Y004159D01*
X011154Y004159D01*
X011154Y003705D01*
X011054Y003705D01*
X011054Y003710D02*
X011154Y003710D01*
X011154Y003809D02*
X011054Y003809D01*
X011054Y003907D02*
X011154Y003907D01*
X011154Y004006D02*
X011054Y004006D01*
X011054Y004104D02*
X011154Y004104D01*
X011201Y004203D02*
X011455Y004203D01*
X011383Y004244D02*
X011383Y004244D01*
X011482Y004301D02*
X011518Y004301D01*
X011154Y003513D02*
X011054Y003513D01*
X011054Y003414D02*
X011154Y003414D01*
X011154Y003316D02*
X011054Y003316D01*
X011054Y003217D02*
X011154Y003217D01*
X011154Y003119D02*
X011054Y003119D01*
X011054Y003020D02*
X011154Y003020D01*
X011154Y002922D02*
X011054Y002922D01*
X011054Y002823D02*
X011154Y002823D01*
X011154Y002725D02*
X011054Y002725D01*
X010639Y002725D02*
X009672Y002725D01*
X009280Y002280D02*
X004030Y002280D01*
X004066Y002527D02*
X008602Y002527D01*
X008697Y002626D02*
X003967Y002626D01*
X003573Y003020D02*
X006595Y003020D01*
X006515Y003119D02*
X003474Y003119D01*
X003376Y003217D02*
X006474Y003217D01*
X006433Y003316D02*
X003355Y003316D01*
X003355Y003414D02*
X006415Y003414D01*
X006415Y003513D02*
X003355Y003513D01*
X003355Y003611D02*
X006415Y003611D01*
X006437Y003710D02*
X003355Y003710D01*
X003355Y003809D02*
X006478Y003809D01*
X006519Y003907D02*
X003355Y003907D01*
X003355Y004006D02*
X006606Y004006D01*
X006704Y004104D02*
X003355Y004104D01*
X003355Y004203D02*
X006898Y004203D01*
X007412Y004203D02*
X008150Y004203D01*
X007956Y004104D02*
X007606Y004104D01*
X007704Y004006D02*
X007858Y004006D01*
X008664Y004203D02*
X010333Y004203D01*
X010413Y004171D02*
X010413Y004171D01*
X010672Y004104D02*
X008858Y004104D01*
X008956Y004006D02*
X010639Y004006D01*
X010639Y003907D02*
X009043Y003907D01*
X009084Y003809D02*
X010639Y003809D01*
X010082Y004301D02*
X003355Y004301D01*
X003364Y004400D02*
X009894Y004400D01*
X009955Y004351D02*
X009955Y004351D01*
X009771Y004498D02*
X003446Y004498D01*
X003484Y004597D02*
X009647Y004597D01*
X009571Y004658D02*
X009571Y004658D01*
X009571Y004658D01*
X009545Y004695D02*
X003484Y004695D01*
X003453Y004794D02*
X009478Y004794D01*
X009411Y004892D02*
X003382Y004892D01*
X004361Y006272D02*
X006430Y006272D01*
X006415Y006371D02*
X005903Y006371D01*
X006002Y006469D02*
X006415Y006469D01*
X006415Y006568D02*
X006101Y006568D01*
X006199Y006666D02*
X006441Y006666D01*
X006481Y006765D02*
X006298Y006765D01*
X006396Y006863D02*
X006522Y006863D01*
X006495Y006962D02*
X006613Y006962D01*
X006593Y007060D02*
X006712Y007060D01*
X006530Y007280D02*
X005780Y006530D01*
X004155Y006530D01*
X004385Y006765D02*
X005732Y006765D01*
X006471Y006174D02*
X000805Y006174D01*
X000805Y006075D02*
X006511Y006075D01*
X006588Y005976D02*
X000805Y005976D01*
X000805Y005878D02*
X006686Y005878D01*
X006854Y005779D02*
X000805Y005779D01*
X000805Y005681D02*
X009149Y005681D01*
X009149Y005779D02*
X008708Y005779D01*
X008876Y005878D02*
X009149Y005878D01*
X009149Y005976D02*
X008975Y005976D01*
X009051Y006075D02*
X009164Y006075D01*
X009149Y006026D02*
X009149Y006026D01*
X009194Y006174D02*
X009091Y006174D01*
X009132Y006272D02*
X009224Y006272D01*
X009255Y006371D02*
X009148Y006371D01*
X009148Y006469D02*
X009285Y006469D01*
X009294Y006496D02*
X009294Y006496D01*
X009342Y006568D02*
X009148Y006568D01*
X009122Y006666D02*
X009410Y006666D01*
X009477Y006765D02*
X009081Y006765D01*
X009040Y006863D02*
X009544Y006863D01*
X009571Y006902D02*
X009571Y006902D01*
X009571Y006902D01*
X009645Y006962D02*
X008949Y006962D01*
X008850Y007060D02*
X009769Y007060D01*
X009895Y007553D02*
X005086Y007553D01*
X005185Y007652D02*
X009994Y007652D01*
X010257Y007849D02*
X011441Y007849D01*
X011539Y007947D02*
X010355Y007947D01*
X010155Y008030D02*
X009405Y008030D01*
X009280Y007905D01*
X005155Y007905D01*
X004655Y007405D01*
X004437Y007159D02*
X003355Y007159D01*
X003355Y007258D02*
X004361Y007258D01*
X004327Y007356D02*
X003355Y007356D01*
X003355Y007455D02*
X004327Y007455D01*
X004361Y007553D02*
X003355Y007553D01*
X003355Y007652D02*
X004437Y007652D01*
X004717Y007750D02*
X003355Y007750D01*
X003355Y007849D02*
X004816Y007849D01*
X004914Y007947D02*
X003355Y007947D01*
X003355Y008046D02*
X005013Y008046D01*
X004212Y008539D02*
X009323Y008539D01*
X009308Y008637D02*
X004234Y008637D01*
X004227Y008736D02*
X006836Y008736D01*
X006827Y008740D02*
X006917Y008702D01*
X007010Y008677D01*
X007105Y008665D01*
X007105Y009355D01*
X006415Y009355D01*
X006427Y009260D01*
X006452Y009167D01*
X006490Y009077D01*
X006538Y008993D01*
X006597Y008916D01*
X006666Y008847D01*
X006743Y008788D01*
X006827Y008740D01*
X006683Y008834D02*
X004186Y008834D01*
X004105Y008933D02*
X006584Y008933D01*
X006516Y009031D02*
X004105Y009031D01*
X004105Y009130D02*
X006468Y009130D01*
X006436Y009228D02*
X004105Y009228D01*
X004105Y009327D02*
X006418Y009327D01*
X006424Y009524D02*
X004105Y009524D01*
X004105Y009425D02*
X007105Y009425D01*
X007105Y009327D02*
X007205Y009327D01*
X007205Y009355D02*
X007205Y009455D01*
X007667Y009455D01*
X008357Y009455D01*
X008357Y009355D01*
X007895Y009355D01*
X007205Y009355D01*
X007205Y009425D02*
X008357Y009425D01*
X008357Y009327D02*
X008457Y009327D01*
X008457Y009425D02*
X009308Y009425D01*
X009308Y009327D02*
X009144Y009327D01*
X009126Y009228D02*
X009308Y009228D01*
X009339Y009130D02*
X009095Y009130D01*
X009046Y009031D02*
X009308Y009031D01*
X009308Y008933D02*
X008978Y008933D01*
X008880Y008834D02*
X009606Y008834D01*
X009704Y008834D02*
X010135Y008834D01*
X010135Y008736D02*
X010002Y008736D01*
X010002Y008772D02*
X009704Y008772D01*
X009704Y008454D01*
X009872Y008454D01*
X009910Y008464D01*
X009944Y008484D01*
X009972Y008512D01*
X009992Y008546D01*
X010002Y008584D01*
X010002Y008772D01*
X010002Y008637D02*
X010135Y008637D01*
X010135Y008539D02*
X009987Y008539D01*
X010135Y008440D02*
X004154Y008440D01*
X004006Y008341D02*
X010135Y008341D01*
X010085Y008243D02*
X003355Y008243D01*
X003355Y008341D02*
X003804Y008341D01*
X003656Y008440D02*
X003355Y008440D01*
X003355Y008539D02*
X003598Y008539D01*
X003577Y008637D02*
X003355Y008637D01*
X003355Y008736D02*
X003583Y008736D01*
X003624Y008834D02*
X003355Y008834D01*
X003355Y008933D02*
X003705Y008933D01*
X003705Y009031D02*
X003355Y009031D01*
X003355Y009130D02*
X003705Y009130D01*
X003705Y009228D02*
X003355Y009228D01*
X003355Y009327D02*
X003464Y009327D01*
X003596Y009327D02*
X003705Y009327D01*
X003530Y009655D02*
X003530Y016905D01*
X004280Y017655D01*
X012155Y017655D01*
X011936Y017900D02*
X003355Y017900D01*
X003355Y017802D02*
X004144Y017802D01*
X004045Y017703D02*
X003355Y017703D01*
X003355Y017605D02*
X003947Y017605D01*
X003848Y017506D02*
X003355Y017506D01*
X003355Y017407D02*
X003750Y017407D01*
X003651Y017309D02*
X003355Y017309D01*
X003355Y017210D02*
X003553Y017210D01*
X003454Y017112D02*
X003355Y017112D01*
X003355Y017013D02*
X003356Y017013D01*
X003730Y016816D02*
X010505Y016816D01*
X010505Y016718D02*
X003730Y016718D01*
X003823Y016915D02*
X010505Y016915D01*
X010505Y017013D02*
X003921Y017013D01*
X004020Y017112D02*
X010505Y017112D01*
X010573Y017210D02*
X004118Y017210D01*
X003355Y017999D02*
X014352Y017999D01*
X014352Y018097D02*
X003355Y018097D01*
X003155Y019155D02*
X002655Y019155D01*
X002655Y019655D01*
X003015Y019378D02*
X003295Y019378D01*
X003205Y019477D02*
X003105Y019477D01*
X003105Y019575D02*
X003205Y019575D01*
X003155Y019155D02*
X003155Y006655D01*
X003355Y008144D02*
X009237Y008144D01*
X009408Y007750D02*
X011342Y007750D01*
X011217Y008046D02*
X011066Y008046D01*
X010915Y008046D02*
X010895Y008046D01*
X010895Y008144D02*
X010915Y008144D01*
X010915Y008243D02*
X010895Y008243D01*
X010895Y008341D02*
X010915Y008341D01*
X010915Y008440D02*
X010895Y008440D01*
X010895Y008539D02*
X010915Y008539D01*
X010915Y008635D02*
X010895Y008635D01*
X010895Y009210D01*
X010765Y009210D01*
X010727Y009200D01*
X010693Y009180D01*
X010665Y009152D01*
X010658Y009140D01*
X010631Y009166D01*
X010684Y009219D01*
X010729Y009330D01*
X010863Y009330D01*
X011205Y009330D01*
X011205Y009192D01*
X011152Y009140D01*
X011145Y009152D01*
X011117Y009180D01*
X011083Y009200D01*
X011045Y009210D01*
X010915Y009210D01*
X010915Y008635D01*
X010915Y008637D02*
X010895Y008637D01*
X010895Y008736D02*
X010915Y008736D01*
X010915Y008834D02*
X010895Y008834D01*
X010895Y008933D02*
X010915Y008933D01*
X010915Y009031D02*
X010895Y009031D01*
X010895Y009130D02*
X010915Y009130D01*
X010687Y009228D02*
X011205Y009228D01*
X011205Y009327D02*
X010728Y009327D01*
X010405Y009405D02*
X010405Y008625D01*
X010405Y008280D01*
X010155Y008030D01*
X010593Y008046D02*
X010744Y008046D01*
X011405Y008625D02*
X011405Y009530D01*
X010405Y010685D02*
X010405Y011155D01*
X010135Y011101D02*
X010002Y011101D01*
X010002Y011199D02*
X010078Y011199D01*
X009355Y011495D02*
X004105Y011495D01*
X004105Y011593D02*
X009289Y011593D01*
X009289Y011692D02*
X008744Y011692D01*
X009655Y010320D02*
X009655Y009905D01*
X009155Y009905D01*
X009115Y009623D02*
X009308Y009623D01*
X009308Y009524D02*
X009138Y009524D01*
X009655Y009490D02*
X009655Y009905D01*
X009655Y009490D02*
X009740Y009405D01*
X009655Y009405D01*
X009655Y009490D01*
X009971Y009130D02*
X010143Y009130D01*
X010135Y009031D02*
X010002Y009031D01*
X010002Y008933D02*
X010135Y008933D01*
X010123Y009228D02*
X010002Y009228D01*
X010002Y009327D02*
X010082Y009327D01*
X010077Y009425D02*
X010002Y009425D01*
X010002Y009524D02*
X010099Y009524D01*
X010158Y009623D02*
X010002Y009623D01*
X009704Y008736D02*
X009607Y008736D01*
X009607Y008637D02*
X009704Y008637D01*
X009704Y008539D02*
X009607Y008539D01*
X009308Y008736D02*
X008726Y008736D01*
X008457Y008736D02*
X008357Y008736D01*
X008357Y008834D02*
X008457Y008834D01*
X008457Y008933D02*
X008357Y008933D01*
X008357Y009031D02*
X008457Y009031D01*
X008457Y009130D02*
X008357Y009130D01*
X008357Y009228D02*
X008457Y009228D01*
X008088Y008736D02*
X007474Y008736D01*
X007628Y008834D02*
X007935Y008834D01*
X007836Y008933D02*
X007726Y008933D01*
X007205Y008933D02*
X007105Y008933D01*
X007105Y009031D02*
X007205Y009031D01*
X007205Y009130D02*
X007105Y009130D01*
X007105Y009228D02*
X007205Y009228D01*
X007205Y008834D02*
X007105Y008834D01*
X007105Y008736D02*
X007205Y008736D01*
X006447Y009623D02*
X004105Y009623D01*
X004105Y009721D02*
X006484Y009721D01*
X006540Y009820D02*
X004105Y009820D01*
X004105Y009918D02*
X006621Y009918D01*
X006736Y010017D02*
X004105Y010017D01*
X003905Y010280D02*
X003905Y008655D01*
X000805Y005582D02*
X009149Y005582D01*
X009149Y005534D02*
X009149Y005534D01*
X009164Y005484D02*
X000805Y005484D01*
X000805Y005385D02*
X009194Y005385D01*
X009225Y005287D02*
X000805Y005287D01*
X000805Y005188D02*
X009255Y005188D01*
X009286Y005090D02*
X000805Y005090D01*
X000805Y004991D02*
X009343Y004991D01*
X009294Y005064D02*
X009294Y005064D01*
X008106Y005779D02*
X007456Y005779D01*
X007624Y005878D02*
X007938Y005878D01*
X007840Y005976D02*
X007723Y005976D01*
X007715Y003020D02*
X007847Y003020D01*
X007946Y002922D02*
X007617Y002922D01*
X007438Y002823D02*
X008124Y002823D01*
X008690Y002823D02*
X010639Y002823D01*
X010954Y001542D02*
X009947Y001542D01*
X009993Y001443D02*
X010954Y001443D01*
X011005Y001345D02*
X010024Y001345D01*
X010024Y001246D02*
X020190Y001246D01*
X020190Y001148D02*
X010006Y001148D01*
X009965Y001049D02*
X020190Y001049D01*
X020190Y000951D02*
X009880Y000951D01*
X009712Y000852D02*
X020190Y000852D01*
X020190Y001345D02*
X012305Y001345D01*
X012356Y001443D02*
X020190Y001443D01*
X020190Y001542D02*
X013325Y001542D01*
X013423Y001641D02*
X020190Y001641D01*
X020190Y001739D02*
X013522Y001739D01*
X013605Y001838D02*
X020190Y001838D01*
X020190Y001936D02*
X013605Y001936D01*
X013605Y002035D02*
X020190Y002035D01*
X020190Y002133D02*
X013605Y002133D01*
X013605Y002232D02*
X020190Y002232D01*
X020190Y002330D02*
X013605Y002330D01*
X013405Y001905D02*
X013405Y003153D01*
X013403Y003155D01*
X013405Y001905D02*
X013155Y001655D01*
X011990Y001655D01*
X011674Y001345D02*
X011636Y001345D01*
X012258Y005090D02*
X012307Y005090D01*
X012306Y005188D02*
X012405Y005188D01*
X012455Y005287D02*
X012353Y005287D01*
X012357Y005294D02*
X012357Y005294D01*
X012371Y005385D02*
X012455Y005385D01*
X012455Y005484D02*
X012385Y005484D01*
X012400Y005582D02*
X012455Y005582D01*
X012455Y005681D02*
X012415Y005681D01*
X012430Y005779D02*
X012455Y005779D01*
X012455Y005878D02*
X012415Y005878D01*
X012401Y005976D02*
X012455Y005976D01*
X012455Y006075D02*
X012386Y006075D01*
X012371Y006174D02*
X012455Y006174D01*
X012455Y006272D02*
X012354Y006272D01*
X012307Y006371D02*
X012455Y006371D01*
X012455Y006469D02*
X012259Y006469D01*
X012212Y006568D02*
X012455Y006568D01*
X012455Y006666D02*
X012164Y006666D01*
X012143Y006710D02*
X012143Y006710D01*
X012092Y006765D02*
X012482Y006765D01*
X012581Y006863D02*
X012001Y006863D01*
X011909Y006962D02*
X012679Y006962D01*
X012778Y007060D02*
X011818Y007060D01*
X011655Y007159D02*
X012876Y007159D01*
X012975Y007258D02*
X011484Y007258D01*
X011514Y007356D02*
X013073Y007356D01*
X013172Y007455D02*
X011612Y007455D01*
X011711Y007553D02*
X013270Y007553D01*
X013405Y007405D02*
X014072Y007405D01*
X013869Y008243D02*
X013772Y008243D01*
X013772Y008341D02*
X013869Y008341D01*
X013869Y008440D02*
X013772Y008440D01*
X014905Y008155D02*
X015655Y007405D01*
X016238Y007405D01*
X016171Y007849D02*
X016140Y007849D01*
X015869Y008243D02*
X015772Y008243D01*
X015772Y008341D02*
X015869Y008341D01*
X015869Y008440D02*
X015772Y008440D01*
X015454Y008046D02*
X015297Y008046D01*
X015396Y007947D02*
X015454Y007947D01*
X015494Y007849D02*
X015501Y007849D01*
X016238Y006905D02*
X016780Y006905D01*
X016905Y007030D01*
X016905Y007240D01*
X017320Y007070D02*
X017320Y006655D01*
X017070Y006405D01*
X016238Y006405D01*
X016773Y006174D02*
X020190Y006174D01*
X020190Y006272D02*
X017220Y006272D01*
X017183Y006075D02*
X020190Y006075D01*
X020190Y005976D02*
X018294Y005976D01*
X018307Y005964D02*
X018279Y005992D01*
X018244Y006011D01*
X018206Y006022D01*
X018038Y006022D01*
X018038Y005704D01*
X018337Y005704D01*
X018337Y005891D01*
X018326Y005930D01*
X018307Y005964D01*
X018337Y005878D02*
X020190Y005878D01*
X020190Y005779D02*
X018337Y005779D01*
X018337Y005582D02*
X020190Y005582D01*
X020190Y005484D02*
X018337Y005484D01*
X018328Y005385D02*
X020190Y005385D01*
X020190Y005287D02*
X017520Y005287D01*
X017520Y005188D02*
X020190Y005188D01*
X020190Y005090D02*
X019643Y005090D01*
X019659Y004991D02*
X020190Y004991D01*
X020190Y004892D02*
X019659Y004892D01*
X019659Y004794D02*
X020190Y004794D01*
X020190Y004695D02*
X019205Y004695D01*
X019205Y004597D02*
X019105Y004597D01*
X019105Y004695D02*
X018272Y004695D01*
X018272Y004597D02*
X018651Y004597D01*
X018651Y004756D02*
X018651Y005041D01*
X018661Y005079D01*
X018681Y005113D01*
X018709Y005141D01*
X018743Y005161D01*
X018781Y005171D01*
X019105Y005171D01*
X019105Y004756D01*
X018651Y004756D01*
X018651Y004794D02*
X018226Y004794D01*
X018651Y004892D02*
X017785Y004892D01*
X017687Y004991D02*
X018651Y004991D01*
X018667Y005090D02*
X017588Y005090D01*
X017941Y005385D02*
X018038Y005385D01*
X018038Y005484D02*
X017941Y005484D01*
X017941Y005582D02*
X018038Y005582D01*
X018038Y005681D02*
X020190Y005681D01*
X020190Y006371D02*
X019821Y006371D01*
X019837Y006469D02*
X020190Y006469D01*
X020190Y006568D02*
X019837Y006568D01*
X019837Y006704D02*
X019837Y006891D01*
X019826Y006930D01*
X019807Y006964D01*
X019779Y006992D01*
X019744Y007011D01*
X019706Y007022D01*
X019538Y007022D01*
X019538Y006704D01*
X019837Y006704D01*
X019837Y006765D02*
X020190Y006765D01*
X020190Y006863D02*
X019837Y006863D01*
X019808Y006962D02*
X020190Y006962D01*
X020190Y007060D02*
X018509Y007060D01*
X018502Y006962D02*
X018410Y006962D01*
X018356Y006863D02*
X018474Y006863D01*
X018607Y007159D02*
X020190Y007159D01*
X020190Y007258D02*
X018706Y007258D01*
X018320Y007155D02*
X018820Y007655D01*
X018436Y007553D02*
X018337Y007553D01*
X018337Y007455D02*
X018337Y007455D01*
X018320Y007155D02*
X017405Y007155D01*
X017320Y007070D01*
X017990Y006655D02*
X018820Y006655D01*
X019139Y006962D02*
X019172Y006962D01*
X019441Y006962D02*
X019538Y006962D01*
X019538Y006863D02*
X019441Y006863D01*
X019441Y006765D02*
X019538Y006765D01*
X019538Y006666D02*
X020190Y006666D01*
X020190Y007356D02*
X019816Y007356D01*
X019856Y007455D02*
X020190Y007455D01*
X020190Y007553D02*
X019856Y007553D01*
X019856Y007704D02*
X019856Y007872D01*
X019846Y007910D01*
X019826Y007944D01*
X019798Y007972D01*
X019764Y007992D01*
X019726Y008002D01*
X019538Y008002D01*
X019538Y007704D01*
X019856Y007704D01*
X019856Y007750D02*
X020190Y007750D01*
X020190Y007652D02*
X019538Y007652D01*
X019538Y007750D02*
X019441Y007750D01*
X019441Y007849D02*
X019538Y007849D01*
X019538Y007947D02*
X019441Y007947D01*
X019156Y007947D02*
X019154Y007947D01*
X019441Y007553D02*
X019538Y007553D01*
X019538Y007455D02*
X019441Y007455D01*
X019441Y007356D02*
X019538Y007356D01*
X019163Y007356D02*
X019147Y007356D01*
X019856Y007849D02*
X020190Y007849D01*
X020190Y007947D02*
X019823Y007947D01*
X020190Y009031D02*
X017983Y009031D01*
X017992Y009046D02*
X018002Y009084D01*
X018002Y009272D01*
X017704Y009272D01*
X017704Y008954D01*
X017872Y008954D01*
X017910Y008964D01*
X017944Y008984D01*
X017972Y009012D01*
X017992Y009046D01*
X018002Y009130D02*
X020190Y009130D01*
X020190Y009228D02*
X018002Y009228D01*
X018002Y009425D02*
X020190Y009425D01*
X020190Y009327D02*
X017704Y009327D01*
X017606Y009327D02*
X016522Y009327D01*
X016522Y009425D02*
X017308Y009425D01*
X017308Y009524D02*
X016522Y009524D01*
X016479Y009623D02*
X017334Y009623D01*
X017308Y009721D02*
X016512Y009721D01*
X016522Y009820D02*
X017308Y009820D01*
X017308Y009918D02*
X016522Y009918D01*
X016522Y010017D02*
X017308Y010017D01*
X017308Y010115D02*
X016522Y010115D01*
X016522Y010214D02*
X017308Y010214D01*
X017352Y010312D02*
X016458Y010312D01*
X016444Y010411D02*
X018655Y010411D01*
X018655Y010509D02*
X016542Y010509D01*
X016605Y010608D02*
X018655Y010608D01*
X018655Y010312D02*
X017958Y010312D01*
X018002Y010214D02*
X018655Y010214D01*
X018865Y009990D02*
X019155Y010280D01*
X019155Y010755D01*
X019155Y011405D01*
X018405Y012155D01*
X017655Y012155D01*
X017405Y011905D01*
X017405Y011225D01*
X017890Y011199D02*
X017920Y011199D01*
X017920Y011240D02*
X018185Y011240D01*
X018185Y011645D01*
X018175Y011683D01*
X018155Y011717D01*
X018127Y011745D01*
X018093Y011765D01*
X018055Y011775D01*
X017920Y011775D01*
X017920Y011240D01*
X017920Y011298D02*
X017890Y011298D01*
X017890Y011396D02*
X017920Y011396D01*
X017920Y011495D02*
X017890Y011495D01*
X017890Y011593D02*
X017920Y011593D01*
X017920Y011692D02*
X017890Y011692D01*
X017672Y011889D02*
X018388Y011889D01*
X018487Y011791D02*
X017605Y011791D01*
X017205Y011791D02*
X017105Y011791D01*
X017105Y011889D02*
X017205Y011889D01*
X017205Y011988D02*
X017105Y011988D01*
X017105Y012086D02*
X017303Y012086D01*
X017402Y012185D02*
X017105Y012185D01*
X017105Y012283D02*
X017500Y012283D01*
X017263Y012480D02*
X020190Y012480D01*
X020190Y012382D02*
X017165Y012382D01*
X016905Y012405D02*
X018155Y013655D01*
X019155Y013655D01*
X019155Y014555D01*
X019155Y015780D01*
X019655Y016280D01*
X019655Y016320D01*
X019308Y016324D02*
X019022Y016324D01*
X019022Y016422D02*
X019308Y016422D01*
X019308Y016521D02*
X019022Y016521D01*
X018982Y016619D02*
X019328Y016619D01*
X019318Y016718D02*
X019009Y016718D01*
X019022Y016816D02*
X019308Y016816D01*
X019308Y016915D02*
X019022Y016915D01*
X019022Y017013D02*
X019606Y017013D01*
X019704Y017013D02*
X020190Y017013D01*
X020190Y016915D02*
X020002Y016915D01*
X020002Y016816D02*
X020190Y016816D01*
X020190Y016718D02*
X019992Y016718D01*
X019982Y016619D02*
X020190Y016619D01*
X020190Y016521D02*
X020002Y016521D01*
X020002Y016422D02*
X020190Y016422D01*
X020190Y016324D02*
X020002Y016324D01*
X020002Y016225D02*
X020190Y016225D01*
X020190Y016126D02*
X020002Y016126D01*
X019988Y016028D02*
X020190Y016028D01*
X020190Y015929D02*
X019587Y015929D01*
X019489Y015831D02*
X020190Y015831D01*
X020190Y015732D02*
X019390Y015732D01*
X019639Y015634D02*
X020190Y015634D01*
X020190Y015535D02*
X019655Y015535D01*
X019655Y015437D02*
X020190Y015437D01*
X020190Y015338D02*
X019655Y015338D01*
X019655Y015240D02*
X020190Y015240D01*
X020190Y015141D02*
X019655Y015141D01*
X019655Y015042D02*
X020190Y015042D01*
X020190Y014944D02*
X019655Y014944D01*
X019655Y014845D02*
X020190Y014845D01*
X020190Y014747D02*
X019655Y014747D01*
X019655Y014648D02*
X020190Y014648D01*
X020190Y014550D02*
X019655Y014550D01*
X019655Y014451D02*
X020190Y014451D01*
X020190Y014353D02*
X019655Y014353D01*
X019655Y014254D02*
X020190Y014254D01*
X020190Y014156D02*
X019655Y014156D01*
X019655Y014057D02*
X020190Y014057D01*
X020190Y013958D02*
X019655Y013958D01*
X019655Y013860D02*
X020190Y013860D01*
X020190Y013761D02*
X019655Y013761D01*
X019655Y013663D02*
X020190Y013663D01*
X020190Y013564D02*
X019655Y013564D01*
X019628Y013466D02*
X020190Y013466D01*
X020190Y013367D02*
X018150Y013367D01*
X018051Y013269D02*
X020190Y013269D01*
X020190Y013170D02*
X017953Y013170D01*
X017854Y013072D02*
X020190Y013072D01*
X020190Y012973D02*
X017756Y012973D01*
X017657Y012874D02*
X020190Y012874D01*
X020190Y012776D02*
X017559Y012776D01*
X017460Y012677D02*
X020190Y012677D01*
X020190Y012579D02*
X017362Y012579D01*
X017092Y012874D02*
X016150Y012874D01*
X016105Y012973D02*
X017190Y012973D01*
X017289Y013072D02*
X016105Y013072D01*
X016105Y013170D02*
X016676Y013170D01*
X016606Y013269D02*
X016105Y013269D01*
X016105Y013367D02*
X016577Y013367D01*
X016577Y013466D02*
X016504Y013466D01*
X016306Y013466D02*
X016105Y013466D01*
X016105Y013564D02*
X016156Y013564D01*
X016405Y013780D02*
X016405Y015085D01*
X015905Y015085D02*
X015905Y012655D01*
X016211Y012776D02*
X016993Y012776D01*
X016895Y012677D02*
X016234Y012677D01*
X016229Y012579D02*
X016796Y012579D01*
X016705Y012480D02*
X016188Y012480D01*
X016096Y012382D02*
X016705Y012382D01*
X016905Y012405D02*
X016905Y011225D01*
X016682Y010707D02*
X016629Y010707D01*
X016405Y010655D02*
X016155Y010405D01*
X016155Y009990D01*
X016405Y010655D02*
X016405Y011225D01*
X017129Y010707D02*
X017182Y010707D01*
X017629Y010707D02*
X017682Y010707D01*
X017890Y010707D02*
X017920Y010707D01*
X017920Y010805D02*
X017890Y010805D01*
X017890Y010904D02*
X017920Y010904D01*
X017920Y011002D02*
X017890Y011002D01*
X017890Y011101D02*
X017920Y011101D01*
X018185Y011101D02*
X018655Y011101D01*
X018655Y011199D02*
X018185Y011199D01*
X018185Y011298D02*
X018655Y011298D01*
X018655Y011396D02*
X018185Y011396D01*
X018185Y011495D02*
X018655Y011495D01*
X018655Y011593D02*
X018185Y011593D01*
X018170Y011692D02*
X018585Y011692D01*
X018855Y011988D02*
X020190Y011988D01*
X020190Y012086D02*
X018757Y012086D01*
X018658Y012185D02*
X020190Y012185D01*
X020190Y012283D02*
X018560Y012283D01*
X019583Y011889D02*
X020190Y011889D01*
X020190Y011791D02*
X019655Y011791D01*
X019655Y011692D02*
X020190Y011692D01*
X020190Y011593D02*
X019655Y011593D01*
X019655Y011495D02*
X020190Y011495D01*
X020190Y011396D02*
X019655Y011396D01*
X019655Y011298D02*
X020190Y011298D01*
X020190Y011199D02*
X019655Y011199D01*
X019655Y011101D02*
X020190Y011101D01*
X020190Y011002D02*
X019655Y011002D01*
X019655Y010904D02*
X020190Y010904D01*
X020190Y010805D02*
X019655Y010805D01*
X019655Y010707D02*
X020190Y010707D01*
X020190Y010608D02*
X019655Y010608D01*
X019655Y010509D02*
X020190Y010509D01*
X020190Y010411D02*
X019655Y010411D01*
X019655Y010312D02*
X020190Y010312D01*
X020190Y010214D02*
X019655Y010214D01*
X019655Y010115D02*
X020190Y010115D01*
X020190Y010017D02*
X019655Y010017D01*
X019655Y009918D02*
X020190Y009918D01*
X020190Y009820D02*
X019655Y009820D01*
X019655Y009721D02*
X020190Y009721D01*
X020190Y009623D02*
X019585Y009623D01*
X020190Y009524D02*
X018002Y009524D01*
X017976Y009623D02*
X018726Y009623D01*
X018655Y009721D02*
X018002Y009721D01*
X017655Y009990D02*
X018865Y009990D01*
X018655Y010904D02*
X018185Y010904D01*
X018185Y011002D02*
X018655Y011002D01*
X017704Y009228D02*
X017607Y009228D01*
X017607Y009130D02*
X017704Y009130D01*
X017704Y009031D02*
X017607Y009031D01*
X017327Y009031D02*
X016491Y009031D01*
X016522Y009130D02*
X017308Y009130D01*
X017308Y009228D02*
X016522Y009228D01*
X017990Y008115D02*
X018030Y008155D01*
X019441Y006568D02*
X019538Y006568D01*
X019538Y006469D02*
X019441Y006469D01*
X019441Y006371D02*
X019538Y006371D01*
X018479Y006371D02*
X018331Y006371D01*
X018038Y005976D02*
X017941Y005976D01*
X017941Y005878D02*
X018038Y005878D01*
X018038Y005779D02*
X017941Y005779D01*
X017686Y005976D02*
X017625Y005976D01*
X016974Y005681D02*
X016781Y005681D01*
X018244Y004203D02*
X020190Y004203D01*
X020190Y004301D02*
X019631Y004301D01*
X019659Y004400D02*
X020190Y004400D01*
X020190Y004498D02*
X019659Y004498D01*
X019659Y004597D02*
X020190Y004597D01*
X019205Y004498D02*
X019105Y004498D01*
X019105Y004400D02*
X019205Y004400D01*
X019205Y004301D02*
X019105Y004301D01*
X019105Y004794D02*
X019205Y004794D01*
X019205Y004892D02*
X019105Y004892D01*
X019105Y004991D02*
X019205Y004991D01*
X019205Y005090D02*
X019105Y005090D01*
X017387Y013170D02*
X017135Y013170D01*
X017204Y013269D02*
X017486Y013269D01*
X017584Y013367D02*
X017234Y013367D01*
X017234Y013466D02*
X017683Y013466D01*
X017781Y013564D02*
X017195Y013564D01*
X017112Y013663D02*
X017880Y013663D01*
X017979Y013761D02*
X017105Y013761D01*
X017105Y013860D02*
X018655Y013860D01*
X018655Y013958D02*
X017105Y013958D01*
X017105Y014057D02*
X018655Y014057D01*
X018655Y014156D02*
X017105Y014156D01*
X017105Y014254D02*
X018655Y014254D01*
X018655Y014353D02*
X017105Y014353D01*
X017105Y014451D02*
X018655Y014451D01*
X018655Y014550D02*
X018112Y014550D01*
X018185Y014648D02*
X018655Y014648D01*
X018655Y014747D02*
X018185Y014747D01*
X018185Y014845D02*
X018655Y014845D01*
X018655Y014944D02*
X018185Y014944D01*
X018185Y015042D02*
X018655Y015042D01*
X018655Y015141D02*
X018185Y015141D01*
X018185Y015240D02*
X018655Y015240D01*
X018655Y015338D02*
X018185Y015338D01*
X018219Y015437D02*
X018655Y015437D01*
X018655Y015535D02*
X018568Y015535D01*
X018667Y015634D02*
X018672Y015634D01*
X018765Y015732D02*
X018955Y015732D01*
X018955Y015831D02*
X018855Y015831D01*
X018855Y015929D02*
X019021Y015929D01*
X018988Y016028D02*
X019120Y016028D01*
X019022Y016126D02*
X019219Y016126D01*
X019308Y016225D02*
X019022Y016225D01*
X018655Y016320D02*
X018655Y015905D01*
X018405Y015655D01*
X018155Y015655D01*
X017905Y015405D01*
X017905Y015085D01*
X017405Y015085D02*
X017405Y015655D01*
X017655Y015905D01*
X017655Y016320D01*
X017655Y016990D02*
X016655Y016990D01*
X015655Y016990D01*
X015320Y016990D01*
X015155Y017155D01*
X015155Y017405D01*
X015030Y017530D01*
X014155Y017530D01*
X014348Y017802D02*
X014435Y017802D01*
X014352Y017900D02*
X012374Y017900D01*
X013015Y019378D02*
X013295Y019378D01*
X013205Y019477D02*
X013105Y019477D01*
X013105Y019575D02*
X013205Y019575D01*
X013205Y019674D02*
X013105Y019674D01*
X013105Y019773D02*
X013205Y019773D01*
X013235Y019871D02*
X013076Y019871D01*
X012977Y019970D02*
X013333Y019970D01*
X013432Y020068D02*
X012878Y020068D01*
X013878Y020068D02*
X018139Y020068D01*
X018139Y019970D02*
X016357Y019970D01*
X016459Y019871D02*
X016789Y019871D01*
X017155Y019655D02*
X017245Y019565D01*
X017375Y019565D01*
X017465Y019655D01*
X018604Y019655D01*
X019069Y019674D02*
X019656Y019674D01*
X019656Y019705D02*
X019656Y019605D01*
X019241Y019605D01*
X019241Y019281D01*
X019252Y019243D01*
X019271Y019209D01*
X019299Y019181D01*
X019333Y019161D01*
X019356Y019155D01*
X019333Y019149D01*
X019299Y019129D01*
X019271Y019102D01*
X019252Y019067D01*
X019241Y019029D01*
X019241Y018705D01*
X019656Y018705D01*
X019656Y018605D01*
X019241Y018605D01*
X019241Y018281D01*
X019252Y018243D01*
X019271Y018209D01*
X019299Y018181D01*
X019333Y018161D01*
X019372Y018151D01*
X019656Y018151D01*
X019656Y018605D01*
X019756Y018605D01*
X019756Y018151D01*
X020041Y018151D01*
X020079Y018161D01*
X020113Y018181D01*
X020141Y018209D01*
X020161Y018243D01*
X020171Y018281D01*
X020171Y018605D01*
X019756Y018605D01*
X019756Y018705D01*
X019656Y018705D01*
X019656Y019151D01*
X019656Y019605D01*
X019756Y019605D01*
X019756Y019151D01*
X019756Y018705D01*
X020171Y018705D01*
X020171Y019029D01*
X020161Y019067D01*
X020141Y019102D01*
X020113Y019129D01*
X020079Y019149D01*
X020057Y019155D01*
X020079Y019161D01*
X020113Y019181D01*
X020141Y019209D01*
X020161Y019243D01*
X020171Y019281D01*
X020171Y019605D01*
X019756Y019605D01*
X019756Y019705D01*
X019656Y019705D01*
X019241Y019705D01*
X019241Y020029D01*
X019252Y020067D01*
X019271Y020102D01*
X019299Y020129D01*
X019333Y020149D01*
X019372Y020159D01*
X019656Y020159D01*
X019656Y019705D01*
X019656Y019773D02*
X019756Y019773D01*
X019756Y019705D02*
X019756Y020159D01*
X020041Y020159D01*
X020079Y020149D01*
X020113Y020129D01*
X020141Y020102D01*
X020161Y020067D01*
X020171Y020029D01*
X020171Y019705D01*
X019756Y019705D01*
X019756Y019674D02*
X020190Y019674D01*
X020190Y019773D02*
X020171Y019773D01*
X020171Y019871D02*
X020190Y019871D01*
X020190Y019970D02*
X020171Y019970D01*
X020161Y020068D02*
X020190Y020068D01*
X020190Y020167D02*
X000805Y020167D01*
X000805Y019083D02*
X001446Y019083D01*
X001348Y018984D02*
X000805Y018984D01*
X000805Y018886D02*
X001249Y018886D01*
X001205Y018787D02*
X000805Y018787D01*
X000805Y018689D02*
X001205Y018689D01*
X001205Y018590D02*
X000805Y018590D01*
X000805Y018491D02*
X001205Y018491D01*
X001281Y018393D02*
X000805Y018393D01*
X002155Y019155D02*
X002655Y019155D01*
X003155Y019155D02*
X014030Y019155D01*
X014155Y019280D01*
X014155Y019530D01*
X014280Y019655D01*
X016155Y019655D01*
X017155Y019655D01*
X016785Y019378D02*
X016398Y019378D01*
X016785Y019280D02*
X015518Y019280D01*
X015518Y019378D02*
X015912Y019378D01*
X015518Y019181D02*
X016867Y019181D01*
X016812Y018984D02*
X015518Y018984D01*
X015518Y018886D02*
X016785Y018886D01*
X016785Y018787D02*
X015518Y018787D01*
X015518Y018689D02*
X016785Y018689D01*
X016785Y018590D02*
X015518Y018590D01*
X015518Y018491D02*
X016785Y018491D01*
X016785Y018393D02*
X015518Y018393D01*
X015518Y018294D02*
X016844Y018294D01*
X016877Y018125D02*
X016843Y018105D01*
X016815Y018077D01*
X016795Y018043D01*
X016785Y018005D01*
X016785Y017795D01*
X017325Y017795D01*
X017325Y017695D01*
X017425Y017695D01*
X017425Y017355D01*
X017835Y017355D01*
X017873Y017365D01*
X017907Y017385D01*
X017935Y017413D01*
X017955Y017447D01*
X017965Y017485D01*
X017965Y017695D01*
X017425Y017695D01*
X017425Y017795D01*
X017325Y017795D01*
X017325Y018135D01*
X016915Y018135D01*
X016877Y018125D01*
X016835Y018097D02*
X015518Y018097D01*
X015518Y017999D02*
X016785Y017999D01*
X016785Y017900D02*
X015518Y017900D01*
X015435Y017802D02*
X016785Y017802D01*
X016785Y017695D02*
X016785Y017485D01*
X016795Y017447D01*
X016815Y017413D01*
X016843Y017385D01*
X016877Y017365D01*
X016915Y017355D01*
X017325Y017355D01*
X017325Y017695D01*
X016785Y017695D01*
X016785Y017605D02*
X015238Y017605D01*
X015140Y017703D02*
X017325Y017703D01*
X017325Y017605D02*
X017425Y017605D01*
X017425Y017703D02*
X018375Y017703D01*
X018375Y017605D02*
X017965Y017605D01*
X017965Y017506D02*
X018375Y017506D01*
X018375Y017407D02*
X017930Y017407D01*
X017961Y017309D02*
X018349Y017309D01*
X018289Y017210D02*
X018022Y017210D01*
X017655Y016990D02*
X018655Y016990D01*
X018781Y017116D01*
X018781Y017655D01*
X018781Y018478D01*
X018604Y018655D01*
X017375Y018655D01*
X017425Y018135D02*
X017425Y017795D01*
X017965Y017795D01*
X017965Y018005D01*
X017955Y018043D01*
X017935Y018077D01*
X017907Y018105D01*
X017873Y018125D01*
X017835Y018135D01*
X017425Y018135D01*
X017425Y018097D02*
X017325Y018097D01*
X017325Y017999D02*
X017425Y017999D01*
X017425Y017900D02*
X017325Y017900D01*
X017325Y017802D02*
X017425Y017802D01*
X017425Y017506D02*
X017325Y017506D01*
X017325Y017407D02*
X017425Y017407D01*
X017349Y017309D02*
X016961Y017309D01*
X017022Y017210D02*
X017289Y017210D01*
X016821Y017407D02*
X015355Y017407D01*
X015337Y017506D02*
X016785Y017506D01*
X016349Y017309D02*
X015961Y017309D01*
X016022Y017210D02*
X016289Y017210D01*
X016655Y016320D02*
X016655Y015905D01*
X016905Y015655D01*
X016905Y015085D01*
X016905Y013405D01*
X017112Y014550D02*
X017198Y014550D01*
X017612Y014550D02*
X017698Y014550D01*
X015655Y015905D02*
X015405Y015655D01*
X015155Y015655D01*
X014905Y015405D01*
X014905Y015085D01*
X014405Y015655D02*
X014655Y015905D01*
X014655Y016320D01*
X014289Y016225D02*
X014241Y016225D01*
X014069Y016225D02*
X014002Y016225D01*
X015405Y015085D02*
X015405Y013030D01*
X015655Y015905D02*
X015655Y016320D01*
X015518Y018196D02*
X018182Y018196D01*
X018139Y018294D02*
X017906Y018294D01*
X017965Y018393D02*
X018139Y018393D01*
X017915Y018097D02*
X018460Y018097D01*
X018375Y017999D02*
X017965Y017999D01*
X017965Y017900D02*
X018375Y017900D01*
X018375Y017802D02*
X017965Y017802D01*
X017965Y018886D02*
X018139Y018886D01*
X018139Y018984D02*
X017938Y018984D01*
X017883Y019181D02*
X018196Y019181D01*
X018150Y019083D02*
X015518Y019083D01*
X015851Y019871D02*
X014076Y019871D01*
X014105Y019773D02*
X014115Y019773D01*
X013977Y019970D02*
X015953Y019970D01*
X014352Y019181D02*
X014339Y019181D01*
X014352Y019083D02*
X014241Y019083D01*
X014142Y018984D02*
X014352Y018984D01*
X014352Y018886D02*
X014061Y018886D01*
X014105Y018787D02*
X014352Y018787D01*
X017965Y019280D02*
X018139Y019280D01*
X018139Y019378D02*
X017965Y019378D01*
X017961Y019871D02*
X018139Y019871D01*
X019069Y019871D02*
X019241Y019871D01*
X019241Y019773D02*
X019069Y019773D01*
X019069Y019970D02*
X019241Y019970D01*
X019252Y020068D02*
X019069Y020068D01*
X019069Y019575D02*
X019241Y019575D01*
X019241Y019477D02*
X019069Y019477D01*
X019069Y019378D02*
X019241Y019378D01*
X019242Y019280D02*
X019069Y019280D01*
X019011Y019181D02*
X019299Y019181D01*
X019260Y019083D02*
X019058Y019083D01*
X019069Y018984D02*
X019241Y018984D01*
X019241Y018886D02*
X019069Y018886D01*
X019069Y018787D02*
X019241Y018787D01*
X019241Y018590D02*
X019069Y018590D01*
X019069Y018491D02*
X019241Y018491D01*
X019241Y018393D02*
X019069Y018393D01*
X019069Y018294D02*
X019241Y018294D01*
X019284Y018196D02*
X019026Y018196D01*
X019102Y018097D02*
X019242Y018097D01*
X019479Y018097D02*
X019579Y018097D01*
X019579Y018100D02*
X019579Y017705D01*
X019935Y017705D01*
X019935Y017970D01*
X019925Y018008D01*
X019905Y018042D01*
X019877Y018070D01*
X019843Y018090D01*
X019805Y018100D01*
X019579Y018100D01*
X019579Y017999D02*
X019479Y017999D01*
X019479Y017900D02*
X019579Y017900D01*
X019579Y017802D02*
X019479Y017802D01*
X019579Y017703D02*
X020190Y017703D01*
X020190Y017605D02*
X019935Y017605D01*
X019935Y017506D02*
X020190Y017506D01*
X020190Y017407D02*
X019935Y017407D01*
X019961Y017309D02*
X020190Y017309D01*
X020190Y017210D02*
X020002Y017210D01*
X020002Y017112D02*
X020190Y017112D01*
X020190Y017802D02*
X019935Y017802D01*
X019935Y017900D02*
X020190Y017900D01*
X020190Y017999D02*
X019927Y017999D01*
X019816Y018097D02*
X020190Y018097D01*
X020190Y018196D02*
X020128Y018196D01*
X020171Y018294D02*
X020190Y018294D01*
X020190Y018393D02*
X020171Y018393D01*
X020171Y018491D02*
X020190Y018491D01*
X020190Y018590D02*
X020171Y018590D01*
X020190Y018689D02*
X019756Y018689D01*
X019756Y018787D02*
X019656Y018787D01*
X019656Y018689D02*
X019069Y018689D01*
X019656Y018590D02*
X019756Y018590D01*
X019756Y018491D02*
X019656Y018491D01*
X019656Y018393D02*
X019756Y018393D01*
X019756Y018294D02*
X019656Y018294D01*
X019656Y018196D02*
X019756Y018196D01*
X019756Y018886D02*
X019656Y018886D01*
X019656Y018984D02*
X019756Y018984D01*
X019756Y019083D02*
X019656Y019083D01*
X019656Y019181D02*
X019756Y019181D01*
X019756Y019280D02*
X019656Y019280D01*
X019656Y019378D02*
X019756Y019378D01*
X019756Y019477D02*
X019656Y019477D01*
X019656Y019575D02*
X019756Y019575D01*
X019756Y019871D02*
X019656Y019871D01*
X019656Y019970D02*
X019756Y019970D01*
X019756Y020068D02*
X019656Y020068D01*
X020171Y019575D02*
X020190Y019575D01*
X020190Y019477D02*
X020171Y019477D01*
X020171Y019378D02*
X020190Y019378D01*
X020190Y019280D02*
X020171Y019280D01*
X020190Y019181D02*
X020114Y019181D01*
X020152Y019083D02*
X020190Y019083D01*
X020190Y018984D02*
X020171Y018984D01*
X020171Y018886D02*
X020190Y018886D01*
X020190Y018787D02*
X020171Y018787D01*
X019251Y017210D02*
X019100Y017210D01*
X019022Y017112D02*
X019308Y017112D01*
X011638Y008046D02*
X011593Y008046D01*
X006727Y012973D02*
X004105Y012973D01*
X002955Y014747D02*
X000805Y014747D01*
X000805Y014845D02*
X002955Y014845D01*
X002955Y014944D02*
X000805Y014944D01*
X000805Y015042D02*
X002955Y015042D01*
X002955Y015141D02*
X000805Y015141D01*
X000805Y015240D02*
X002955Y015240D01*
X002955Y015338D02*
X000805Y015338D01*
X000805Y015437D02*
X002955Y015437D01*
X002955Y015535D02*
X000805Y015535D01*
X000805Y015634D02*
X002955Y015634D01*
X002955Y015732D02*
X000805Y015732D01*
X000805Y015831D02*
X002955Y015831D01*
X002955Y015929D02*
X000805Y015929D01*
X000805Y016028D02*
X002955Y016028D01*
X002955Y016126D02*
X000805Y016126D01*
X004105Y019773D02*
X004205Y019773D01*
X004235Y019871D02*
X004076Y019871D01*
X003977Y019970D02*
X004333Y019970D01*
X004432Y020068D02*
X003878Y020068D01*
X003705Y020068D02*
X003605Y020068D01*
X003605Y019970D02*
X003705Y019970D01*
X003705Y019871D02*
X003605Y019871D01*
X004878Y020068D02*
X005432Y020068D01*
X005333Y019970D02*
X004977Y019970D01*
X005076Y019871D02*
X005235Y019871D01*
X005205Y019773D02*
X005105Y019773D01*
X005105Y019674D02*
X005205Y019674D01*
X005205Y019575D02*
X005105Y019575D01*
X005105Y019477D02*
X005205Y019477D01*
X005295Y019378D02*
X005015Y019378D01*
X005605Y018491D02*
X005705Y018491D01*
X005705Y018393D02*
X005605Y018393D01*
X005605Y018294D02*
X005705Y018294D01*
X005931Y018294D02*
X006379Y018294D01*
X006281Y018393D02*
X006029Y018393D01*
X006105Y018491D02*
X006205Y018491D01*
X006205Y018590D02*
X006105Y018590D01*
X006931Y018294D02*
X007379Y018294D01*
X007281Y018393D02*
X007029Y018393D01*
X007105Y018491D02*
X007205Y018491D01*
X007205Y018590D02*
X007105Y018590D01*
X007105Y018689D02*
X007205Y018689D01*
X007205Y018787D02*
X007105Y018787D01*
X007061Y018886D02*
X007249Y018886D01*
X007295Y019378D02*
X007015Y019378D01*
X007105Y019477D02*
X007205Y019477D01*
X007205Y019575D02*
X007105Y019575D01*
X007605Y019871D02*
X007705Y019871D01*
X007705Y019970D02*
X007605Y019970D01*
X007605Y020068D02*
X007705Y020068D01*
X007878Y020068D02*
X008432Y020068D01*
X008333Y019970D02*
X007977Y019970D01*
X008076Y019871D02*
X008235Y019871D01*
X008205Y019773D02*
X008105Y019773D01*
D30*
X012155Y017655D03*
X013030Y015655D03*
X013530Y015655D03*
X014155Y015905D03*
X014155Y017530D03*
X014905Y014155D03*
X015405Y013030D03*
X015905Y012655D03*
X016405Y013780D03*
X016905Y013405D03*
X013155Y010280D03*
X013155Y009780D03*
X011905Y009405D03*
X011405Y009905D03*
X010905Y009905D03*
X010405Y009405D03*
X013030Y006530D03*
X013780Y005405D03*
X014280Y005405D03*
X016030Y005405D03*
X016530Y005405D03*
X018030Y008155D03*
X010780Y001655D03*
X010780Y001155D03*
X009280Y003155D03*
X009280Y003655D03*
X009280Y004155D03*
X004655Y007405D03*
X004155Y006530D03*
X003155Y006655D03*
X003155Y004655D03*
X003905Y008655D03*
X003530Y009655D03*
X003905Y010655D03*
X003905Y012655D03*
X003905Y014655D03*
D31*
X013030Y006530D02*
X013030Y004479D01*
X012206Y003655D01*
X012206Y002655D01*
X013403Y003155D02*
X013405Y003157D01*
X013405Y006280D01*
X013530Y006405D01*
X014072Y006405D01*
X014072Y006905D02*
X013405Y006905D01*
X013030Y006530D01*
D32*
X012905Y002155D03*
X019155Y002905D03*
X016155Y019655D03*
D33*
X012206Y002655D02*
X012706Y002155D01*
X012905Y002155D01*
D34*
X016907Y003155D02*
X018655Y003155D01*
X018905Y003405D01*
X019155Y003405D01*
X019155Y003604D01*
X019155Y003405D02*
X019155Y002905D01*
X017905Y003155D02*
X017905Y003820D01*
X017905Y003155D02*
X016907Y003155D01*
M02*
