G75*
G70*
%OFA0B0*%
%FSLAX24Y24*%
%IPPOS*%
%LPD*%
%AMOC8*
5,1,8,0,0,1.08239X$1,22.5*
%
%ADD10C,0.0000*%
%ADD11R,0.0474X0.0513*%
%ADD12R,0.0552X0.0552*%
%ADD13C,0.1261*%
%ADD14C,0.1661*%
%ADD15C,0.0674*%
%ADD16OC8,0.0680*%
%ADD17C,0.0516*%
D10*
X000655Y000655D02*
X000655Y020340D01*
X020340Y020340D01*
X020340Y000655D01*
X000655Y000655D01*
X010189Y005780D02*
X010191Y005828D01*
X010197Y005876D01*
X010207Y005923D01*
X010220Y005969D01*
X010238Y006014D01*
X010258Y006058D01*
X010283Y006100D01*
X010311Y006139D01*
X010341Y006176D01*
X010375Y006210D01*
X010412Y006242D01*
X010450Y006271D01*
X010491Y006296D01*
X010534Y006318D01*
X010579Y006336D01*
X010625Y006350D01*
X010672Y006361D01*
X010720Y006368D01*
X010768Y006371D01*
X010816Y006370D01*
X010864Y006365D01*
X010912Y006356D01*
X010958Y006344D01*
X011003Y006327D01*
X011047Y006307D01*
X011089Y006284D01*
X011129Y006257D01*
X011167Y006227D01*
X011202Y006194D01*
X011234Y006158D01*
X011264Y006120D01*
X011290Y006079D01*
X011312Y006036D01*
X011332Y005992D01*
X011347Y005947D01*
X011359Y005900D01*
X011367Y005852D01*
X011371Y005804D01*
X011371Y005756D01*
X011367Y005708D01*
X011359Y005660D01*
X011347Y005613D01*
X011332Y005568D01*
X011312Y005524D01*
X011290Y005481D01*
X011264Y005440D01*
X011234Y005402D01*
X011202Y005366D01*
X011167Y005333D01*
X011129Y005303D01*
X011089Y005276D01*
X011047Y005253D01*
X011003Y005233D01*
X010958Y005216D01*
X010912Y005204D01*
X010864Y005195D01*
X010816Y005190D01*
X010768Y005189D01*
X010720Y005192D01*
X010672Y005199D01*
X010625Y005210D01*
X010579Y005224D01*
X010534Y005242D01*
X010491Y005264D01*
X010450Y005289D01*
X010412Y005318D01*
X010375Y005350D01*
X010341Y005384D01*
X010311Y005421D01*
X010283Y005460D01*
X010258Y005502D01*
X010238Y005546D01*
X010220Y005591D01*
X010207Y005637D01*
X010197Y005684D01*
X010191Y005732D01*
X010189Y005780D01*
D11*
X002490Y005155D03*
X001820Y005155D03*
X001820Y007155D03*
X002490Y007155D03*
X002490Y009155D03*
X001820Y009155D03*
X001820Y011155D03*
X002490Y011155D03*
X002490Y013155D03*
X001820Y013155D03*
X001820Y015155D03*
X002490Y015155D03*
D12*
X002569Y014155D03*
X001742Y014155D03*
X001742Y012155D03*
X002569Y012155D03*
X002569Y010155D03*
X001742Y010155D03*
X001742Y008155D03*
X002569Y008155D03*
X002569Y006155D03*
X001742Y006155D03*
X001742Y004155D03*
X002569Y004155D03*
D13*
X007155Y003507D03*
X008407Y003507D03*
X010780Y005780D03*
X008407Y006456D03*
X007155Y006456D03*
X007155Y009405D03*
X008407Y009405D03*
X008407Y012354D03*
X007155Y012354D03*
X007155Y015303D03*
X008407Y015303D03*
D14*
X001986Y017173D03*
X001986Y001637D03*
D15*
X008983Y001280D02*
X009577Y001280D01*
X009577Y002280D02*
X008983Y002280D01*
D16*
X008655Y018655D03*
X007655Y018655D03*
X006655Y018655D03*
X005655Y018655D03*
X004655Y018655D03*
X003655Y018655D03*
X002655Y018655D03*
X001655Y018655D03*
X001655Y019655D03*
X002655Y019655D03*
X003655Y019655D03*
X004655Y019655D03*
X005655Y019655D03*
X006655Y019655D03*
X007655Y019655D03*
X008655Y019655D03*
X009655Y019655D03*
X009655Y018655D03*
X010655Y018655D03*
X010655Y019655D03*
X011655Y019655D03*
X012655Y019655D03*
X012655Y018655D03*
X011655Y018655D03*
X013655Y018655D03*
X013655Y019655D03*
D17*
X016155Y019655D03*
X019155Y002905D03*
X012905Y002155D03*
M02*
