G75*
G70*
%OFA0B0*%
%FSLAX24Y24*%
%IPPOS*%
%LPD*%
%AMOC8*
5,1,8,0,0,1.08239X$1,22.5*
%
%ADD10C,0.0000*%
%ADD11C,0.0100*%
%ADD12C,0.0060*%
%ADD13C,0.0020*%
%ADD14R,0.0200X0.0050*%
%ADD15C,0.0050*%
%ADD16C,0.0080*%
%ADD17C,0.0040*%
%ADD18C,0.0401*%
%ADD19R,0.0200X0.0200*%
D10*
X000655Y000655D02*
X000655Y020340D01*
X020340Y020340D01*
X020340Y000655D01*
X000655Y000655D01*
X010189Y005780D02*
X010191Y005828D01*
X010197Y005876D01*
X010207Y005923D01*
X010220Y005969D01*
X010238Y006014D01*
X010258Y006058D01*
X010283Y006100D01*
X010311Y006139D01*
X010341Y006176D01*
X010375Y006210D01*
X010412Y006242D01*
X010450Y006271D01*
X010491Y006296D01*
X010534Y006318D01*
X010579Y006336D01*
X010625Y006350D01*
X010672Y006361D01*
X010720Y006368D01*
X010768Y006371D01*
X010816Y006370D01*
X010864Y006365D01*
X010912Y006356D01*
X010958Y006344D01*
X011003Y006327D01*
X011047Y006307D01*
X011089Y006284D01*
X011129Y006257D01*
X011167Y006227D01*
X011202Y006194D01*
X011234Y006158D01*
X011264Y006120D01*
X011290Y006079D01*
X011312Y006036D01*
X011332Y005992D01*
X011347Y005947D01*
X011359Y005900D01*
X011367Y005852D01*
X011371Y005804D01*
X011371Y005756D01*
X011367Y005708D01*
X011359Y005660D01*
X011347Y005613D01*
X011332Y005568D01*
X011312Y005524D01*
X011290Y005481D01*
X011264Y005440D01*
X011234Y005402D01*
X011202Y005366D01*
X011167Y005333D01*
X011129Y005303D01*
X011089Y005276D01*
X011047Y005253D01*
X011003Y005233D01*
X010958Y005216D01*
X010912Y005204D01*
X010864Y005195D01*
X010816Y005190D01*
X010768Y005189D01*
X010720Y005192D01*
X010672Y005199D01*
X010625Y005210D01*
X010579Y005224D01*
X010534Y005242D01*
X010491Y005264D01*
X010450Y005289D01*
X010412Y005318D01*
X010375Y005350D01*
X010341Y005384D01*
X010311Y005421D01*
X010283Y005460D01*
X010258Y005502D01*
X010238Y005546D01*
X010220Y005591D01*
X010207Y005637D01*
X010197Y005684D01*
X010191Y005732D01*
X010189Y005780D01*
D11*
X012451Y008014D02*
X012545Y008014D01*
X012731Y008014D02*
X012731Y007921D01*
X012731Y008014D02*
X013105Y008014D01*
X013105Y007921D02*
X013105Y008107D01*
X012825Y007686D02*
X012638Y007686D01*
X012545Y007593D01*
X012545Y007313D01*
X013105Y007313D01*
X012918Y007313D02*
X012918Y007593D01*
X012825Y007686D01*
X012825Y007079D02*
X012638Y007079D01*
X012545Y006985D01*
X012545Y006705D01*
X013105Y006705D01*
X012918Y006705D02*
X012918Y006985D01*
X012825Y007079D01*
X012918Y006892D02*
X013105Y007079D01*
X013012Y008933D02*
X012638Y008933D01*
X012545Y009027D01*
X012545Y009214D01*
X012638Y009307D01*
X012731Y009541D02*
X012545Y009728D01*
X012731Y009915D01*
X013105Y009915D01*
X013105Y010149D02*
X012545Y010149D01*
X013105Y010522D01*
X012545Y010522D01*
X012825Y009915D02*
X012825Y009541D01*
X012731Y009541D02*
X013105Y009541D01*
X013012Y009307D02*
X013105Y009214D01*
X013105Y009027D01*
X013012Y008933D01*
X010530Y002780D02*
X008780Y002780D01*
X008780Y000780D01*
X008030Y000780D01*
X008030Y002780D01*
X008780Y002780D01*
X010530Y002780D02*
X010530Y000780D01*
X008780Y000780D01*
X008818Y016205D02*
X008724Y016299D01*
X009098Y016672D01*
X009098Y016299D01*
X009005Y016205D01*
X008818Y016205D01*
X008724Y016299D02*
X008724Y016672D01*
X008818Y016766D01*
X009005Y016766D01*
X009098Y016672D01*
X008514Y016299D02*
X008514Y016205D01*
X008421Y016205D01*
X008421Y016299D01*
X008514Y016299D01*
X008186Y016205D02*
X007813Y016205D01*
X008000Y016205D02*
X008000Y016766D01*
X007813Y016579D01*
X007579Y016392D02*
X007579Y016766D01*
X007205Y016766D02*
X007205Y016392D01*
X007392Y016205D01*
X007579Y016392D01*
D12*
X007405Y018155D02*
X007155Y018405D01*
X007155Y019905D01*
X007405Y020155D01*
X007905Y020155D01*
X008155Y019905D01*
X008155Y018405D01*
X007905Y018155D01*
X007405Y018155D01*
X007155Y018405D02*
X006905Y018155D01*
X006405Y018155D01*
X006155Y018405D01*
X006155Y019905D01*
X006405Y020155D01*
X006905Y020155D01*
X007155Y019905D01*
X006155Y019905D02*
X005905Y020155D01*
X005405Y020155D01*
X005155Y019905D01*
X005155Y018405D01*
X005405Y018155D01*
X005905Y018155D01*
X006155Y018405D01*
X005155Y018405D02*
X004905Y018155D01*
X004405Y018155D01*
X004155Y018405D01*
X004155Y019905D01*
X004405Y020155D01*
X004905Y020155D01*
X005155Y019905D01*
X004155Y019905D02*
X003905Y020155D01*
X003405Y020155D01*
X003155Y019905D01*
X003155Y018405D01*
X003405Y018155D01*
X003905Y018155D01*
X004155Y018405D01*
X003155Y018405D02*
X002905Y018155D01*
X002405Y018155D01*
X002155Y018405D01*
X002155Y019905D01*
X002405Y020155D01*
X002905Y020155D01*
X003155Y019905D01*
X002155Y019905D02*
X001905Y020155D01*
X001405Y020155D01*
X001155Y019905D01*
X001155Y018405D01*
X001405Y018155D01*
X001905Y018155D01*
X002155Y018405D01*
X008155Y018405D02*
X008405Y018155D01*
X008905Y018155D01*
X009155Y018405D01*
X009155Y019905D01*
X009405Y020155D01*
X009905Y020155D01*
X010155Y019905D01*
X010155Y018405D01*
X009905Y018155D01*
X009405Y018155D01*
X009155Y018405D01*
X010155Y018405D02*
X010405Y018155D01*
X010905Y018155D01*
X011155Y018405D01*
X011155Y019905D01*
X011405Y020155D01*
X011905Y020155D01*
X012155Y019905D01*
X012155Y018405D01*
X011905Y018155D01*
X011405Y018155D01*
X011155Y018405D01*
X012155Y018405D02*
X012405Y018155D01*
X012905Y018155D01*
X013155Y018405D01*
X013405Y018155D01*
X013905Y018155D01*
X014155Y018405D01*
X014155Y019905D01*
X013905Y020155D01*
X013405Y020155D01*
X013155Y019905D01*
X013155Y018405D01*
X013155Y019905D02*
X012905Y020155D01*
X012405Y020155D01*
X012155Y019905D01*
X011155Y019905D02*
X010905Y020155D01*
X010405Y020155D01*
X010155Y019905D01*
X009155Y019905D02*
X008905Y020155D01*
X008405Y020155D01*
X008155Y019905D01*
X013605Y014475D02*
X013605Y011835D01*
X013607Y011812D01*
X013612Y011789D01*
X013621Y011767D01*
X013634Y011747D01*
X013649Y011729D01*
X013667Y011714D01*
X013687Y011701D01*
X013709Y011692D01*
X013732Y011687D01*
X013755Y011685D01*
X018055Y011685D01*
X018078Y011687D01*
X018101Y011692D01*
X018123Y011701D01*
X018143Y011714D01*
X018161Y011729D01*
X018176Y011747D01*
X018189Y011767D01*
X018198Y011789D01*
X018203Y011812D01*
X018205Y011835D01*
X018205Y014475D01*
X018203Y014498D01*
X018198Y014521D01*
X018189Y014543D01*
X018176Y014563D01*
X018161Y014581D01*
X018143Y014596D01*
X018123Y014609D01*
X018101Y014618D01*
X018078Y014623D01*
X018055Y014625D01*
X013755Y014625D01*
X013732Y014623D01*
X013709Y014618D01*
X013687Y014609D01*
X013667Y014596D01*
X013649Y014581D01*
X013634Y014563D01*
X013621Y014543D01*
X013612Y014521D01*
X013607Y014498D01*
X013605Y014475D01*
X013605Y013655D02*
X013649Y013653D01*
X013692Y013647D01*
X013734Y013638D01*
X013776Y013625D01*
X013816Y013608D01*
X013855Y013588D01*
X013892Y013565D01*
X013926Y013538D01*
X013959Y013509D01*
X013988Y013476D01*
X014015Y013442D01*
X014038Y013405D01*
X014058Y013366D01*
X014075Y013326D01*
X014088Y013284D01*
X014097Y013242D01*
X014103Y013199D01*
X014105Y013155D01*
X014103Y013111D01*
X014097Y013068D01*
X014088Y013026D01*
X014075Y012984D01*
X014058Y012944D01*
X014038Y012905D01*
X014015Y012868D01*
X013988Y012834D01*
X013959Y012801D01*
X013926Y012772D01*
X013892Y012745D01*
X013855Y012722D01*
X013816Y012702D01*
X013776Y012685D01*
X013734Y012672D01*
X013692Y012663D01*
X013649Y012657D01*
X013605Y012655D01*
X012085Y010365D02*
X012085Y008945D01*
X010225Y008945D02*
X010225Y010365D01*
X009430Y005780D02*
X009432Y005853D01*
X009438Y005926D01*
X009448Y005998D01*
X009462Y006070D01*
X009479Y006141D01*
X009501Y006211D01*
X009526Y006280D01*
X009555Y006347D01*
X009587Y006412D01*
X009623Y006476D01*
X009663Y006538D01*
X009705Y006597D01*
X009751Y006654D01*
X009800Y006708D01*
X009852Y006760D01*
X009906Y006809D01*
X009963Y006855D01*
X010022Y006897D01*
X010084Y006937D01*
X010148Y006973D01*
X010213Y007005D01*
X010280Y007034D01*
X010349Y007059D01*
X010419Y007081D01*
X010490Y007098D01*
X010562Y007112D01*
X010634Y007122D01*
X010707Y007128D01*
X010780Y007130D01*
X010853Y007128D01*
X010926Y007122D01*
X010998Y007112D01*
X011070Y007098D01*
X011141Y007081D01*
X011211Y007059D01*
X011280Y007034D01*
X011347Y007005D01*
X011412Y006973D01*
X011476Y006937D01*
X011538Y006897D01*
X011597Y006855D01*
X011654Y006809D01*
X011708Y006760D01*
X011760Y006708D01*
X011809Y006654D01*
X011855Y006597D01*
X011897Y006538D01*
X011937Y006476D01*
X011973Y006412D01*
X012005Y006347D01*
X012034Y006280D01*
X012059Y006211D01*
X012081Y006141D01*
X012098Y006070D01*
X012112Y005998D01*
X012122Y005926D01*
X012128Y005853D01*
X012130Y005780D01*
X012128Y005707D01*
X012122Y005634D01*
X012112Y005562D01*
X012098Y005490D01*
X012081Y005419D01*
X012059Y005349D01*
X012034Y005280D01*
X012005Y005213D01*
X011973Y005148D01*
X011937Y005084D01*
X011897Y005022D01*
X011855Y004963D01*
X011809Y004906D01*
X011760Y004852D01*
X011708Y004800D01*
X011654Y004751D01*
X011597Y004705D01*
X011538Y004663D01*
X011476Y004623D01*
X011412Y004587D01*
X011347Y004555D01*
X011280Y004526D01*
X011211Y004501D01*
X011141Y004479D01*
X011070Y004462D01*
X010998Y004448D01*
X010926Y004438D01*
X010853Y004432D01*
X010780Y004430D01*
X010707Y004432D01*
X010634Y004438D01*
X010562Y004448D01*
X010490Y004462D01*
X010419Y004479D01*
X010349Y004501D01*
X010280Y004526D01*
X010213Y004555D01*
X010148Y004587D01*
X010084Y004623D01*
X010022Y004663D01*
X009963Y004705D01*
X009906Y004751D01*
X009852Y004800D01*
X009800Y004852D01*
X009751Y004906D01*
X009705Y004963D01*
X009663Y005022D01*
X009623Y005084D01*
X009587Y005148D01*
X009555Y005213D01*
X009526Y005280D01*
X009501Y005349D01*
X009479Y005419D01*
X009462Y005490D01*
X009448Y005562D01*
X009438Y005634D01*
X009432Y005707D01*
X009430Y005780D01*
X014387Y005691D02*
X015923Y005691D01*
X015923Y007620D02*
X014387Y007620D01*
X018205Y010505D02*
X018205Y014805D01*
X018207Y014822D01*
X018211Y014839D01*
X018218Y014855D01*
X018228Y014869D01*
X018241Y014882D01*
X018255Y014892D01*
X018271Y014899D01*
X018288Y014903D01*
X018305Y014905D01*
X018705Y014905D01*
X019605Y014905D02*
X020005Y014905D01*
X020022Y014903D01*
X020039Y014899D01*
X020055Y014892D01*
X020069Y014882D01*
X020082Y014869D01*
X020092Y014855D01*
X020099Y014839D01*
X020103Y014822D01*
X020105Y014805D01*
X020105Y010505D01*
X020103Y010488D01*
X020099Y010471D01*
X020092Y010455D01*
X020082Y010441D01*
X020069Y010428D01*
X020055Y010418D01*
X020039Y010411D01*
X020022Y010407D01*
X020005Y010405D01*
X019605Y010405D01*
X018705Y010405D02*
X018305Y010405D01*
X018288Y010407D01*
X018271Y010411D01*
X018255Y010418D01*
X018241Y010428D01*
X018228Y010441D01*
X018218Y010455D01*
X018211Y010471D01*
X018207Y010488D01*
X018205Y010505D01*
X018905Y012405D02*
X019155Y012405D01*
X019405Y012405D01*
X019405Y012555D02*
X019405Y012755D01*
X018905Y012755D01*
X018905Y012555D01*
X019405Y012555D01*
X019405Y012905D02*
X019155Y012905D01*
X018905Y012905D01*
D13*
X019155Y012905D02*
X019155Y013105D01*
X019155Y012405D02*
X019155Y012205D01*
X018355Y011305D02*
X018357Y011249D01*
X018363Y011194D01*
X018372Y011139D01*
X018386Y011085D01*
X018403Y011032D01*
X018424Y010981D01*
X018448Y010931D01*
X018476Y010883D01*
X018507Y010836D01*
X018541Y010792D01*
X018578Y010751D01*
X018618Y010712D01*
X018660Y010676D01*
X018705Y010644D01*
X018655Y011305D02*
X018655Y014005D01*
X018355Y014005D02*
X018355Y011305D01*
X018205Y011825D02*
X013605Y011825D01*
X014625Y007365D02*
X014627Y007388D01*
X014633Y007410D01*
X014642Y007432D01*
X014655Y007451D01*
X014670Y007468D01*
X014688Y007482D01*
X014709Y007493D01*
X014731Y007501D01*
X014753Y007505D01*
X014777Y007505D01*
X014799Y007501D01*
X014821Y007493D01*
X014842Y007482D01*
X014860Y007468D01*
X014875Y007451D01*
X014888Y007432D01*
X014897Y007410D01*
X014903Y007388D01*
X014905Y007365D01*
X014903Y007342D01*
X014897Y007320D01*
X014888Y007298D01*
X014875Y007279D01*
X014860Y007262D01*
X014842Y007248D01*
X014821Y007237D01*
X014799Y007229D01*
X014777Y007225D01*
X014753Y007225D01*
X014731Y007229D01*
X014709Y007237D01*
X014688Y007248D01*
X014670Y007262D01*
X014655Y007279D01*
X014642Y007298D01*
X014633Y007320D01*
X014627Y007342D01*
X014625Y007365D01*
X018705Y011087D02*
X018690Y011121D01*
X018677Y011157D01*
X018668Y011193D01*
X018661Y011230D01*
X018656Y011267D01*
X018655Y011305D01*
X019605Y011087D02*
X019620Y011121D01*
X019633Y011157D01*
X019642Y011193D01*
X019649Y011230D01*
X019654Y011267D01*
X019655Y011305D01*
X019655Y014005D01*
X019955Y014005D02*
X019955Y011305D01*
X019953Y011249D01*
X019947Y011194D01*
X019938Y011139D01*
X019924Y011085D01*
X019907Y011032D01*
X019886Y010981D01*
X019862Y010931D01*
X019834Y010883D01*
X019803Y010836D01*
X019769Y010793D01*
X019732Y010751D01*
X019692Y010712D01*
X019650Y010676D01*
X019605Y010644D01*
X019955Y014005D02*
X019953Y014061D01*
X019947Y014116D01*
X019938Y014171D01*
X019924Y014225D01*
X019907Y014278D01*
X019886Y014329D01*
X019862Y014379D01*
X019834Y014427D01*
X019803Y014474D01*
X019769Y014518D01*
X019732Y014559D01*
X019692Y014598D01*
X019650Y014634D01*
X019605Y014666D01*
X018705Y014223D02*
X018690Y014189D01*
X018677Y014153D01*
X018668Y014117D01*
X018661Y014080D01*
X018656Y014043D01*
X018655Y014005D01*
X019605Y014223D02*
X019620Y014189D01*
X019633Y014153D01*
X019642Y014117D01*
X019649Y014080D01*
X019654Y014043D01*
X019655Y014005D01*
X018705Y014666D02*
X018660Y014634D01*
X018618Y014598D01*
X018578Y014559D01*
X018541Y014517D01*
X018507Y014474D01*
X018476Y014427D01*
X018448Y014379D01*
X018424Y014329D01*
X018403Y014278D01*
X018386Y014225D01*
X018372Y014171D01*
X018363Y014116D01*
X018357Y014061D01*
X018355Y014005D01*
D14*
X017905Y014650D03*
X017405Y014650D03*
X016905Y014650D03*
X016405Y014650D03*
X015905Y014650D03*
X015405Y014650D03*
X014905Y014650D03*
X014405Y014650D03*
X013905Y014650D03*
X013905Y011660D03*
X014405Y011660D03*
X014905Y011660D03*
X015405Y011660D03*
X015905Y011660D03*
X016405Y011660D03*
X016905Y011660D03*
X017405Y011660D03*
X017905Y011660D03*
D15*
X018339Y009580D02*
X018572Y009230D01*
X018339Y009230D02*
X018572Y009580D01*
X018707Y009580D02*
X018940Y009580D01*
X018824Y009580D02*
X018824Y009230D01*
X019075Y009230D02*
X019075Y009464D01*
X019192Y009580D01*
X019309Y009464D01*
X019309Y009230D01*
X019444Y009230D02*
X019677Y009230D01*
X019812Y009230D02*
X020045Y009230D01*
X019929Y009230D02*
X019929Y009580D01*
X019812Y009464D01*
X019444Y009580D02*
X019444Y009230D01*
X019309Y009405D02*
X019075Y009405D01*
X017920Y008830D02*
X017687Y008830D01*
X017862Y009005D01*
X017862Y008655D01*
X017717Y008530D02*
X017600Y008530D01*
X017542Y008472D01*
X017542Y008238D01*
X017775Y008472D01*
X017775Y008238D01*
X017717Y008180D01*
X017600Y008180D01*
X017542Y008238D01*
X017407Y008180D02*
X017173Y008180D01*
X017290Y008180D02*
X017290Y008530D01*
X017173Y008414D01*
X017039Y008472D02*
X016980Y008530D01*
X016863Y008530D01*
X016805Y008472D01*
X016805Y008238D01*
X016863Y008180D01*
X016980Y008180D01*
X017039Y008238D01*
X017377Y008655D02*
X017494Y008655D01*
X017552Y008713D01*
X017377Y008655D02*
X017319Y008713D01*
X017319Y008947D01*
X017377Y009005D01*
X017494Y009005D01*
X017552Y008947D01*
X017717Y008530D02*
X017775Y008472D01*
X017744Y007380D02*
X017627Y007380D01*
X017569Y007322D01*
X017434Y007322D02*
X017434Y007205D01*
X017375Y007147D01*
X017200Y007147D01*
X017200Y007030D02*
X017200Y007380D01*
X017375Y007380D01*
X017434Y007322D01*
X017317Y007147D02*
X017434Y007030D01*
X017569Y007088D02*
X017627Y007030D01*
X017744Y007030D01*
X017802Y007088D01*
X017802Y007147D01*
X017744Y007205D01*
X017685Y007205D01*
X017744Y007205D02*
X017802Y007264D01*
X017802Y007322D01*
X017744Y007380D01*
X017937Y007380D02*
X017937Y007205D01*
X018054Y007264D01*
X018112Y007264D01*
X018170Y007205D01*
X018170Y007088D01*
X018112Y007030D01*
X017995Y007030D01*
X017937Y007088D01*
X017937Y007380D02*
X018170Y007380D01*
X018700Y007322D02*
X018700Y007088D01*
X018759Y007030D01*
X018875Y007030D01*
X018934Y007088D01*
X019069Y007030D02*
X019302Y007030D01*
X019185Y007030D02*
X019185Y007380D01*
X019069Y007264D01*
X018934Y007322D02*
X018875Y007380D01*
X018759Y007380D01*
X018700Y007322D01*
X019437Y007322D02*
X019495Y007380D01*
X019612Y007380D01*
X019670Y007322D01*
X019670Y007264D01*
X019612Y007205D01*
X019670Y007147D01*
X019670Y007088D01*
X019612Y007030D01*
X019495Y007030D01*
X019437Y007088D01*
X019554Y007205D02*
X019612Y007205D01*
X019670Y006380D02*
X019554Y006322D01*
X019437Y006205D01*
X019612Y006205D01*
X019670Y006147D01*
X019670Y006088D01*
X019612Y006030D01*
X019495Y006030D01*
X019437Y006088D01*
X019437Y006205D01*
X019302Y006147D02*
X019302Y006088D01*
X019244Y006030D01*
X019127Y006030D01*
X019069Y006088D01*
X018934Y006030D02*
X018817Y006147D01*
X018875Y006147D02*
X018700Y006147D01*
X018700Y006030D02*
X018700Y006380D01*
X018875Y006380D01*
X018934Y006322D01*
X018934Y006205D01*
X018875Y006147D01*
X019069Y006322D02*
X019127Y006380D01*
X019244Y006380D01*
X019302Y006322D01*
X019302Y006264D01*
X019244Y006205D01*
X019302Y006147D01*
X019244Y006205D02*
X019185Y006205D01*
X018170Y006264D02*
X018170Y006322D01*
X018112Y006380D01*
X017995Y006380D01*
X017937Y006322D01*
X018170Y006264D02*
X017937Y006030D01*
X018170Y006030D01*
X017802Y006030D02*
X017569Y006030D01*
X017685Y006030D02*
X017685Y006380D01*
X017569Y006264D01*
X017434Y006322D02*
X017375Y006380D01*
X017259Y006380D01*
X017200Y006322D01*
X017200Y006088D01*
X017259Y006030D01*
X017375Y006030D01*
X017434Y006088D01*
X017375Y005255D02*
X017200Y005255D01*
X017200Y004905D01*
X017200Y005022D02*
X017375Y005022D01*
X017434Y005080D01*
X017434Y005197D01*
X017375Y005255D01*
X017569Y005197D02*
X017627Y005255D01*
X017744Y005255D01*
X017802Y005197D01*
X017802Y005139D01*
X017744Y005080D01*
X017802Y005022D01*
X017802Y004963D01*
X017744Y004905D01*
X017627Y004905D01*
X017569Y004963D01*
X017434Y004905D02*
X017317Y005022D01*
X017685Y005080D02*
X017744Y005080D01*
X017937Y005022D02*
X017937Y004963D01*
X017995Y004905D01*
X018112Y004905D01*
X018170Y004963D01*
X018170Y005022D01*
X018112Y005080D01*
X017995Y005080D01*
X017937Y005139D01*
X017937Y005197D01*
X017995Y005255D01*
X018112Y005255D01*
X018170Y005197D01*
X018170Y005139D01*
X018112Y005080D01*
X017995Y005080D02*
X017937Y005022D01*
X017974Y003405D02*
X017857Y003405D01*
X017798Y003347D01*
X017664Y003347D02*
X017664Y003230D01*
X017605Y003172D01*
X017430Y003172D01*
X017547Y003172D02*
X017664Y003055D01*
X017798Y003113D02*
X017857Y003055D01*
X017974Y003055D01*
X018032Y003113D01*
X018032Y003172D01*
X017974Y003230D01*
X017915Y003230D01*
X017974Y003230D02*
X018032Y003289D01*
X018032Y003347D01*
X017974Y003405D01*
X018167Y003405D02*
X018400Y003405D01*
X018400Y003347D01*
X018167Y003113D01*
X018167Y003055D01*
X017664Y003347D02*
X017605Y003405D01*
X017430Y003405D01*
X017430Y003055D01*
X018805Y002472D02*
X018805Y002238D01*
X018863Y002180D01*
X018980Y002180D01*
X019039Y002238D01*
X019173Y002180D02*
X019407Y002180D01*
X019290Y002180D02*
X019290Y002530D01*
X019173Y002414D01*
X019039Y002472D02*
X018980Y002530D01*
X018863Y002530D01*
X018805Y002472D01*
X019542Y002472D02*
X019542Y002414D01*
X019600Y002355D01*
X019775Y002355D01*
X019775Y002238D02*
X019775Y002472D01*
X019717Y002530D01*
X019600Y002530D01*
X019542Y002472D01*
X019542Y002238D02*
X019600Y002180D01*
X019717Y002180D01*
X019775Y002238D01*
X015669Y005255D02*
X015669Y005605D01*
X015494Y005430D01*
X015727Y005430D01*
X015359Y005313D02*
X015301Y005255D01*
X015184Y005255D01*
X015126Y005313D01*
X015126Y005547D01*
X015184Y005605D01*
X015301Y005605D01*
X015359Y005547D01*
X014997Y005605D02*
X014880Y005605D01*
X014938Y005605D02*
X014938Y005255D01*
X014880Y005255D02*
X014997Y005255D01*
X014980Y008180D02*
X015039Y008238D01*
X014980Y008180D02*
X014863Y008180D01*
X014805Y008238D01*
X014805Y008472D01*
X014863Y008530D01*
X014980Y008530D01*
X015039Y008472D01*
X015173Y008530D02*
X015407Y008530D01*
X015407Y008472D01*
X015173Y008238D01*
X015173Y008180D01*
X015187Y008655D02*
X015187Y008713D01*
X015420Y008947D01*
X015420Y009005D01*
X015187Y009005D01*
X015052Y008947D02*
X015052Y008830D01*
X014994Y008772D01*
X014819Y008772D01*
X014935Y008772D02*
X015052Y008655D01*
X014819Y008655D02*
X014819Y009005D01*
X014994Y009005D01*
X015052Y008947D01*
X014420Y009005D02*
X014304Y008947D01*
X014187Y008830D01*
X014362Y008830D01*
X014420Y008772D01*
X014420Y008713D01*
X014362Y008655D01*
X014245Y008655D01*
X014187Y008713D01*
X014187Y008830D01*
X014052Y008830D02*
X014052Y008947D01*
X013994Y009005D01*
X013819Y009005D01*
X013819Y008655D01*
X013819Y008772D02*
X013994Y008772D01*
X014052Y008830D01*
X013935Y008772D02*
X014052Y008655D01*
X015819Y008655D02*
X015819Y009005D01*
X015994Y009005D01*
X016052Y008947D01*
X016052Y008830D01*
X015994Y008772D01*
X015819Y008772D01*
X015935Y008772D02*
X016052Y008655D01*
X016187Y008713D02*
X016187Y008772D01*
X016245Y008830D01*
X016362Y008830D01*
X016420Y008772D01*
X016420Y008713D01*
X016362Y008655D01*
X016245Y008655D01*
X016187Y008713D01*
X016245Y008830D02*
X016187Y008889D01*
X016187Y008947D01*
X016245Y009005D01*
X016362Y009005D01*
X016420Y008947D01*
X016420Y008889D01*
X016362Y008830D01*
X013620Y011130D02*
X013387Y011130D01*
X013504Y011130D02*
X013504Y011480D01*
X013387Y011364D01*
X013252Y011422D02*
X013194Y011480D01*
X013077Y011480D01*
X013018Y011422D01*
X013018Y011188D01*
X013077Y011130D01*
X013194Y011130D01*
X013252Y011188D01*
X012890Y011130D02*
X012773Y011130D01*
X012831Y011130D02*
X012831Y011480D01*
X012773Y011480D02*
X012890Y011480D01*
X012937Y012905D02*
X013170Y013139D01*
X013170Y013197D01*
X013112Y013255D01*
X012995Y013255D01*
X012937Y013197D01*
X012802Y013197D02*
X012744Y013255D01*
X012627Y013255D01*
X012569Y013197D01*
X012569Y012963D01*
X012627Y012905D01*
X012744Y012905D01*
X012802Y012963D01*
X012937Y012905D02*
X013170Y012905D01*
X012295Y013080D02*
X012062Y013080D01*
X012237Y013255D01*
X012237Y012905D01*
X011927Y012905D02*
X011694Y012905D01*
X011810Y012905D02*
X011810Y013255D01*
X011694Y013139D01*
X011559Y013197D02*
X011500Y013255D01*
X011325Y013255D01*
X011325Y012905D01*
X011325Y013022D02*
X011500Y013022D01*
X011559Y013080D01*
X011559Y013197D01*
X011442Y013022D02*
X011559Y012905D01*
X011045Y012963D02*
X010987Y012905D01*
X010870Y012905D01*
X010812Y012963D01*
X010677Y012905D02*
X010444Y012905D01*
X010560Y012905D02*
X010560Y013255D01*
X010444Y013139D01*
X010309Y013197D02*
X010250Y013255D01*
X010075Y013255D01*
X010075Y012905D01*
X010075Y013022D02*
X010250Y013022D01*
X010309Y013080D01*
X010309Y013197D01*
X010192Y013022D02*
X010309Y012905D01*
X009795Y012905D02*
X009562Y012905D01*
X009795Y013139D01*
X009795Y013197D01*
X009737Y013255D01*
X009620Y013255D01*
X009562Y013197D01*
X009310Y013255D02*
X009310Y012905D01*
X009194Y012905D02*
X009427Y012905D01*
X009194Y013139D02*
X009310Y013255D01*
X009059Y013197D02*
X009059Y013080D01*
X009000Y013022D01*
X008825Y013022D01*
X008825Y012905D02*
X008825Y013255D01*
X009000Y013255D01*
X009059Y013197D01*
X008942Y013022D02*
X009059Y012905D01*
X009819Y013588D02*
X009819Y013822D01*
X009877Y013880D01*
X009994Y013880D01*
X010052Y013822D01*
X010187Y013822D02*
X010187Y013764D01*
X010245Y013705D01*
X010362Y013705D01*
X010420Y013647D01*
X010420Y013588D01*
X010362Y013530D01*
X010245Y013530D01*
X010187Y013588D01*
X010187Y013647D01*
X010245Y013705D01*
X010362Y013705D02*
X010420Y013764D01*
X010420Y013822D01*
X010362Y013880D01*
X010245Y013880D01*
X010187Y013822D01*
X010052Y013588D02*
X009994Y013530D01*
X009877Y013530D01*
X009819Y013588D01*
X010525Y014163D02*
X010525Y017157D01*
X010606Y017157D01*
X011785Y017157D01*
X011785Y014163D01*
X011606Y014163D01*
X010525Y014163D01*
X010870Y013255D02*
X010987Y013255D01*
X011045Y013197D01*
X011045Y013139D01*
X010987Y013080D01*
X011045Y013022D01*
X011045Y012963D01*
X010987Y013080D02*
X010929Y013080D01*
X010812Y013197D02*
X010870Y013255D01*
X011606Y014163D02*
X011704Y014163D01*
X012377Y014905D02*
X012494Y014905D01*
X012552Y014963D01*
X012687Y014905D02*
X012920Y014905D01*
X012804Y014905D02*
X012804Y015255D01*
X012687Y015139D01*
X012552Y015197D02*
X012494Y015255D01*
X012377Y015255D01*
X012319Y015197D01*
X012319Y014963D01*
X012377Y014905D01*
X012319Y015655D02*
X012552Y015655D01*
X012435Y015655D02*
X012435Y016005D01*
X012319Y015889D01*
X012184Y015947D02*
X012184Y015830D01*
X012125Y015772D01*
X011950Y015772D01*
X011950Y015655D02*
X011950Y016005D01*
X012125Y016005D01*
X012184Y015947D01*
X012067Y015772D02*
X012184Y015655D01*
X012687Y015713D02*
X012687Y015772D01*
X012745Y015830D01*
X012862Y015830D01*
X012920Y015772D01*
X012920Y015713D01*
X012862Y015655D01*
X012745Y015655D01*
X012687Y015713D01*
X012745Y015830D02*
X012687Y015889D01*
X012687Y015947D01*
X012745Y016005D01*
X012862Y016005D01*
X012920Y015947D01*
X012920Y015889D01*
X012862Y015830D01*
X013377Y017280D02*
X013494Y017280D01*
X013552Y017338D01*
X013687Y017338D02*
X013745Y017280D01*
X013862Y017280D01*
X013920Y017338D01*
X013920Y017572D01*
X013862Y017630D01*
X013745Y017630D01*
X013687Y017572D01*
X013687Y017514D01*
X013745Y017455D01*
X013920Y017455D01*
X013552Y017572D02*
X013494Y017630D01*
X013377Y017630D01*
X013319Y017572D01*
X013319Y017338D01*
X013377Y017280D01*
X014325Y017280D02*
X014325Y017630D01*
X014500Y017630D01*
X014559Y017572D01*
X014559Y017455D01*
X014500Y017397D01*
X014325Y017397D01*
X014442Y017397D02*
X014559Y017280D01*
X014694Y017280D02*
X014927Y017280D01*
X014810Y017280D02*
X014810Y017630D01*
X014694Y017514D01*
X015062Y017514D02*
X015120Y017455D01*
X015295Y017455D01*
X015295Y017338D02*
X015295Y017572D01*
X015237Y017630D01*
X015120Y017630D01*
X015062Y017572D01*
X015062Y017514D01*
X015062Y017338D02*
X015120Y017280D01*
X015237Y017280D01*
X015295Y017338D01*
X015319Y016005D02*
X015494Y016005D01*
X015552Y015947D01*
X015552Y015830D01*
X015494Y015772D01*
X015319Y015772D01*
X015435Y015772D02*
X015552Y015655D01*
X015687Y015655D02*
X015920Y015655D01*
X015804Y015655D02*
X015804Y016005D01*
X015687Y015889D01*
X015319Y016005D02*
X015319Y015655D01*
X016319Y015655D02*
X016319Y016005D01*
X016494Y016005D01*
X016552Y015947D01*
X016552Y015830D01*
X016494Y015772D01*
X016319Y015772D01*
X016435Y015772D02*
X016552Y015655D01*
X016687Y015655D02*
X016920Y015889D01*
X016920Y015947D01*
X016862Y016005D01*
X016745Y016005D01*
X016687Y015947D01*
X016687Y015655D02*
X016920Y015655D01*
X017319Y015655D02*
X017319Y016005D01*
X017494Y016005D01*
X017552Y015947D01*
X017552Y015830D01*
X017494Y015772D01*
X017319Y015772D01*
X017435Y015772D02*
X017552Y015655D01*
X017687Y015713D02*
X017745Y015655D01*
X017862Y015655D01*
X017920Y015713D01*
X017920Y015772D01*
X017862Y015830D01*
X017804Y015830D01*
X017862Y015830D02*
X017920Y015889D01*
X017920Y015947D01*
X017862Y016005D01*
X017745Y016005D01*
X017687Y015947D01*
X018319Y016005D02*
X018319Y015655D01*
X018319Y015772D02*
X018494Y015772D01*
X018552Y015830D01*
X018552Y015947D01*
X018494Y016005D01*
X018319Y016005D01*
X018435Y015772D02*
X018552Y015655D01*
X018687Y015830D02*
X018920Y015830D01*
X018862Y015655D02*
X018862Y016005D01*
X018687Y015830D01*
X019319Y015713D02*
X019377Y015655D01*
X019494Y015655D01*
X019552Y015713D01*
X019687Y015713D02*
X019745Y015655D01*
X019862Y015655D01*
X019920Y015713D01*
X019920Y015772D01*
X019862Y015830D01*
X019804Y015830D01*
X019862Y015830D02*
X019920Y015889D01*
X019920Y015947D01*
X019862Y016005D01*
X019745Y016005D01*
X019687Y015947D01*
X019552Y015947D02*
X019494Y016005D01*
X019377Y016005D01*
X019319Y015947D01*
X019319Y015713D01*
X018322Y017055D02*
X018380Y017113D01*
X018380Y017230D01*
X018322Y017289D01*
X018380Y017423D02*
X018380Y017657D01*
X018380Y017540D02*
X018030Y017540D01*
X018147Y017423D01*
X018088Y017289D02*
X018030Y017230D01*
X018030Y017113D01*
X018088Y017055D01*
X018322Y017055D01*
X018322Y017792D02*
X018380Y017792D01*
X018322Y017792D02*
X018088Y018025D01*
X018030Y018025D01*
X018030Y017792D01*
X017963Y018055D02*
X018197Y018055D01*
X018255Y018113D01*
X018255Y018230D01*
X018197Y018289D01*
X018255Y018423D02*
X018255Y018657D01*
X018255Y018540D02*
X017905Y018540D01*
X018022Y018423D01*
X017963Y018289D02*
X017905Y018230D01*
X017905Y018113D01*
X017963Y018055D01*
X017963Y018792D02*
X018022Y018792D01*
X018080Y018850D01*
X018080Y018967D01*
X018138Y019025D01*
X018197Y019025D01*
X018255Y018967D01*
X018255Y018850D01*
X018197Y018792D01*
X018138Y018792D01*
X018080Y018850D01*
X018080Y018967D02*
X018022Y019025D01*
X017963Y019025D01*
X017905Y018967D01*
X017905Y018850D01*
X017963Y018792D01*
X017963Y019180D02*
X018197Y019180D01*
X018255Y019238D01*
X018255Y019355D01*
X018197Y019414D01*
X018255Y019548D02*
X018255Y019782D01*
X018255Y019665D02*
X017905Y019665D01*
X018022Y019548D01*
X017963Y019414D02*
X017905Y019355D01*
X017905Y019238D01*
X017963Y019180D01*
X018080Y019917D02*
X018080Y020092D01*
X018138Y020150D01*
X018197Y020150D01*
X018255Y020092D01*
X018255Y019975D01*
X018197Y019917D01*
X018080Y019917D01*
X017963Y020033D01*
X017905Y020150D01*
X015277Y019925D02*
X015044Y019925D01*
X015044Y019750D01*
X015161Y019809D01*
X015219Y019809D01*
X015277Y019750D01*
X015277Y019633D01*
X015219Y019575D01*
X015102Y019575D01*
X015044Y019633D01*
X014909Y019633D02*
X014851Y019575D01*
X014734Y019575D01*
X014676Y019633D01*
X014676Y019867D01*
X014734Y019925D01*
X014851Y019925D01*
X014909Y019867D01*
X014547Y019925D02*
X014430Y019925D01*
X014488Y019925D02*
X014488Y019575D01*
X014430Y019575D02*
X014547Y019575D01*
X011304Y017755D02*
X011304Y017405D01*
X011420Y017405D02*
X011187Y017405D01*
X011052Y017463D02*
X011052Y017697D01*
X010994Y017755D01*
X010819Y017755D01*
X010819Y017405D01*
X010994Y017405D01*
X011052Y017463D01*
X011187Y017639D02*
X011304Y017755D01*
X010629Y017157D02*
X010606Y017157D01*
X009275Y017555D02*
X009042Y017555D01*
X009158Y017555D02*
X009158Y017905D01*
X009042Y017789D01*
X008907Y017847D02*
X008907Y017730D01*
X008849Y017672D01*
X008673Y017672D01*
X008673Y017555D02*
X008673Y017905D01*
X008849Y017905D01*
X008907Y017847D01*
X008539Y017905D02*
X008422Y017905D01*
X008480Y017905D02*
X008480Y017613D01*
X008422Y017555D01*
X008363Y017555D01*
X008305Y017613D01*
X007449Y017624D02*
X007216Y017624D01*
X007332Y017624D02*
X007332Y017974D01*
X007216Y017858D01*
X007081Y017974D02*
X006847Y017624D01*
X007081Y017624D02*
X006847Y017974D01*
X010980Y015530D02*
X011155Y015380D01*
X011330Y015530D01*
X010980Y015530D01*
X010980Y015380D02*
X011330Y015380D01*
X009170Y010755D02*
X009054Y010697D01*
X008937Y010580D01*
X009112Y010580D01*
X009170Y010522D01*
X009170Y010463D01*
X009112Y010405D01*
X008995Y010405D01*
X008937Y010463D01*
X008937Y010580D01*
X008802Y010463D02*
X008744Y010405D01*
X008627Y010405D01*
X008569Y010463D01*
X008569Y010697D01*
X008627Y010755D01*
X008744Y010755D01*
X008802Y010697D01*
X008744Y008755D02*
X008627Y008755D01*
X008569Y008697D01*
X008569Y008463D01*
X008627Y008405D01*
X008744Y008405D01*
X008802Y008463D01*
X008937Y008463D02*
X008995Y008405D01*
X009112Y008405D01*
X009170Y008463D01*
X009170Y008580D01*
X009112Y008639D01*
X009054Y008639D01*
X008937Y008580D01*
X008937Y008755D01*
X009170Y008755D01*
X008802Y008697D02*
X008744Y008755D01*
X010305Y008030D02*
X010422Y008030D01*
X010363Y008030D02*
X010363Y007680D01*
X010305Y007680D02*
X010422Y007680D01*
X010551Y007738D02*
X010609Y007680D01*
X010726Y007680D01*
X010784Y007738D01*
X010919Y007680D02*
X011152Y007914D01*
X011152Y007972D01*
X011094Y008030D01*
X010977Y008030D01*
X010919Y007972D01*
X010784Y007972D02*
X010726Y008030D01*
X010609Y008030D01*
X010551Y007972D01*
X010551Y007738D01*
X010919Y007680D02*
X011152Y007680D01*
X010487Y004005D02*
X010312Y003830D01*
X010545Y003830D01*
X010487Y003655D02*
X010487Y004005D01*
X010060Y004005D02*
X010060Y003655D01*
X009944Y003655D02*
X010177Y003655D01*
X010060Y003505D02*
X010060Y003155D01*
X009944Y003155D02*
X010177Y003155D01*
X010312Y003155D02*
X010545Y003155D01*
X010429Y003155D02*
X010429Y003505D01*
X010312Y003389D01*
X010060Y003505D02*
X009944Y003389D01*
X009809Y003447D02*
X009750Y003505D01*
X009634Y003505D01*
X009575Y003447D01*
X009575Y003213D01*
X009634Y003155D01*
X009750Y003155D01*
X009809Y003213D01*
X009750Y003655D02*
X009809Y003713D01*
X009750Y003655D02*
X009634Y003655D01*
X009575Y003713D01*
X009575Y003947D01*
X009634Y004005D01*
X009750Y004005D01*
X009809Y003947D01*
X009944Y003889D02*
X010060Y004005D01*
X011134Y001255D02*
X011075Y001197D01*
X011075Y000963D01*
X011134Y000905D01*
X011250Y000905D01*
X011309Y000963D01*
X011444Y000905D02*
X011677Y000905D01*
X011560Y000905D02*
X011560Y001255D01*
X011444Y001139D01*
X011309Y001197D02*
X011250Y001255D01*
X011134Y001255D01*
X011812Y001255D02*
X011812Y001080D01*
X011929Y001139D01*
X011987Y001139D01*
X012045Y001080D01*
X012045Y000963D01*
X011987Y000905D01*
X011870Y000905D01*
X011812Y000963D01*
X011812Y001255D02*
X012045Y001255D01*
X012644Y001322D02*
X012644Y000972D01*
X012878Y000972D01*
X013013Y000972D02*
X013246Y000972D01*
X013129Y000972D02*
X013129Y001322D01*
X013013Y001205D01*
X007795Y001197D02*
X007737Y001255D01*
X007620Y001255D01*
X007562Y001197D01*
X007427Y001255D02*
X007194Y000905D01*
X007427Y000905D02*
X007194Y001255D01*
X007562Y000905D02*
X007795Y001139D01*
X007795Y001197D01*
X007795Y000905D02*
X007562Y000905D01*
D16*
X006633Y000870D02*
X000901Y000870D01*
X000901Y017941D01*
X006633Y017941D01*
X006633Y000870D01*
X010150Y005780D02*
X010152Y005830D01*
X010158Y005880D01*
X010168Y005929D01*
X010182Y005977D01*
X010199Y006024D01*
X010220Y006069D01*
X010245Y006113D01*
X010273Y006154D01*
X010305Y006193D01*
X010339Y006230D01*
X010376Y006264D01*
X010416Y006294D01*
X010458Y006321D01*
X010502Y006345D01*
X010548Y006366D01*
X010595Y006382D01*
X010643Y006395D01*
X010693Y006404D01*
X010742Y006409D01*
X010793Y006410D01*
X010843Y006407D01*
X010892Y006400D01*
X010941Y006389D01*
X010989Y006374D01*
X011035Y006356D01*
X011080Y006334D01*
X011123Y006308D01*
X011164Y006279D01*
X011203Y006247D01*
X011239Y006212D01*
X011271Y006174D01*
X011301Y006134D01*
X011328Y006091D01*
X011351Y006047D01*
X011370Y006001D01*
X011386Y005953D01*
X011398Y005904D01*
X011406Y005855D01*
X011410Y005805D01*
X011410Y005755D01*
X011406Y005705D01*
X011398Y005656D01*
X011386Y005607D01*
X011370Y005559D01*
X011351Y005513D01*
X011328Y005469D01*
X011301Y005426D01*
X011271Y005386D01*
X011239Y005348D01*
X011203Y005313D01*
X011164Y005281D01*
X011123Y005252D01*
X011080Y005226D01*
X011035Y005204D01*
X010989Y005186D01*
X010941Y005171D01*
X010892Y005160D01*
X010843Y005153D01*
X010793Y005150D01*
X010742Y005151D01*
X010693Y005156D01*
X010643Y005165D01*
X010595Y005178D01*
X010548Y005194D01*
X010502Y005215D01*
X010458Y005239D01*
X010416Y005266D01*
X010376Y005296D01*
X010339Y005330D01*
X010305Y005367D01*
X010273Y005406D01*
X010245Y005447D01*
X010220Y005491D01*
X010199Y005536D01*
X010182Y005583D01*
X010168Y005631D01*
X010158Y005680D01*
X010152Y005730D01*
X010150Y005780D01*
X013128Y004535D02*
X013736Y005143D01*
X016847Y005143D01*
X016882Y005141D01*
X016917Y005136D01*
X016951Y005127D01*
X016983Y005114D01*
X017014Y005098D01*
X017044Y005079D01*
X017071Y005057D01*
X017096Y005032D01*
X017118Y005005D01*
X017137Y004975D01*
X017153Y004944D01*
X017166Y004912D01*
X017175Y004878D01*
X017180Y004843D01*
X017182Y004808D01*
X013856Y003155D02*
X013858Y003227D01*
X013864Y003298D01*
X013874Y003369D01*
X013887Y003439D01*
X013905Y003508D01*
X013926Y003577D01*
X013951Y003644D01*
X013980Y003709D01*
X014013Y003773D01*
X014048Y003835D01*
X014088Y003895D01*
X014130Y003953D01*
X014175Y004008D01*
X014224Y004061D01*
X014275Y004111D01*
X014329Y004158D01*
X014386Y004202D01*
X014445Y004242D01*
X014505Y004280D01*
X014568Y004314D01*
X014633Y004345D01*
X014700Y004372D01*
X014767Y004395D01*
X014836Y004414D01*
X014906Y004430D01*
X014977Y004442D01*
X015048Y004450D01*
X015119Y004454D01*
X015191Y004454D01*
X015262Y004450D01*
X015333Y004442D01*
X015404Y004430D01*
X015474Y004414D01*
X015543Y004395D01*
X015610Y004372D01*
X015677Y004345D01*
X015742Y004314D01*
X015804Y004280D01*
X015865Y004242D01*
X015924Y004202D01*
X015981Y004158D01*
X016035Y004111D01*
X016086Y004061D01*
X016135Y004008D01*
X016180Y003953D01*
X016222Y003895D01*
X016262Y003835D01*
X016297Y003773D01*
X016330Y003709D01*
X016359Y003644D01*
X016384Y003577D01*
X016405Y003508D01*
X016423Y003439D01*
X016436Y003369D01*
X016446Y003298D01*
X016452Y003227D01*
X016454Y003155D01*
X016452Y003083D01*
X016446Y003012D01*
X016436Y002941D01*
X016423Y002871D01*
X016405Y002802D01*
X016384Y002733D01*
X016359Y002666D01*
X016330Y002601D01*
X016297Y002537D01*
X016262Y002475D01*
X016222Y002415D01*
X016180Y002357D01*
X016135Y002302D01*
X016086Y002249D01*
X016035Y002199D01*
X015981Y002152D01*
X015924Y002108D01*
X015865Y002068D01*
X015805Y002030D01*
X015742Y001996D01*
X015677Y001965D01*
X015610Y001938D01*
X015543Y001915D01*
X015474Y001896D01*
X015404Y001880D01*
X015333Y001868D01*
X015262Y001860D01*
X015191Y001856D01*
X015119Y001856D01*
X015048Y001860D01*
X014977Y001868D01*
X014906Y001880D01*
X014836Y001896D01*
X014767Y001915D01*
X014700Y001938D01*
X014633Y001965D01*
X014568Y001996D01*
X014505Y002030D01*
X014445Y002068D01*
X014386Y002108D01*
X014329Y002152D01*
X014275Y002199D01*
X014224Y002249D01*
X014175Y002302D01*
X014130Y002357D01*
X014088Y002415D01*
X014048Y002475D01*
X014013Y002537D01*
X013980Y002601D01*
X013951Y002666D01*
X013926Y002733D01*
X013905Y002802D01*
X013887Y002871D01*
X013874Y002941D01*
X013864Y003012D01*
X013858Y003083D01*
X013856Y003155D01*
X013128Y001529D02*
X013489Y001167D01*
X016575Y001167D01*
X017183Y001775D01*
X010388Y009265D02*
X010390Y009280D01*
X010396Y009293D01*
X010405Y009305D01*
X010416Y009314D01*
X010430Y009320D01*
X010445Y009322D01*
X010460Y009320D01*
X010473Y009314D01*
X010485Y009305D01*
X010494Y009294D01*
X010500Y009280D01*
X010502Y009265D01*
X010500Y009250D01*
X010494Y009237D01*
X010485Y009225D01*
X010474Y009216D01*
X010460Y009210D01*
X010445Y009208D01*
X010430Y009210D01*
X010417Y009216D01*
X010405Y009225D01*
X010396Y009236D01*
X010390Y009250D01*
X010388Y009265D01*
X015455Y017365D02*
X015455Y019945D01*
X016855Y019945D01*
X016855Y017365D01*
X015455Y017365D01*
X002303Y011443D02*
X002303Y007368D01*
X000915Y007368D01*
X000935Y011443D02*
X002303Y011443D01*
D17*
X014855Y019565D02*
X014995Y019425D01*
X014995Y019612D01*
X015135Y019565D02*
X014855Y019565D01*
X017555Y019217D02*
X017555Y019124D01*
X017602Y019077D01*
X017695Y019170D02*
X017695Y019217D01*
X017742Y019264D01*
X017788Y019264D01*
X017835Y019217D01*
X017835Y019124D01*
X017788Y019077D01*
X017695Y019217D02*
X017648Y019264D01*
X017602Y019264D01*
X017555Y019217D01*
X017605Y018354D02*
X017559Y018307D01*
X017559Y018214D01*
X017605Y018167D01*
X017605Y018354D02*
X017652Y018354D01*
X017839Y018167D01*
X017839Y018354D01*
X017835Y017503D02*
X017835Y017316D01*
X017835Y017409D02*
X017555Y017409D01*
X017648Y017316D01*
D18*
X013305Y004966D03*
X017006Y001344D03*
D19*
X013655Y018655D03*
X012655Y018655D03*
X011655Y018655D03*
X010655Y018655D03*
X009655Y018655D03*
X008655Y018655D03*
X007655Y018655D03*
X006655Y018655D03*
X005655Y018655D03*
X004655Y018655D03*
X003655Y018655D03*
X002655Y018655D03*
X001655Y018655D03*
X001655Y019655D03*
X002655Y019655D03*
X003655Y019655D03*
X004655Y019655D03*
X005655Y019655D03*
X006655Y019655D03*
X007655Y019655D03*
X008655Y019655D03*
X009655Y019655D03*
X010655Y019655D03*
X011655Y019655D03*
X012655Y019655D03*
X013655Y019655D03*
M02*
