G75*
G70*
%OFA0B0*%
%FSLAX24Y24*%
%IPPOS*%
%LPD*%
%AMOC8*
5,1,8,0,0,1.08239X$1,22.5*
%
%ADD10C,0.0000*%
%ADD11R,0.0394X0.0433*%
%ADD12R,0.0472X0.0472*%
%ADD13C,0.1181*%
%ADD14C,0.1581*%
%ADD15C,0.0594*%
%ADD16OC8,0.0600*%
%ADD17C,0.0120*%
%ADD18C,0.0100*%
%ADD19C,0.0357*%
%ADD20C,0.0400*%
%ADD21C,0.0436*%
%ADD22C,0.0240*%
D10*
X000655Y000655D02*
X000655Y020340D01*
X020340Y020340D01*
X020340Y000655D01*
X000655Y000655D01*
X010189Y005780D02*
X010191Y005828D01*
X010197Y005876D01*
X010207Y005923D01*
X010220Y005969D01*
X010238Y006014D01*
X010258Y006058D01*
X010283Y006100D01*
X010311Y006139D01*
X010341Y006176D01*
X010375Y006210D01*
X010412Y006242D01*
X010450Y006271D01*
X010491Y006296D01*
X010534Y006318D01*
X010579Y006336D01*
X010625Y006350D01*
X010672Y006361D01*
X010720Y006368D01*
X010768Y006371D01*
X010816Y006370D01*
X010864Y006365D01*
X010912Y006356D01*
X010958Y006344D01*
X011003Y006327D01*
X011047Y006307D01*
X011089Y006284D01*
X011129Y006257D01*
X011167Y006227D01*
X011202Y006194D01*
X011234Y006158D01*
X011264Y006120D01*
X011290Y006079D01*
X011312Y006036D01*
X011332Y005992D01*
X011347Y005947D01*
X011359Y005900D01*
X011367Y005852D01*
X011371Y005804D01*
X011371Y005756D01*
X011367Y005708D01*
X011359Y005660D01*
X011347Y005613D01*
X011332Y005568D01*
X011312Y005524D01*
X011290Y005481D01*
X011264Y005440D01*
X011234Y005402D01*
X011202Y005366D01*
X011167Y005333D01*
X011129Y005303D01*
X011089Y005276D01*
X011047Y005253D01*
X011003Y005233D01*
X010958Y005216D01*
X010912Y005204D01*
X010864Y005195D01*
X010816Y005190D01*
X010768Y005189D01*
X010720Y005192D01*
X010672Y005199D01*
X010625Y005210D01*
X010579Y005224D01*
X010534Y005242D01*
X010491Y005264D01*
X010450Y005289D01*
X010412Y005318D01*
X010375Y005350D01*
X010341Y005384D01*
X010311Y005421D01*
X010283Y005460D01*
X010258Y005502D01*
X010238Y005546D01*
X010220Y005591D01*
X010207Y005637D01*
X010197Y005684D01*
X010191Y005732D01*
X010189Y005780D01*
D11*
X002490Y005155D03*
X001820Y005155D03*
X001820Y007155D03*
X002490Y007155D03*
X002490Y009155D03*
X001820Y009155D03*
X001820Y011155D03*
X002490Y011155D03*
X002490Y013155D03*
X001820Y013155D03*
X001820Y015155D03*
X002490Y015155D03*
D12*
X002569Y014155D03*
X001742Y014155D03*
X001742Y012155D03*
X002569Y012155D03*
X002569Y010155D03*
X001742Y010155D03*
X001742Y008155D03*
X002569Y008155D03*
X002569Y006155D03*
X001742Y006155D03*
X001742Y004155D03*
X002569Y004155D03*
D13*
X007155Y003507D03*
X008407Y003507D03*
X008407Y006456D03*
X007155Y006456D03*
X007155Y009405D03*
X008407Y009405D03*
X008407Y012354D03*
X007155Y012354D03*
X007155Y015303D03*
X008407Y015303D03*
D14*
X001986Y017173D03*
X001986Y001637D03*
D15*
X008983Y001280D02*
X009577Y001280D01*
X009577Y002280D02*
X008983Y002280D01*
D16*
X008655Y018655D03*
X007655Y018655D03*
X006655Y018655D03*
X005655Y018655D03*
X004655Y018655D03*
X003655Y018655D03*
X002655Y018655D03*
X001655Y018655D03*
X001655Y019655D03*
X002655Y019655D03*
X003655Y019655D03*
X004655Y019655D03*
X005655Y019655D03*
X006655Y019655D03*
X007655Y019655D03*
X008655Y019655D03*
X009655Y019655D03*
X009655Y018655D03*
X010655Y018655D03*
X010655Y019655D03*
X011655Y019655D03*
X012655Y019655D03*
X012655Y018655D03*
X011655Y018655D03*
X013655Y018655D03*
X013655Y019655D03*
D17*
X009205Y017335D02*
X009205Y017085D01*
X009085Y016965D01*
X008965Y016965D01*
X009205Y016715D01*
X008965Y016965D02*
X008715Y016965D01*
X008715Y017335D01*
X008715Y017455D01*
X009085Y017455D01*
X009205Y017335D01*
X008715Y017335D02*
X008595Y017455D01*
X008355Y017455D01*
X008235Y017335D01*
X008225Y017085D02*
X008225Y016845D01*
X008345Y016715D01*
X008595Y016715D01*
X008715Y016835D01*
X008715Y016715D01*
X008715Y016835D02*
X008715Y016965D01*
X008475Y017085D02*
X008225Y017085D01*
X007855Y017315D02*
X007725Y017445D01*
X007485Y017445D01*
X007365Y017325D01*
X007365Y017315D02*
X007365Y017195D01*
X007855Y016715D01*
X007365Y016715D01*
X007055Y016835D02*
X006935Y016715D01*
X006695Y016715D01*
X006575Y016835D01*
X006575Y017315D01*
X006695Y017435D01*
X006935Y017435D01*
X007055Y017315D01*
X007055Y016835D01*
X006585Y017315D01*
X006265Y017193D02*
X006023Y017435D01*
X006023Y017428D02*
X006023Y016723D01*
X005783Y016715D02*
X006268Y016715D01*
X005485Y016845D02*
X005355Y016715D01*
X005115Y016715D01*
X004995Y016835D01*
X004995Y016845D02*
X004995Y016965D01*
X004995Y016975D02*
X005105Y017085D01*
X004995Y017195D01*
X004995Y017315D01*
X004995Y017325D02*
X005115Y017445D01*
X005355Y017445D01*
X005485Y017315D01*
X005223Y017085D02*
X005108Y017085D01*
D18*
X004808Y017085D02*
X004785Y017062D01*
X004785Y016888D01*
X004785Y016748D01*
X005028Y016505D01*
X005202Y016505D01*
X005442Y016505D01*
X005565Y016628D01*
X005573Y016636D01*
X005573Y016628D01*
X005696Y016505D01*
X006355Y016505D01*
X006478Y016628D01*
X006478Y016636D01*
X006488Y016625D01*
X006608Y016505D01*
X006782Y016505D01*
X006848Y016505D01*
X007022Y016505D01*
X007155Y016638D01*
X007155Y016628D01*
X007278Y016505D01*
X007769Y016505D01*
X007770Y016504D01*
X007855Y016505D01*
X007942Y016505D01*
X007943Y016506D01*
X007944Y016506D01*
X008004Y016567D01*
X008065Y016628D01*
X008065Y016629D01*
X008066Y016630D01*
X008065Y016708D01*
X008074Y016699D01*
X008135Y016633D01*
X008135Y016628D01*
X008194Y016569D01*
X008250Y016509D01*
X008255Y016509D01*
X008258Y016505D01*
X008341Y016505D01*
X008424Y016502D01*
X008427Y016505D01*
X008508Y016505D01*
X008628Y016505D01*
X008802Y016505D01*
X008925Y016628D01*
X008925Y016704D01*
X009114Y016507D01*
X009288Y016503D01*
X009413Y016624D01*
X009417Y016798D01*
X009318Y016901D01*
X009415Y016998D01*
X009415Y017422D01*
X009292Y017545D01*
X009172Y017665D01*
X008998Y017665D01*
X008628Y017665D01*
X008442Y017665D01*
X008268Y017665D01*
X008035Y017432D01*
X007935Y017532D01*
X007812Y017655D01*
X007572Y017655D01*
X007398Y017655D01*
X007205Y017462D01*
X007142Y017525D01*
X007022Y017645D01*
X006848Y017645D01*
X006608Y017645D01*
X006485Y017522D01*
X006365Y017402D01*
X006365Y017390D01*
X006110Y017645D01*
X005936Y017645D01*
X005813Y017522D01*
X005813Y017515D01*
X005813Y017515D01*
X005813Y016925D01*
X005696Y016925D01*
X005695Y016924D01*
X005695Y016932D01*
X005572Y017055D01*
X005433Y017055D01*
X005433Y017105D01*
X005572Y017105D01*
X005695Y017228D01*
X005695Y017402D01*
X005565Y017532D01*
X005442Y017655D01*
X005202Y017655D01*
X005028Y017655D01*
X004785Y017412D01*
X004785Y017238D01*
X004785Y017108D01*
X004808Y017085D01*
X004785Y017112D02*
X002926Y017112D01*
X002926Y017210D02*
X004785Y017210D01*
X004785Y017309D02*
X002926Y017309D01*
X002926Y017360D02*
X002783Y017706D01*
X002519Y017970D01*
X002173Y018113D01*
X001799Y018113D01*
X001453Y017970D01*
X001188Y017706D01*
X001045Y017360D01*
X001045Y016986D01*
X001188Y016640D01*
X001453Y016375D01*
X001799Y016232D01*
X002173Y016232D01*
X002519Y016375D01*
X002783Y016640D01*
X002926Y016986D01*
X002926Y017360D01*
X002907Y017407D02*
X004785Y017407D01*
X004879Y017506D02*
X002866Y017506D01*
X002825Y017605D02*
X004978Y017605D01*
X004841Y018205D02*
X004469Y018205D01*
X004205Y018469D01*
X004205Y018841D01*
X004469Y019105D01*
X004841Y019105D01*
X005105Y018841D01*
X005105Y018469D01*
X004841Y018205D01*
X004931Y018294D02*
X005379Y018294D01*
X005469Y018205D02*
X005205Y018469D01*
X005205Y018605D01*
X005605Y018605D01*
X005705Y018605D01*
X005705Y018205D01*
X005841Y018205D01*
X006105Y018469D01*
X006105Y018605D01*
X005705Y018605D01*
X005705Y018705D01*
X006105Y018705D01*
X006105Y018841D01*
X005841Y019105D01*
X005705Y019105D01*
X005705Y018705D01*
X005605Y018705D01*
X005605Y018605D01*
X005605Y018205D01*
X005469Y018205D01*
X005605Y018294D02*
X005705Y018294D01*
X005705Y018393D02*
X005605Y018393D01*
X005605Y018491D02*
X005705Y018491D01*
X005705Y018590D02*
X005605Y018590D01*
X005605Y018689D02*
X005105Y018689D01*
X005105Y018787D02*
X005205Y018787D01*
X005205Y018841D02*
X005205Y018705D01*
X005605Y018705D01*
X005605Y019105D01*
X005469Y019105D01*
X005205Y018841D01*
X005249Y018886D02*
X005061Y018886D01*
X004962Y018984D02*
X005348Y018984D01*
X005446Y019083D02*
X004864Y019083D01*
X004841Y019205D02*
X005105Y019469D01*
X005105Y019841D01*
X004841Y020105D01*
X004469Y020105D01*
X004205Y019841D01*
X004205Y019469D01*
X004469Y019205D01*
X004841Y019205D01*
X004916Y019280D02*
X005394Y019280D01*
X005469Y019205D02*
X005205Y019469D01*
X005205Y019841D01*
X005469Y020105D01*
X005841Y020105D01*
X006105Y019841D01*
X006105Y019469D01*
X005841Y019205D01*
X005469Y019205D01*
X005605Y019083D02*
X005705Y019083D01*
X005705Y018984D02*
X005605Y018984D01*
X005605Y018886D02*
X005705Y018886D01*
X005705Y018787D02*
X005605Y018787D01*
X005705Y018689D02*
X006205Y018689D01*
X006205Y018787D02*
X006105Y018787D01*
X006061Y018886D02*
X006249Y018886D01*
X006205Y018841D02*
X006205Y018469D01*
X006469Y018205D01*
X006841Y018205D01*
X007105Y018469D01*
X007105Y018841D01*
X006841Y019105D01*
X006469Y019105D01*
X006205Y018841D01*
X006348Y018984D02*
X005962Y018984D01*
X005864Y019083D02*
X006446Y019083D01*
X006469Y019205D02*
X006841Y019205D01*
X007105Y019469D01*
X007105Y019841D01*
X006841Y020105D01*
X006469Y020105D01*
X006205Y019841D01*
X006205Y019469D01*
X006469Y019205D01*
X006394Y019280D02*
X005916Y019280D01*
X006015Y019378D02*
X006295Y019378D01*
X006205Y019477D02*
X006105Y019477D01*
X006105Y019575D02*
X006205Y019575D01*
X006205Y019674D02*
X006105Y019674D01*
X006105Y019773D02*
X006205Y019773D01*
X006235Y019871D02*
X006076Y019871D01*
X005977Y019970D02*
X006333Y019970D01*
X006432Y020068D02*
X005878Y020068D01*
X005432Y020068D02*
X004878Y020068D01*
X004977Y019970D02*
X005333Y019970D01*
X005235Y019871D02*
X005076Y019871D01*
X005105Y019773D02*
X005205Y019773D01*
X005205Y019674D02*
X005105Y019674D01*
X005105Y019575D02*
X005205Y019575D01*
X005205Y019477D02*
X005105Y019477D01*
X005015Y019378D02*
X005295Y019378D01*
X005205Y018590D02*
X005105Y018590D01*
X005105Y018491D02*
X005205Y018491D01*
X005281Y018393D02*
X005029Y018393D01*
X004379Y018294D02*
X003931Y018294D01*
X003841Y018205D02*
X004105Y018469D01*
X004105Y018841D01*
X003841Y019105D01*
X003469Y019105D01*
X003205Y018841D01*
X003205Y018469D01*
X003469Y018205D01*
X003841Y018205D01*
X004029Y018393D02*
X004281Y018393D01*
X004205Y018491D02*
X004105Y018491D01*
X004105Y018590D02*
X004205Y018590D01*
X004205Y018689D02*
X004105Y018689D01*
X004105Y018787D02*
X004205Y018787D01*
X004249Y018886D02*
X004061Y018886D01*
X003962Y018984D02*
X004348Y018984D01*
X004446Y019083D02*
X003864Y019083D01*
X003841Y019205D02*
X003705Y019205D01*
X003705Y019605D01*
X003605Y019605D01*
X003605Y019205D01*
X003469Y019205D01*
X003205Y019469D01*
X003205Y019605D01*
X003605Y019605D01*
X003605Y019705D01*
X003205Y019705D01*
X003205Y019841D01*
X003469Y020105D01*
X003605Y020105D01*
X003605Y019705D01*
X003705Y019705D01*
X004105Y019705D01*
X004105Y019841D01*
X003841Y020105D01*
X003705Y020105D01*
X003705Y019705D01*
X003705Y019605D01*
X004105Y019605D01*
X004105Y019469D01*
X003841Y019205D01*
X003916Y019280D02*
X004394Y019280D01*
X004295Y019378D02*
X004015Y019378D01*
X004105Y019477D02*
X004205Y019477D01*
X004205Y019575D02*
X004105Y019575D01*
X004205Y019674D02*
X003705Y019674D01*
X003705Y019773D02*
X003605Y019773D01*
X003605Y019871D02*
X003705Y019871D01*
X003705Y019970D02*
X003605Y019970D01*
X003605Y020068D02*
X003705Y020068D01*
X003878Y020068D02*
X004432Y020068D01*
X004333Y019970D02*
X003977Y019970D01*
X004076Y019871D02*
X004235Y019871D01*
X004205Y019773D02*
X004105Y019773D01*
X003705Y019575D02*
X003605Y019575D01*
X003605Y019477D02*
X003705Y019477D01*
X003705Y019378D02*
X003605Y019378D01*
X003605Y019280D02*
X003705Y019280D01*
X003394Y019280D02*
X002916Y019280D01*
X002841Y019205D02*
X003105Y019469D01*
X003105Y019841D01*
X002841Y020105D01*
X002469Y020105D01*
X002205Y019841D01*
X002205Y019469D01*
X002469Y019205D01*
X002841Y019205D01*
X002841Y019105D02*
X002469Y019105D01*
X002205Y018841D01*
X002205Y018469D01*
X002469Y018205D01*
X002841Y018205D01*
X003105Y018469D01*
X003105Y018841D01*
X002841Y019105D01*
X002864Y019083D02*
X003446Y019083D01*
X003348Y018984D02*
X002962Y018984D01*
X003061Y018886D02*
X003249Y018886D01*
X003205Y018787D02*
X003105Y018787D01*
X003105Y018689D02*
X003205Y018689D01*
X003205Y018590D02*
X003105Y018590D01*
X003105Y018491D02*
X003205Y018491D01*
X003281Y018393D02*
X003029Y018393D01*
X002931Y018294D02*
X003379Y018294D01*
X002784Y017703D02*
X010455Y017703D01*
X010455Y017605D02*
X009233Y017605D01*
X009331Y017506D02*
X010455Y017506D01*
X010455Y017407D02*
X009415Y017407D01*
X009415Y017309D02*
X010455Y017309D01*
X010455Y017210D02*
X009415Y017210D01*
X009415Y017112D02*
X010455Y017112D01*
X010455Y017013D02*
X009415Y017013D01*
X009332Y016915D02*
X010455Y016915D01*
X010455Y016816D02*
X009399Y016816D01*
X009415Y016718D02*
X010455Y016718D01*
X010455Y016619D02*
X009408Y016619D01*
X009306Y016521D02*
X010455Y016521D01*
X010455Y016422D02*
X002565Y016422D01*
X002664Y016521D02*
X005013Y016521D01*
X004914Y016619D02*
X002762Y016619D01*
X002815Y016718D02*
X004816Y016718D01*
X004785Y016816D02*
X002856Y016816D01*
X002897Y016915D02*
X004785Y016915D01*
X004785Y017013D02*
X002926Y017013D01*
X002393Y016324D02*
X010455Y016324D01*
X010455Y016225D02*
X000805Y016225D01*
X000805Y016324D02*
X001578Y016324D01*
X001406Y016422D02*
X000805Y016422D01*
X000805Y016521D02*
X001308Y016521D01*
X001209Y016619D02*
X000805Y016619D01*
X000805Y016718D02*
X001156Y016718D01*
X001115Y016816D02*
X000805Y016816D01*
X000805Y016915D02*
X001075Y016915D01*
X001045Y017013D02*
X000805Y017013D01*
X000805Y017112D02*
X001045Y017112D01*
X001045Y017210D02*
X000805Y017210D01*
X000805Y017309D02*
X001045Y017309D01*
X001065Y017407D02*
X000805Y017407D01*
X000805Y017506D02*
X001106Y017506D01*
X001147Y017605D02*
X000805Y017605D01*
X000805Y017703D02*
X001187Y017703D01*
X001285Y017802D02*
X000805Y017802D01*
X000805Y017900D02*
X001383Y017900D01*
X001522Y017999D02*
X000805Y017999D01*
X000805Y018097D02*
X001760Y018097D01*
X001841Y018205D02*
X002105Y018469D01*
X002105Y018841D01*
X001841Y019105D01*
X001469Y019105D01*
X001205Y018841D01*
X001205Y018469D01*
X001469Y018205D01*
X001841Y018205D01*
X001931Y018294D02*
X002379Y018294D01*
X002281Y018393D02*
X002029Y018393D01*
X002105Y018491D02*
X002205Y018491D01*
X002205Y018590D02*
X002105Y018590D01*
X002105Y018689D02*
X002205Y018689D01*
X002205Y018787D02*
X002105Y018787D01*
X002061Y018886D02*
X002249Y018886D01*
X002348Y018984D02*
X001962Y018984D01*
X001864Y019083D02*
X002446Y019083D01*
X002394Y019280D02*
X001916Y019280D01*
X001841Y019205D02*
X002105Y019469D01*
X002105Y019841D01*
X001841Y020105D01*
X001469Y020105D01*
X001205Y019841D01*
X001205Y019469D01*
X001469Y019205D01*
X001841Y019205D01*
X002015Y019378D02*
X002295Y019378D01*
X002205Y019477D02*
X002105Y019477D01*
X002105Y019575D02*
X002205Y019575D01*
X002205Y019674D02*
X002105Y019674D01*
X002105Y019773D02*
X002205Y019773D01*
X002235Y019871D02*
X002076Y019871D01*
X001977Y019970D02*
X002333Y019970D01*
X002432Y020068D02*
X001878Y020068D01*
X001432Y020068D02*
X000805Y020068D01*
X000805Y019970D02*
X001333Y019970D01*
X001235Y019871D02*
X000805Y019871D01*
X000805Y019773D02*
X001205Y019773D01*
X001205Y019674D02*
X000805Y019674D01*
X000805Y019575D02*
X001205Y019575D01*
X001205Y019477D02*
X000805Y019477D01*
X000805Y019378D02*
X001295Y019378D01*
X001394Y019280D02*
X000805Y019280D01*
X000805Y019181D02*
X011846Y019181D01*
X011822Y019205D02*
X011955Y019072D01*
X011955Y018991D01*
X011841Y019105D01*
X011469Y019105D01*
X011205Y018841D01*
X011205Y018469D01*
X011455Y018219D01*
X011455Y014572D01*
X011572Y014455D01*
X013172Y012855D01*
X012738Y012855D01*
X010855Y014738D01*
X010855Y018219D01*
X011105Y018469D01*
X011105Y018841D01*
X010841Y019105D01*
X010469Y019105D01*
X010205Y018841D01*
X010205Y018469D01*
X010455Y018219D01*
X010455Y014572D01*
X010572Y014455D01*
X010572Y014455D01*
X012455Y012572D01*
X012572Y012455D01*
X015641Y012455D01*
X015719Y012377D01*
X015840Y012327D01*
X015970Y012327D01*
X016091Y012377D01*
X016184Y012469D01*
X016234Y012590D01*
X016234Y012720D01*
X016184Y012841D01*
X016091Y012934D01*
X015970Y012984D01*
X015840Y012984D01*
X015721Y012934D01*
X015734Y012965D01*
X015734Y013095D01*
X015688Y013205D01*
X016641Y013205D01*
X016719Y013127D01*
X016840Y013077D01*
X016970Y013077D01*
X017091Y013127D01*
X017184Y013219D01*
X017234Y013340D01*
X017234Y013470D01*
X017184Y013591D01*
X017091Y013684D01*
X016970Y013734D01*
X016840Y013734D01*
X016721Y013684D01*
X016734Y013715D01*
X016734Y013845D01*
X016684Y013966D01*
X016591Y014059D01*
X016470Y014109D01*
X016340Y014109D01*
X016219Y014059D01*
X016141Y013980D01*
X015188Y013980D01*
X015234Y014090D01*
X015234Y014220D01*
X015184Y014341D01*
X015091Y014434D01*
X014970Y014484D01*
X014840Y014484D01*
X014719Y014434D01*
X014641Y014355D01*
X014113Y014355D01*
X012855Y015613D01*
X012855Y017197D01*
X013238Y017580D01*
X013355Y017697D01*
X013355Y018319D01*
X013469Y018205D01*
X013605Y018205D01*
X013605Y018605D01*
X013705Y018605D01*
X013705Y018205D01*
X013841Y018205D01*
X014105Y018469D01*
X014105Y018605D01*
X013705Y018605D01*
X013705Y018705D01*
X013605Y018705D01*
X013605Y019105D01*
X013469Y019105D01*
X013355Y018991D01*
X013355Y019238D01*
X013238Y019355D01*
X013105Y019488D01*
X013105Y019841D01*
X012841Y020105D01*
X012469Y020105D01*
X012205Y019841D01*
X012205Y019469D01*
X012469Y019205D01*
X012822Y019205D01*
X012955Y019072D01*
X012955Y018991D01*
X012841Y019105D01*
X012469Y019105D01*
X012355Y018991D01*
X012355Y019072D01*
X012355Y019238D01*
X012105Y019488D01*
X012105Y019841D01*
X011841Y020105D01*
X011469Y020105D01*
X011205Y019841D01*
X011205Y019469D01*
X011469Y019205D01*
X011822Y019205D01*
X011864Y019083D02*
X011945Y019083D01*
X012155Y019155D02*
X011655Y019655D01*
X011977Y019970D02*
X012333Y019970D01*
X012432Y020068D02*
X011878Y020068D01*
X012076Y019871D02*
X012235Y019871D01*
X012205Y019773D02*
X012105Y019773D01*
X012105Y019674D02*
X012205Y019674D01*
X012205Y019575D02*
X012105Y019575D01*
X012116Y019477D02*
X012205Y019477D01*
X012215Y019378D02*
X012295Y019378D01*
X012313Y019280D02*
X012394Y019280D01*
X012355Y019181D02*
X012846Y019181D01*
X012864Y019083D02*
X012945Y019083D01*
X013155Y019155D02*
X012655Y019655D01*
X012977Y019970D02*
X013333Y019970D01*
X013432Y020068D02*
X012878Y020068D01*
X013076Y019871D02*
X013235Y019871D01*
X013205Y019841D02*
X013205Y019469D01*
X013469Y019205D01*
X013841Y019205D01*
X014105Y019469D01*
X014105Y019841D01*
X013841Y020105D01*
X013469Y020105D01*
X013205Y019841D01*
X013205Y019773D02*
X013105Y019773D01*
X013105Y019674D02*
X013205Y019674D01*
X013205Y019575D02*
X013105Y019575D01*
X013116Y019477D02*
X013205Y019477D01*
X013215Y019378D02*
X013295Y019378D01*
X013238Y019355D02*
X013238Y019355D01*
X013313Y019280D02*
X013394Y019280D01*
X013355Y019181D02*
X016247Y019181D01*
X016346Y019083D02*
X013864Y019083D01*
X013841Y019105D02*
X013705Y019105D01*
X013705Y018705D01*
X014105Y018705D01*
X014105Y018841D01*
X013841Y019105D01*
X013705Y019083D02*
X013605Y019083D01*
X013605Y018984D02*
X013705Y018984D01*
X013705Y018886D02*
X013605Y018886D01*
X013605Y018787D02*
X013705Y018787D01*
X013705Y018689D02*
X016740Y018689D01*
X016641Y018787D02*
X014105Y018787D01*
X014061Y018886D02*
X016543Y018886D01*
X016444Y018984D02*
X013962Y018984D01*
X013916Y019280D02*
X016149Y019280D01*
X016141Y019287D02*
X018885Y016543D01*
X018885Y003155D01*
X018843Y003113D01*
X018787Y002978D01*
X018787Y002832D01*
X018843Y002697D01*
X018947Y002593D01*
X019082Y002537D01*
X019228Y002537D01*
X019363Y002593D01*
X019467Y002697D01*
X019523Y002832D01*
X019523Y002978D01*
X019467Y003113D01*
X019425Y003155D01*
X019425Y016601D01*
X019425Y016709D01*
X019384Y016808D01*
X016523Y019669D01*
X016523Y019728D01*
X016467Y019863D01*
X016363Y019967D01*
X016228Y020023D01*
X016082Y020023D01*
X015947Y019967D01*
X015843Y019863D01*
X015787Y019728D01*
X015787Y019582D01*
X015843Y019447D01*
X015947Y019343D01*
X016082Y019287D01*
X016141Y019287D01*
X015912Y019378D02*
X014015Y019378D01*
X014105Y019477D02*
X015831Y019477D01*
X015790Y019575D02*
X014105Y019575D01*
X014105Y019674D02*
X015787Y019674D01*
X015806Y019773D02*
X014105Y019773D01*
X014076Y019871D02*
X015851Y019871D01*
X015953Y019970D02*
X013977Y019970D01*
X013878Y020068D02*
X020190Y020068D01*
X020190Y019970D02*
X016357Y019970D01*
X016459Y019871D02*
X020190Y019871D01*
X020190Y019773D02*
X016505Y019773D01*
X016523Y019674D02*
X020190Y019674D01*
X020190Y019575D02*
X016617Y019575D01*
X016715Y019477D02*
X020190Y019477D01*
X020190Y019378D02*
X016814Y019378D01*
X016912Y019280D02*
X020190Y019280D01*
X020190Y019181D02*
X017011Y019181D01*
X017109Y019083D02*
X020190Y019083D01*
X020190Y018984D02*
X017208Y018984D01*
X017306Y018886D02*
X020190Y018886D01*
X020190Y018787D02*
X017405Y018787D01*
X017503Y018689D02*
X020190Y018689D01*
X020190Y018590D02*
X017602Y018590D01*
X017701Y018491D02*
X020190Y018491D01*
X020190Y018393D02*
X017799Y018393D01*
X017898Y018294D02*
X020190Y018294D01*
X020190Y018196D02*
X017996Y018196D01*
X018095Y018097D02*
X020190Y018097D01*
X020190Y017999D02*
X018193Y017999D01*
X018292Y017900D02*
X020190Y017900D01*
X020190Y017802D02*
X018390Y017802D01*
X018489Y017703D02*
X020190Y017703D01*
X020190Y017605D02*
X018587Y017605D01*
X018686Y017506D02*
X020190Y017506D01*
X020190Y017407D02*
X018785Y017407D01*
X018883Y017309D02*
X020190Y017309D01*
X020190Y017210D02*
X018982Y017210D01*
X019080Y017112D02*
X020190Y017112D01*
X020190Y017013D02*
X019179Y017013D01*
X019277Y016915D02*
X020190Y016915D01*
X020190Y016816D02*
X019376Y016816D01*
X019421Y016718D02*
X020190Y016718D01*
X020190Y016619D02*
X019425Y016619D01*
X019425Y016521D02*
X020190Y016521D01*
X020190Y016422D02*
X019425Y016422D01*
X019425Y016324D02*
X020190Y016324D01*
X020190Y016225D02*
X019425Y016225D01*
X019425Y016126D02*
X020190Y016126D01*
X020190Y016028D02*
X019425Y016028D01*
X019425Y015929D02*
X020190Y015929D01*
X020190Y015831D02*
X019425Y015831D01*
X019425Y015732D02*
X020190Y015732D01*
X020190Y015634D02*
X019425Y015634D01*
X019425Y015535D02*
X020190Y015535D01*
X020190Y015437D02*
X019425Y015437D01*
X019425Y015338D02*
X020190Y015338D01*
X020190Y015240D02*
X019425Y015240D01*
X019425Y015141D02*
X020190Y015141D01*
X020190Y015042D02*
X019425Y015042D01*
X019425Y014944D02*
X020190Y014944D01*
X020190Y014845D02*
X019425Y014845D01*
X019425Y014747D02*
X020190Y014747D01*
X020190Y014648D02*
X019425Y014648D01*
X019425Y014550D02*
X020190Y014550D01*
X020190Y014451D02*
X019425Y014451D01*
X019425Y014353D02*
X020190Y014353D01*
X020190Y014254D02*
X019425Y014254D01*
X019425Y014156D02*
X020190Y014156D01*
X020190Y014057D02*
X019425Y014057D01*
X019425Y013958D02*
X020190Y013958D01*
X020190Y013860D02*
X019425Y013860D01*
X019425Y013761D02*
X020190Y013761D01*
X020190Y013663D02*
X019425Y013663D01*
X019425Y013564D02*
X020190Y013564D01*
X020190Y013466D02*
X019425Y013466D01*
X019425Y013367D02*
X020190Y013367D01*
X020190Y013269D02*
X019425Y013269D01*
X019425Y013170D02*
X020190Y013170D01*
X020190Y013072D02*
X019425Y013072D01*
X019425Y012973D02*
X020190Y012973D01*
X020190Y012874D02*
X019425Y012874D01*
X019425Y012776D02*
X020190Y012776D01*
X020190Y012677D02*
X019425Y012677D01*
X019425Y012579D02*
X020190Y012579D01*
X020190Y012480D02*
X019425Y012480D01*
X019425Y012382D02*
X020190Y012382D01*
X020190Y012283D02*
X019425Y012283D01*
X019425Y012185D02*
X020190Y012185D01*
X020190Y012086D02*
X019425Y012086D01*
X019425Y011988D02*
X020190Y011988D01*
X020190Y011889D02*
X019425Y011889D01*
X019425Y011791D02*
X020190Y011791D01*
X020190Y011692D02*
X019425Y011692D01*
X019425Y011593D02*
X020190Y011593D01*
X020190Y011495D02*
X019425Y011495D01*
X019425Y011396D02*
X020190Y011396D01*
X020190Y011298D02*
X019425Y011298D01*
X019425Y011199D02*
X020190Y011199D01*
X020190Y011101D02*
X019425Y011101D01*
X019425Y011002D02*
X020190Y011002D01*
X020190Y010904D02*
X019425Y010904D01*
X019425Y010805D02*
X020190Y010805D01*
X020190Y010707D02*
X019425Y010707D01*
X019425Y010608D02*
X020190Y010608D01*
X020190Y010509D02*
X019425Y010509D01*
X019425Y010411D02*
X020190Y010411D01*
X020190Y010312D02*
X019425Y010312D01*
X019425Y010214D02*
X020190Y010214D01*
X020190Y010115D02*
X019425Y010115D01*
X019425Y010017D02*
X020190Y010017D01*
X020190Y009918D02*
X019425Y009918D01*
X019425Y009820D02*
X020190Y009820D01*
X020190Y009721D02*
X019425Y009721D01*
X019425Y009623D02*
X020190Y009623D01*
X020190Y009524D02*
X019425Y009524D01*
X019425Y009425D02*
X020190Y009425D01*
X020190Y009327D02*
X019425Y009327D01*
X019425Y009228D02*
X020190Y009228D01*
X020190Y009130D02*
X019425Y009130D01*
X019425Y009031D02*
X020190Y009031D01*
X020190Y008933D02*
X019425Y008933D01*
X019425Y008834D02*
X020190Y008834D01*
X020190Y008736D02*
X019425Y008736D01*
X019425Y008637D02*
X020190Y008637D01*
X020190Y008539D02*
X019425Y008539D01*
X019425Y008440D02*
X020190Y008440D01*
X020190Y008341D02*
X019425Y008341D01*
X019425Y008243D02*
X020190Y008243D01*
X020190Y008144D02*
X019425Y008144D01*
X019425Y008046D02*
X020190Y008046D01*
X020190Y007947D02*
X019425Y007947D01*
X019425Y007849D02*
X020190Y007849D01*
X020190Y007750D02*
X019425Y007750D01*
X019425Y007652D02*
X020190Y007652D01*
X020190Y007553D02*
X019425Y007553D01*
X019425Y007455D02*
X020190Y007455D01*
X020190Y007356D02*
X019425Y007356D01*
X019425Y007258D02*
X020190Y007258D01*
X020190Y007159D02*
X019425Y007159D01*
X019425Y007060D02*
X020190Y007060D01*
X020190Y006962D02*
X019425Y006962D01*
X019425Y006863D02*
X020190Y006863D01*
X020190Y006765D02*
X019425Y006765D01*
X019425Y006666D02*
X020190Y006666D01*
X020190Y006568D02*
X019425Y006568D01*
X019425Y006469D02*
X020190Y006469D01*
X020190Y006371D02*
X019425Y006371D01*
X019425Y006272D02*
X020190Y006272D01*
X020190Y006174D02*
X019425Y006174D01*
X019425Y006075D02*
X020190Y006075D01*
X020190Y005976D02*
X019425Y005976D01*
X019425Y005878D02*
X020190Y005878D01*
X020190Y005779D02*
X019425Y005779D01*
X019425Y005681D02*
X020190Y005681D01*
X020190Y005582D02*
X019425Y005582D01*
X019425Y005484D02*
X020190Y005484D01*
X020190Y005385D02*
X019425Y005385D01*
X019425Y005287D02*
X020190Y005287D01*
X020190Y005188D02*
X019425Y005188D01*
X019425Y005090D02*
X020190Y005090D01*
X020190Y004991D02*
X019425Y004991D01*
X019425Y004892D02*
X020190Y004892D01*
X020190Y004794D02*
X019425Y004794D01*
X019425Y004695D02*
X020190Y004695D01*
X020190Y004597D02*
X019425Y004597D01*
X019425Y004498D02*
X020190Y004498D01*
X020190Y004400D02*
X019425Y004400D01*
X019425Y004301D02*
X020190Y004301D01*
X020190Y004203D02*
X019425Y004203D01*
X019425Y004104D02*
X020190Y004104D01*
X020190Y004006D02*
X019425Y004006D01*
X019425Y003907D02*
X020190Y003907D01*
X020190Y003809D02*
X019425Y003809D01*
X019425Y003710D02*
X020190Y003710D01*
X020190Y003611D02*
X019425Y003611D01*
X019425Y003513D02*
X020190Y003513D01*
X020190Y003414D02*
X019425Y003414D01*
X019425Y003316D02*
X020190Y003316D01*
X020190Y003217D02*
X019425Y003217D01*
X019462Y003119D02*
X020190Y003119D01*
X020190Y003020D02*
X019506Y003020D01*
X019523Y002922D02*
X020190Y002922D01*
X020190Y002823D02*
X019519Y002823D01*
X019478Y002725D02*
X020190Y002725D01*
X020190Y002626D02*
X019396Y002626D01*
X018914Y002626D02*
X012860Y002626D01*
X012850Y002630D02*
X012710Y002630D01*
X009859Y002630D01*
X009830Y002659D01*
X009666Y002727D01*
X008894Y002727D01*
X008730Y002659D01*
X008604Y002533D01*
X008536Y002369D01*
X008536Y002191D01*
X008604Y002027D01*
X008730Y001901D01*
X008894Y001833D01*
X009666Y001833D01*
X009830Y001901D01*
X009859Y001930D01*
X012610Y001930D01*
X012697Y001843D01*
X012832Y001787D01*
X012978Y001787D01*
X013113Y001843D01*
X013217Y001947D01*
X013273Y002082D01*
X013273Y002228D01*
X013217Y002363D01*
X013113Y002467D01*
X013070Y002485D01*
X012978Y002577D01*
X012850Y002630D01*
X013028Y002527D02*
X020190Y002527D01*
X020190Y002429D02*
X013151Y002429D01*
X013231Y002330D02*
X020190Y002330D01*
X020190Y002232D02*
X013271Y002232D01*
X013273Y002133D02*
X020190Y002133D01*
X020190Y002035D02*
X013253Y002035D01*
X013206Y001936D02*
X020190Y001936D01*
X020190Y001838D02*
X013100Y001838D01*
X012710Y001838D02*
X009676Y001838D01*
X009666Y001727D02*
X008894Y001727D01*
X008730Y001659D01*
X008701Y001630D01*
X006675Y001630D01*
X005505Y002800D01*
X005505Y004522D01*
X006415Y003613D01*
X006415Y003360D01*
X006527Y003088D01*
X006736Y002880D01*
X007008Y002767D01*
X007302Y002767D01*
X007575Y002880D01*
X007781Y003086D01*
X007988Y002880D01*
X008260Y002767D01*
X008554Y002767D01*
X008827Y002880D01*
X009035Y003088D01*
X009148Y003360D01*
X009148Y003655D01*
X009035Y003927D01*
X008827Y004135D01*
X008554Y004248D01*
X008260Y004248D01*
X007988Y004135D01*
X007781Y003929D01*
X007575Y004135D01*
X007302Y004248D01*
X007008Y004248D01*
X006736Y004135D01*
X006597Y003996D01*
X005855Y004738D01*
X005855Y010072D01*
X005955Y010172D01*
X005955Y007238D01*
X005955Y007072D01*
X006417Y006610D01*
X006415Y006604D01*
X006415Y006309D01*
X006527Y006037D01*
X006736Y005828D01*
X007008Y005716D01*
X007302Y005716D01*
X007575Y005828D01*
X007781Y006035D01*
X007988Y005828D01*
X008260Y005716D01*
X008554Y005716D01*
X008827Y005828D01*
X009035Y006037D01*
X009148Y006309D01*
X009148Y006604D01*
X009035Y006876D01*
X008827Y007084D01*
X008554Y007197D01*
X008260Y007197D01*
X007988Y007084D01*
X007781Y006878D01*
X007575Y007084D01*
X007302Y007197D01*
X007008Y007197D01*
X006736Y007084D01*
X006622Y006971D01*
X006355Y007238D01*
X006355Y010072D01*
X006613Y010330D01*
X010197Y010330D01*
X010577Y009951D01*
X010577Y009840D01*
X010622Y009730D01*
X010479Y009730D01*
X010470Y009734D01*
X010340Y009734D01*
X010219Y009684D01*
X010127Y009591D01*
X010077Y009470D01*
X010077Y009340D01*
X010127Y009219D01*
X010219Y009127D01*
X010340Y009077D01*
X010470Y009077D01*
X010591Y009127D01*
X010684Y009219D01*
X010729Y009330D01*
X011447Y009330D01*
X011581Y009330D01*
X011627Y009219D01*
X011719Y009127D01*
X011840Y009077D01*
X011970Y009077D01*
X012091Y009127D01*
X012170Y009205D01*
X012863Y009205D01*
X012980Y009322D01*
X013110Y009452D01*
X013220Y009452D01*
X013341Y009502D01*
X013434Y009594D01*
X013484Y009715D01*
X013484Y009845D01*
X013434Y009966D01*
X013370Y010030D01*
X013434Y010094D01*
X013484Y010215D01*
X013484Y010345D01*
X013434Y010466D01*
X013341Y010559D01*
X013220Y010609D01*
X013090Y010609D01*
X012969Y010559D01*
X012877Y010466D01*
X012827Y010345D01*
X012827Y010273D01*
X012460Y009980D01*
X011729Y009980D01*
X011684Y010091D01*
X011591Y010184D01*
X011470Y010234D01*
X011360Y010234D01*
X010730Y010863D01*
X010613Y010980D01*
X006363Y010980D01*
X006197Y010980D01*
X005572Y010355D01*
X005505Y010288D01*
X005505Y011510D01*
X005999Y012004D01*
X006499Y012004D01*
X006527Y011934D01*
X006736Y011726D01*
X007008Y011613D01*
X007302Y011613D01*
X007575Y011726D01*
X007781Y011933D01*
X007988Y011726D01*
X008260Y011613D01*
X008554Y011613D01*
X008827Y011726D01*
X009035Y011934D01*
X009148Y012207D01*
X009148Y012501D01*
X009035Y012773D01*
X008827Y012982D01*
X008554Y013094D01*
X008260Y013094D01*
X007988Y012982D01*
X007781Y012775D01*
X007575Y012982D01*
X007302Y013094D01*
X007008Y013094D01*
X006736Y012982D01*
X006527Y012773D01*
X006499Y012704D01*
X005924Y012704D01*
X005784Y012704D01*
X005656Y012651D01*
X004957Y011952D01*
X004858Y011853D01*
X004855Y011845D01*
X004855Y013238D01*
X004738Y013355D01*
X003738Y014355D01*
X003572Y014355D01*
X002955Y014355D01*
X002955Y014453D01*
X002867Y014541D01*
X002270Y014541D01*
X002182Y014453D01*
X002182Y013857D01*
X002270Y013769D01*
X002867Y013769D01*
X002955Y013857D01*
X002955Y013955D01*
X003572Y013955D01*
X004455Y013072D01*
X004455Y011638D01*
X003738Y012355D01*
X003572Y012355D01*
X002955Y012355D01*
X002955Y012453D01*
X002867Y012541D01*
X002270Y012541D01*
X002182Y012453D01*
X002182Y011857D01*
X002270Y011769D01*
X002867Y011769D01*
X002955Y011857D01*
X002955Y011955D01*
X003572Y011955D01*
X004205Y011322D01*
X004205Y010789D01*
X004184Y010841D01*
X004091Y010934D01*
X003970Y010984D01*
X003859Y010984D01*
X003605Y011238D01*
X003488Y011355D01*
X002837Y011355D01*
X002837Y011434D01*
X002749Y011522D01*
X002231Y011522D01*
X002155Y011446D01*
X002079Y011522D01*
X001561Y011522D01*
X001474Y011434D01*
X001474Y010876D01*
X001542Y010808D01*
X001542Y010541D01*
X001443Y010541D01*
X001356Y010453D01*
X001356Y009857D01*
X001443Y009769D01*
X002040Y009769D01*
X002128Y009857D01*
X002128Y010453D01*
X002040Y010541D01*
X001942Y010541D01*
X001942Y010789D01*
X002079Y010789D01*
X002155Y010864D01*
X002231Y010789D01*
X002749Y010789D01*
X002837Y010876D01*
X002837Y010955D01*
X003322Y010955D01*
X003577Y010701D01*
X003577Y010590D01*
X003627Y010469D01*
X003719Y010377D01*
X003840Y010327D01*
X003970Y010327D01*
X004091Y010377D01*
X004184Y010469D01*
X004205Y010521D01*
X004205Y008789D01*
X004184Y008841D01*
X004091Y008934D01*
X003970Y008984D01*
X003860Y008984D01*
X003516Y009327D01*
X003595Y009327D01*
X003716Y009377D01*
X003809Y009469D01*
X003859Y009590D01*
X003859Y009720D01*
X003809Y009841D01*
X003716Y009934D01*
X003595Y009984D01*
X003485Y009984D01*
X003113Y010355D01*
X002955Y010355D01*
X002955Y010453D01*
X002867Y010541D01*
X002270Y010541D01*
X002182Y010453D01*
X002182Y009857D01*
X002270Y009769D01*
X002867Y009769D01*
X002955Y009857D01*
X002955Y009948D01*
X003202Y009701D01*
X003202Y009590D01*
X003252Y009469D01*
X003344Y009377D01*
X003396Y009355D01*
X003322Y009355D01*
X002837Y009355D01*
X002837Y009434D01*
X002749Y009522D01*
X002231Y009522D01*
X002155Y009446D01*
X002079Y009522D01*
X001561Y009522D01*
X001474Y009434D01*
X001474Y008876D01*
X001542Y008808D01*
X001542Y008541D01*
X001443Y008541D01*
X001356Y008453D01*
X001356Y007857D01*
X001443Y007769D01*
X002040Y007769D01*
X002128Y007857D01*
X002128Y008453D01*
X002040Y008541D01*
X001942Y008541D01*
X001942Y008789D01*
X002079Y008789D01*
X002155Y008864D01*
X002231Y008789D01*
X002749Y008789D01*
X002837Y008876D01*
X002837Y008955D01*
X003322Y008955D01*
X003577Y008701D01*
X003577Y008590D01*
X003627Y008469D01*
X003719Y008377D01*
X003840Y008327D01*
X003970Y008327D01*
X004091Y008377D01*
X004184Y008469D01*
X004205Y008521D01*
X004205Y008488D01*
X003955Y008238D01*
X003955Y008072D01*
X003955Y006795D01*
X003877Y006716D01*
X003827Y006595D01*
X003827Y006465D01*
X003877Y006344D01*
X003969Y006252D01*
X004090Y006202D01*
X004220Y006202D01*
X004341Y006252D01*
X004434Y006344D01*
X004484Y006465D01*
X004484Y006595D01*
X004434Y006716D01*
X004355Y006795D01*
X004355Y007271D01*
X004377Y007219D01*
X004469Y007127D01*
X004590Y007077D01*
X004720Y007077D01*
X004805Y007112D01*
X004805Y002725D01*
X004805Y002585D01*
X004858Y002457D01*
X006332Y000983D01*
X006460Y000930D01*
X006600Y000930D01*
X008701Y000930D01*
X008730Y000901D01*
X008894Y000833D01*
X009666Y000833D01*
X009830Y000901D01*
X009956Y001027D01*
X010024Y001191D01*
X010024Y001369D01*
X009956Y001533D01*
X009830Y001659D01*
X009666Y001727D01*
X009848Y001641D02*
X020190Y001641D01*
X020190Y001739D02*
X006566Y001739D01*
X006468Y001838D02*
X008884Y001838D01*
X008695Y001936D02*
X006369Y001936D01*
X006270Y002035D02*
X008601Y002035D01*
X008560Y002133D02*
X006172Y002133D01*
X006073Y002232D02*
X008536Y002232D01*
X008536Y002330D02*
X005975Y002330D01*
X005876Y002429D02*
X008561Y002429D01*
X008602Y002527D02*
X005778Y002527D01*
X005679Y002626D02*
X008697Y002626D01*
X008690Y002823D02*
X018791Y002823D01*
X018787Y002922D02*
X008869Y002922D01*
X008967Y003020D02*
X018805Y003020D01*
X018849Y003119D02*
X009048Y003119D01*
X009088Y003217D02*
X018885Y003217D01*
X018885Y003316D02*
X009129Y003316D01*
X009148Y003414D02*
X018885Y003414D01*
X018885Y003513D02*
X009148Y003513D01*
X009148Y003611D02*
X018885Y003611D01*
X018885Y003710D02*
X009125Y003710D01*
X009084Y003809D02*
X018885Y003809D01*
X018885Y003907D02*
X009043Y003907D01*
X008956Y004006D02*
X018885Y004006D01*
X018885Y004104D02*
X008858Y004104D01*
X008664Y004203D02*
X010333Y004203D01*
X010413Y004171D02*
X010413Y004171D01*
X010903Y004135D01*
X010903Y004135D01*
X011383Y004244D01*
X011809Y004490D01*
X012143Y004851D01*
X012357Y005294D01*
X012430Y005780D01*
X012357Y006266D01*
X012357Y006266D01*
X012143Y006710D01*
X011809Y007070D01*
X011383Y007316D01*
X011383Y007316D01*
X010903Y007425D01*
X010413Y007389D01*
X009955Y007209D01*
X009571Y006902D01*
X009294Y006496D01*
X009294Y006496D01*
X009149Y006026D01*
X009149Y005534D01*
X009294Y005064D01*
X009571Y004658D01*
X009955Y004351D01*
X010413Y004171D01*
X010082Y004301D02*
X006292Y004301D01*
X006390Y004203D02*
X006898Y004203D01*
X006705Y004104D02*
X006489Y004104D01*
X006587Y004006D02*
X006606Y004006D01*
X006317Y003710D02*
X005505Y003710D01*
X005505Y003809D02*
X006219Y003809D01*
X006120Y003907D02*
X005505Y003907D01*
X005505Y004006D02*
X006022Y004006D01*
X005923Y004104D02*
X005505Y004104D01*
X005505Y004203D02*
X005825Y004203D01*
X005726Y004301D02*
X005505Y004301D01*
X005505Y004400D02*
X005628Y004400D01*
X005529Y004498D02*
X005505Y004498D01*
X005655Y004655D02*
X006803Y003507D01*
X007155Y003507D01*
X008407Y003507D01*
X008124Y002823D02*
X007438Y002823D01*
X007617Y002922D02*
X007946Y002922D01*
X007847Y003020D02*
X007715Y003020D01*
X006872Y002823D02*
X005505Y002823D01*
X005505Y002922D02*
X006694Y002922D01*
X006595Y003020D02*
X005505Y003020D01*
X005505Y003119D02*
X006515Y003119D01*
X006474Y003217D02*
X005505Y003217D01*
X005505Y003316D02*
X006433Y003316D01*
X006415Y003414D02*
X005505Y003414D01*
X005505Y003513D02*
X006415Y003513D01*
X006415Y003611D02*
X005505Y003611D01*
X004805Y003611D02*
X000805Y003611D01*
X000805Y003513D02*
X004805Y003513D01*
X004805Y003414D02*
X000805Y003414D01*
X000805Y003316D02*
X004805Y003316D01*
X004805Y003217D02*
X000805Y003217D01*
X000805Y003119D02*
X004805Y003119D01*
X004805Y003020D02*
X000805Y003020D01*
X000805Y002922D02*
X004805Y002922D01*
X004805Y002823D02*
X000805Y002823D01*
X000805Y002725D02*
X004805Y002725D01*
X004805Y002626D02*
X000805Y002626D01*
X000805Y002527D02*
X001677Y002527D01*
X001799Y002578D02*
X001453Y002435D01*
X001188Y002170D01*
X001045Y001824D01*
X001045Y001450D01*
X001188Y001105D01*
X001453Y000840D01*
X001538Y000805D01*
X000805Y000805D01*
X000805Y020190D01*
X020190Y020190D01*
X020190Y000805D01*
X002434Y000805D01*
X002519Y000840D01*
X002783Y001105D01*
X002926Y001450D01*
X002926Y001824D01*
X002783Y002170D01*
X002519Y002435D01*
X002173Y002578D01*
X001799Y002578D01*
X001447Y002429D02*
X000805Y002429D01*
X000805Y002330D02*
X001349Y002330D01*
X001250Y002232D02*
X000805Y002232D01*
X000805Y002133D02*
X001173Y002133D01*
X001132Y002035D02*
X000805Y002035D01*
X000805Y001936D02*
X001092Y001936D01*
X001051Y001838D02*
X000805Y001838D01*
X000805Y001739D02*
X001045Y001739D01*
X001045Y001641D02*
X000805Y001641D01*
X000805Y001542D02*
X001045Y001542D01*
X001048Y001443D02*
X000805Y001443D01*
X000805Y001345D02*
X001089Y001345D01*
X001130Y001246D02*
X000805Y001246D01*
X000805Y001148D02*
X001171Y001148D01*
X001244Y001049D02*
X000805Y001049D01*
X000805Y000951D02*
X001342Y000951D01*
X001441Y000852D02*
X000805Y000852D01*
X002295Y002527D02*
X004829Y002527D01*
X004886Y002429D02*
X002524Y002429D01*
X002623Y002330D02*
X004985Y002330D01*
X005083Y002232D02*
X002721Y002232D01*
X002798Y002133D02*
X005182Y002133D01*
X005281Y002035D02*
X002839Y002035D01*
X002880Y001936D02*
X005379Y001936D01*
X005478Y001838D02*
X002921Y001838D01*
X002926Y001739D02*
X005576Y001739D01*
X005675Y001641D02*
X002926Y001641D01*
X002926Y001542D02*
X005773Y001542D01*
X005872Y001443D02*
X002924Y001443D01*
X002883Y001345D02*
X005970Y001345D01*
X006069Y001246D02*
X002842Y001246D01*
X002801Y001148D02*
X006167Y001148D01*
X006266Y001049D02*
X002728Y001049D01*
X002629Y000951D02*
X006411Y000951D01*
X006665Y001641D02*
X008712Y001641D01*
X008849Y000852D02*
X002531Y000852D01*
X002519Y003769D02*
X002313Y003769D01*
X002274Y003779D01*
X002240Y003799D01*
X002212Y003827D01*
X002193Y003861D01*
X002182Y003899D01*
X002182Y004105D01*
X002518Y004105D01*
X002518Y004205D01*
X002182Y004205D01*
X002182Y004411D01*
X002193Y004449D01*
X002212Y004483D01*
X002240Y004511D01*
X002274Y004531D01*
X002313Y004541D01*
X002519Y004541D01*
X002519Y004205D01*
X002618Y004205D01*
X002618Y004541D01*
X002824Y004541D01*
X002850Y004535D01*
X002827Y004590D01*
X002827Y004652D01*
X002645Y004789D01*
X002231Y004789D01*
X002155Y004864D01*
X002079Y004789D01*
X001942Y004789D01*
X001942Y004541D01*
X002040Y004541D01*
X002128Y004453D01*
X002128Y003857D01*
X002040Y003769D01*
X001443Y003769D01*
X001356Y003857D01*
X001356Y004453D01*
X001443Y004541D01*
X001542Y004541D01*
X001542Y004808D01*
X001474Y004876D01*
X001474Y005434D01*
X001561Y005522D01*
X002079Y005522D01*
X002155Y005446D01*
X002231Y005522D01*
X002749Y005522D01*
X002837Y005434D01*
X002837Y005145D01*
X003065Y004973D01*
X003090Y004984D01*
X003220Y004984D01*
X003341Y004934D01*
X003434Y004841D01*
X003484Y004720D01*
X003484Y004590D01*
X003434Y004469D01*
X003341Y004377D01*
X003220Y004327D01*
X003090Y004327D01*
X002969Y004377D01*
X002955Y004391D01*
X002955Y004205D01*
X002619Y004205D01*
X002619Y004105D01*
X002955Y004105D01*
X002955Y003899D01*
X002944Y003861D01*
X002925Y003827D01*
X002897Y003799D01*
X002863Y003779D01*
X002824Y003769D01*
X002618Y003769D01*
X002618Y004105D01*
X002519Y004105D01*
X002519Y003769D01*
X002519Y003809D02*
X002618Y003809D01*
X002618Y003907D02*
X002519Y003907D01*
X002519Y004006D02*
X002618Y004006D01*
X002618Y004104D02*
X002519Y004104D01*
X002518Y004203D02*
X002128Y004203D01*
X002128Y004301D02*
X002182Y004301D01*
X002182Y004400D02*
X002128Y004400D01*
X002083Y004498D02*
X002227Y004498D01*
X001942Y004597D02*
X002827Y004597D01*
X002769Y004695D02*
X001942Y004695D01*
X002085Y004794D02*
X002225Y004794D01*
X002490Y005155D02*
X003155Y004655D01*
X003382Y004892D02*
X004805Y004892D01*
X004805Y004794D02*
X003453Y004794D01*
X003484Y004695D02*
X004805Y004695D01*
X004805Y004597D02*
X003484Y004597D01*
X003446Y004498D02*
X004805Y004498D01*
X004805Y004400D02*
X003364Y004400D01*
X002955Y004301D02*
X004805Y004301D01*
X004805Y004203D02*
X002619Y004203D01*
X002618Y004301D02*
X002519Y004301D01*
X002519Y004400D02*
X002618Y004400D01*
X002618Y004498D02*
X002519Y004498D01*
X002182Y004104D02*
X002128Y004104D01*
X002128Y004006D02*
X002182Y004006D01*
X002182Y003907D02*
X002128Y003907D01*
X002080Y003809D02*
X002231Y003809D01*
X001742Y004155D02*
X001742Y005076D01*
X001820Y005155D01*
X001474Y005188D02*
X000805Y005188D01*
X000805Y005090D02*
X001474Y005090D01*
X001474Y004991D02*
X000805Y004991D01*
X000805Y004892D02*
X001474Y004892D01*
X001542Y004794D02*
X000805Y004794D01*
X000805Y004695D02*
X001542Y004695D01*
X001542Y004597D02*
X000805Y004597D01*
X000805Y004498D02*
X001400Y004498D01*
X001356Y004400D02*
X000805Y004400D01*
X000805Y004301D02*
X001356Y004301D01*
X001356Y004203D02*
X000805Y004203D01*
X000805Y004104D02*
X001356Y004104D01*
X001356Y004006D02*
X000805Y004006D01*
X000805Y003907D02*
X001356Y003907D01*
X001404Y003809D02*
X000805Y003809D01*
X000805Y003710D02*
X004805Y003710D01*
X004805Y003809D02*
X002906Y003809D01*
X002955Y003907D02*
X004805Y003907D01*
X004805Y004006D02*
X002955Y004006D01*
X002955Y004104D02*
X004805Y004104D01*
X004805Y004991D02*
X003041Y004991D01*
X002910Y005090D02*
X004805Y005090D01*
X004805Y005188D02*
X002837Y005188D01*
X002837Y005287D02*
X004805Y005287D01*
X004805Y005385D02*
X002837Y005385D01*
X002787Y005484D02*
X004805Y005484D01*
X004805Y005582D02*
X000805Y005582D01*
X000805Y005484D02*
X001524Y005484D01*
X001474Y005385D02*
X000805Y005385D01*
X000805Y005287D02*
X001474Y005287D01*
X001443Y005769D02*
X002040Y005769D01*
X002128Y005857D01*
X002128Y006453D01*
X002040Y006541D01*
X001942Y006541D01*
X001942Y006789D01*
X002079Y006789D01*
X002155Y006864D01*
X002231Y006789D01*
X002749Y006789D01*
X002837Y006876D01*
X002837Y006941D01*
X002906Y006871D01*
X002877Y006841D01*
X002827Y006720D01*
X002827Y006590D01*
X002850Y006535D01*
X002824Y006541D01*
X002618Y006541D01*
X002618Y006205D01*
X002519Y006205D01*
X002519Y006541D01*
X002313Y006541D01*
X002274Y006531D01*
X002240Y006511D01*
X002212Y006483D01*
X002193Y006449D01*
X002182Y006411D01*
X002182Y006205D01*
X002518Y006205D01*
X002518Y006105D01*
X002182Y006105D01*
X002182Y005899D01*
X002193Y005861D01*
X002212Y005827D01*
X002240Y005799D01*
X002274Y005779D01*
X002051Y005779D01*
X002128Y005878D02*
X002188Y005878D01*
X002182Y005976D02*
X002128Y005976D01*
X002128Y006075D02*
X002182Y006075D01*
X002128Y006174D02*
X002518Y006174D01*
X002519Y006105D02*
X002618Y006105D01*
X002618Y005769D01*
X002824Y005769D01*
X002863Y005779D01*
X004805Y005779D01*
X004805Y005681D02*
X000805Y005681D01*
X000805Y005779D02*
X001433Y005779D01*
X001443Y005769D02*
X001356Y005857D01*
X001356Y006453D01*
X001443Y006541D01*
X001542Y006541D01*
X001542Y006808D01*
X001474Y006876D01*
X001474Y007434D01*
X001561Y007522D01*
X002079Y007522D01*
X002155Y007446D01*
X002231Y007522D01*
X002749Y007522D01*
X002837Y007434D01*
X002837Y007355D01*
X002988Y007355D01*
X003238Y007105D01*
X003355Y006988D01*
X003355Y006920D01*
X003434Y006841D01*
X003484Y006720D01*
X003484Y006590D01*
X003434Y006469D01*
X003827Y006469D01*
X003827Y006568D02*
X003474Y006568D01*
X003484Y006666D02*
X003856Y006666D01*
X003925Y006765D02*
X003465Y006765D01*
X003411Y006863D02*
X003955Y006863D01*
X003955Y006962D02*
X003355Y006962D01*
X003283Y007060D02*
X003955Y007060D01*
X003955Y007159D02*
X003184Y007159D01*
X003086Y007258D02*
X003955Y007258D01*
X003955Y007356D02*
X002837Y007356D01*
X002816Y007455D02*
X003955Y007455D01*
X003955Y007553D02*
X000805Y007553D01*
X000805Y007455D02*
X001494Y007455D01*
X001474Y007356D02*
X000805Y007356D01*
X000805Y007258D02*
X001474Y007258D01*
X001474Y007159D02*
X000805Y007159D01*
X000805Y007060D02*
X001474Y007060D01*
X001474Y006962D02*
X000805Y006962D01*
X000805Y006863D02*
X001487Y006863D01*
X001542Y006765D02*
X000805Y006765D01*
X000805Y006666D02*
X001542Y006666D01*
X001542Y006568D02*
X000805Y006568D01*
X000805Y006469D02*
X001371Y006469D01*
X001356Y006371D02*
X000805Y006371D01*
X000805Y006272D02*
X001356Y006272D01*
X001356Y006174D02*
X000805Y006174D01*
X000805Y006075D02*
X001356Y006075D01*
X001356Y005976D02*
X000805Y005976D01*
X000805Y005878D02*
X001356Y005878D01*
X001742Y006155D02*
X001742Y007076D01*
X001820Y007155D01*
X001942Y006765D02*
X002845Y006765D01*
X002827Y006666D02*
X001942Y006666D01*
X001942Y006568D02*
X002836Y006568D01*
X002955Y006391D02*
X002955Y006205D01*
X002619Y006205D01*
X002619Y006105D01*
X002955Y006105D01*
X002955Y005899D01*
X002944Y005861D01*
X002925Y005827D01*
X002897Y005799D01*
X002863Y005779D01*
X002949Y005878D02*
X004805Y005878D01*
X004805Y005976D02*
X002955Y005976D01*
X002955Y006075D02*
X004805Y006075D01*
X004805Y006174D02*
X002619Y006174D01*
X002618Y006272D02*
X002519Y006272D01*
X002519Y006371D02*
X002618Y006371D01*
X002618Y006469D02*
X002519Y006469D01*
X002204Y006469D02*
X002112Y006469D01*
X002128Y006371D02*
X002182Y006371D01*
X002182Y006272D02*
X002128Y006272D01*
X002519Y006105D02*
X002519Y005769D01*
X002313Y005769D01*
X002274Y005779D01*
X002193Y005484D02*
X002117Y005484D01*
X002519Y005779D02*
X002618Y005779D01*
X002618Y005878D02*
X002519Y005878D01*
X002519Y005976D02*
X002618Y005976D01*
X002618Y006075D02*
X002519Y006075D01*
X002955Y006272D02*
X003949Y006272D01*
X003866Y006371D02*
X003326Y006371D01*
X003341Y006377D02*
X003220Y006327D01*
X003090Y006327D01*
X002969Y006377D01*
X002955Y006391D01*
X002955Y006371D02*
X002984Y006371D01*
X003155Y006655D02*
X003155Y006905D01*
X002905Y007155D01*
X002490Y007155D01*
X002164Y007455D02*
X002146Y007455D01*
X002274Y007779D02*
X002313Y007769D01*
X002519Y007769D01*
X002519Y008105D01*
X002618Y008105D01*
X002618Y007769D01*
X002824Y007769D01*
X002863Y007779D01*
X002897Y007799D01*
X002925Y007827D01*
X002944Y007861D01*
X002955Y007899D01*
X002955Y008105D01*
X002619Y008105D01*
X002619Y008205D01*
X002955Y008205D01*
X002955Y008411D01*
X002944Y008449D01*
X002925Y008483D01*
X002897Y008511D01*
X002863Y008531D01*
X002824Y008541D01*
X002618Y008541D01*
X002618Y008205D01*
X002519Y008205D01*
X002519Y008541D01*
X002313Y008541D01*
X002274Y008531D01*
X002240Y008511D01*
X002212Y008483D01*
X002193Y008449D01*
X002182Y008411D01*
X002182Y008205D01*
X002518Y008205D01*
X002518Y008105D01*
X002182Y008105D01*
X002182Y007899D01*
X002193Y007861D01*
X002212Y007827D01*
X002240Y007799D01*
X002274Y007779D01*
X002200Y007849D02*
X002120Y007849D01*
X002128Y007947D02*
X002182Y007947D01*
X002182Y008046D02*
X002128Y008046D01*
X002128Y008144D02*
X002518Y008144D01*
X002519Y008046D02*
X002618Y008046D01*
X002619Y008144D02*
X003955Y008144D01*
X003955Y008046D02*
X002955Y008046D01*
X002955Y007947D02*
X003955Y007947D01*
X003955Y007849D02*
X002937Y007849D01*
X002618Y007849D02*
X002519Y007849D01*
X002519Y007947D02*
X002618Y007947D01*
X002618Y008243D02*
X002519Y008243D01*
X002519Y008341D02*
X002618Y008341D01*
X002618Y008440D02*
X002519Y008440D01*
X002519Y008539D02*
X002618Y008539D01*
X002835Y008539D02*
X003598Y008539D01*
X003577Y008637D02*
X001942Y008637D01*
X001942Y008736D02*
X003542Y008736D01*
X003443Y008834D02*
X002794Y008834D01*
X002837Y008933D02*
X003345Y008933D01*
X003405Y009155D02*
X003905Y008655D01*
X003656Y008440D02*
X002947Y008440D01*
X002955Y008341D02*
X003804Y008341D01*
X003960Y008243D02*
X002955Y008243D01*
X002302Y008539D02*
X002043Y008539D01*
X002128Y008440D02*
X002190Y008440D01*
X002182Y008341D02*
X002128Y008341D01*
X002128Y008243D02*
X002182Y008243D01*
X001742Y008155D02*
X001742Y009076D01*
X001820Y009155D01*
X001474Y009130D02*
X000805Y009130D01*
X000805Y009228D02*
X001474Y009228D01*
X001474Y009327D02*
X000805Y009327D01*
X000805Y009425D02*
X001474Y009425D01*
X001474Y009031D02*
X000805Y009031D01*
X000805Y008933D02*
X001474Y008933D01*
X001516Y008834D02*
X000805Y008834D01*
X000805Y008736D02*
X001542Y008736D01*
X001542Y008637D02*
X000805Y008637D01*
X000805Y008539D02*
X001441Y008539D01*
X001356Y008440D02*
X000805Y008440D01*
X000805Y008341D02*
X001356Y008341D01*
X001356Y008243D02*
X000805Y008243D01*
X000805Y008144D02*
X001356Y008144D01*
X001356Y008046D02*
X000805Y008046D01*
X000805Y007947D02*
X001356Y007947D01*
X001363Y007849D02*
X000805Y007849D01*
X000805Y007750D02*
X003955Y007750D01*
X003955Y007652D02*
X000805Y007652D01*
X002154Y006863D02*
X002156Y006863D01*
X002824Y006863D02*
X002899Y006863D01*
X003341Y006377D02*
X003434Y006469D01*
X004155Y006530D02*
X004155Y008155D01*
X004405Y008405D01*
X004405Y011405D01*
X003655Y012155D01*
X002569Y012155D01*
X002182Y012185D02*
X002128Y012185D01*
X002128Y012283D02*
X002182Y012283D01*
X002182Y012382D02*
X002128Y012382D01*
X002128Y012453D02*
X002040Y012541D01*
X001942Y012541D01*
X001942Y012789D01*
X002079Y012789D01*
X002155Y012864D01*
X002231Y012789D01*
X002749Y012789D01*
X002837Y012876D01*
X002837Y012955D01*
X003322Y012955D01*
X003577Y012701D01*
X003577Y012590D01*
X003627Y012469D01*
X003719Y012377D01*
X003840Y012327D01*
X003970Y012327D01*
X004091Y012377D01*
X004184Y012469D01*
X004234Y012590D01*
X004234Y012720D01*
X004184Y012841D01*
X004091Y012934D01*
X003970Y012984D01*
X003860Y012984D01*
X003605Y013238D01*
X003488Y013355D01*
X002837Y013355D01*
X002837Y013434D01*
X002749Y013522D01*
X002231Y013522D01*
X002155Y013446D01*
X002079Y013522D01*
X001561Y013522D01*
X001474Y013434D01*
X001474Y012876D01*
X001542Y012808D01*
X001542Y012541D01*
X001443Y012541D01*
X001356Y012453D01*
X001356Y011857D01*
X001443Y011769D01*
X002040Y011769D01*
X002128Y011857D01*
X002128Y012453D01*
X002101Y012480D02*
X002209Y012480D01*
X001942Y012579D02*
X003581Y012579D01*
X003577Y012677D02*
X001942Y012677D01*
X001942Y012776D02*
X003501Y012776D01*
X003403Y012874D02*
X002835Y012874D01*
X002928Y012480D02*
X003622Y012480D01*
X003714Y012382D02*
X002955Y012382D01*
X002955Y011889D02*
X003638Y011889D01*
X003737Y011791D02*
X002888Y011791D01*
X002775Y011495D02*
X004032Y011495D01*
X003934Y011593D02*
X000805Y011593D01*
X000805Y011495D02*
X001535Y011495D01*
X001474Y011396D02*
X000805Y011396D01*
X000805Y011298D02*
X001474Y011298D01*
X001474Y011199D02*
X000805Y011199D01*
X000805Y011101D02*
X001474Y011101D01*
X001474Y011002D02*
X000805Y011002D01*
X000805Y010904D02*
X001474Y010904D01*
X001542Y010805D02*
X000805Y010805D01*
X000805Y010707D02*
X001542Y010707D01*
X001542Y010608D02*
X000805Y010608D01*
X000805Y010509D02*
X001411Y010509D01*
X001356Y010411D02*
X000805Y010411D01*
X000805Y010312D02*
X001356Y010312D01*
X001356Y010214D02*
X000805Y010214D01*
X000805Y010115D02*
X001356Y010115D01*
X001356Y010017D02*
X000805Y010017D01*
X000805Y009918D02*
X001356Y009918D01*
X001393Y009820D02*
X000805Y009820D01*
X000805Y009721D02*
X003181Y009721D01*
X003202Y009623D02*
X000805Y009623D01*
X000805Y009524D02*
X003229Y009524D01*
X003295Y009425D02*
X002837Y009425D01*
X002918Y009820D02*
X003083Y009820D01*
X002984Y009918D02*
X002955Y009918D01*
X003030Y010155D02*
X003530Y009655D01*
X003731Y009918D02*
X004205Y009918D01*
X004205Y009820D02*
X003817Y009820D01*
X003858Y009721D02*
X004205Y009721D01*
X004205Y009623D02*
X003859Y009623D01*
X003831Y009524D02*
X004205Y009524D01*
X004205Y009425D02*
X003765Y009425D01*
X003596Y009327D02*
X004205Y009327D01*
X004205Y009228D02*
X003615Y009228D01*
X003713Y009130D02*
X004205Y009130D01*
X004205Y009031D02*
X003812Y009031D01*
X004092Y008933D02*
X004205Y008933D01*
X004205Y008834D02*
X004186Y008834D01*
X004154Y008440D02*
X004157Y008440D01*
X004059Y008341D02*
X004006Y008341D01*
X003405Y009155D02*
X002490Y009155D01*
X002185Y008834D02*
X002125Y008834D01*
X002091Y009820D02*
X002219Y009820D01*
X002182Y009918D02*
X002128Y009918D01*
X002128Y010017D02*
X002182Y010017D01*
X002182Y010115D02*
X002128Y010115D01*
X002128Y010214D02*
X002182Y010214D01*
X002182Y010312D02*
X002128Y010312D01*
X002128Y010411D02*
X002182Y010411D01*
X002238Y010509D02*
X002072Y010509D01*
X001942Y010608D02*
X003577Y010608D01*
X003571Y010707D02*
X001942Y010707D01*
X002096Y010805D02*
X002214Y010805D01*
X002490Y011155D02*
X003405Y011155D01*
X003905Y010655D01*
X003685Y010411D02*
X002955Y010411D01*
X002899Y010509D02*
X003610Y010509D01*
X003472Y010805D02*
X002765Y010805D01*
X002837Y010904D02*
X003374Y010904D01*
X003742Y011101D02*
X004205Y011101D01*
X004205Y011199D02*
X003644Y011199D01*
X003605Y011238D02*
X003605Y011238D01*
X003545Y011298D02*
X004205Y011298D01*
X004131Y011396D02*
X002837Y011396D01*
X002204Y011495D02*
X002106Y011495D01*
X002062Y011791D02*
X002249Y011791D01*
X002182Y011889D02*
X002128Y011889D01*
X002128Y011988D02*
X002182Y011988D01*
X002182Y012086D02*
X002128Y012086D01*
X001742Y012155D02*
X001742Y013076D01*
X001820Y013155D01*
X001474Y013170D02*
X000805Y013170D01*
X000805Y013072D02*
X001474Y013072D01*
X001474Y012973D02*
X000805Y012973D01*
X000805Y012874D02*
X001476Y012874D01*
X001542Y012776D02*
X000805Y012776D01*
X000805Y012677D02*
X001542Y012677D01*
X001542Y012579D02*
X000805Y012579D01*
X000805Y012480D02*
X001382Y012480D01*
X001356Y012382D02*
X000805Y012382D01*
X000805Y012283D02*
X001356Y012283D01*
X001356Y012185D02*
X000805Y012185D01*
X000805Y012086D02*
X001356Y012086D01*
X001356Y011988D02*
X000805Y011988D01*
X000805Y011889D02*
X001356Y011889D01*
X001422Y011791D02*
X000805Y011791D01*
X000805Y011692D02*
X003835Y011692D01*
X004105Y011988D02*
X004455Y011988D01*
X004455Y012086D02*
X004007Y012086D01*
X003908Y012185D02*
X004455Y012185D01*
X004455Y012283D02*
X003810Y012283D01*
X004096Y012382D02*
X004455Y012382D01*
X004455Y012480D02*
X004188Y012480D01*
X004229Y012579D02*
X004455Y012579D01*
X004455Y012677D02*
X004234Y012677D01*
X004211Y012776D02*
X004455Y012776D01*
X004455Y012874D02*
X004150Y012874D01*
X003996Y012973D02*
X004455Y012973D01*
X004455Y013072D02*
X003771Y013072D01*
X003673Y013170D02*
X004357Y013170D01*
X004259Y013269D02*
X003574Y013269D01*
X003405Y013155D02*
X002490Y013155D01*
X002837Y013367D02*
X004160Y013367D01*
X004062Y013466D02*
X002805Y013466D01*
X002955Y013860D02*
X003667Y013860D01*
X003766Y013761D02*
X000805Y013761D01*
X000805Y013663D02*
X003865Y013663D01*
X003963Y013564D02*
X000805Y013564D01*
X000805Y013466D02*
X001506Y013466D01*
X001474Y013367D02*
X000805Y013367D01*
X000805Y013269D02*
X001474Y013269D01*
X001443Y013769D02*
X002040Y013769D01*
X002128Y013857D01*
X002128Y014453D01*
X002040Y014541D01*
X001942Y014541D01*
X001942Y014789D01*
X002079Y014789D01*
X002155Y014864D01*
X002231Y014789D01*
X002749Y014789D01*
X002837Y014876D01*
X002837Y014955D01*
X003322Y014955D01*
X003577Y014701D01*
X003577Y014590D01*
X003627Y014469D01*
X003719Y014377D01*
X003840Y014327D01*
X003970Y014327D01*
X004091Y014377D01*
X004184Y014469D01*
X004234Y014590D01*
X004234Y014720D01*
X004184Y014841D01*
X004091Y014934D01*
X003970Y014984D01*
X003860Y014984D01*
X003605Y015238D01*
X003488Y015355D01*
X002837Y015355D01*
X002837Y015434D01*
X002749Y015522D01*
X002231Y015522D01*
X002155Y015446D01*
X002079Y015522D01*
X001561Y015522D01*
X001474Y015434D01*
X001474Y014876D01*
X001542Y014808D01*
X001542Y014541D01*
X001443Y014541D01*
X001356Y014453D01*
X001356Y013857D01*
X001443Y013769D01*
X001356Y013860D02*
X000805Y013860D01*
X000805Y013958D02*
X001356Y013958D01*
X001356Y014057D02*
X000805Y014057D01*
X000805Y014156D02*
X001356Y014156D01*
X001356Y014254D02*
X000805Y014254D01*
X000805Y014353D02*
X001356Y014353D01*
X001356Y014451D02*
X000805Y014451D01*
X000805Y014550D02*
X001542Y014550D01*
X001542Y014648D02*
X000805Y014648D01*
X000805Y014747D02*
X001542Y014747D01*
X001505Y014845D02*
X000805Y014845D01*
X000805Y014944D02*
X001474Y014944D01*
X001474Y015042D02*
X000805Y015042D01*
X000805Y015141D02*
X001474Y015141D01*
X001474Y015240D02*
X000805Y015240D01*
X000805Y015338D02*
X001474Y015338D01*
X001476Y015437D02*
X000805Y015437D01*
X000805Y015535D02*
X006450Y015535D01*
X006415Y015450D02*
X006415Y015155D01*
X006527Y014883D01*
X006736Y014675D01*
X007008Y014562D01*
X007302Y014562D01*
X007575Y014675D01*
X007781Y014881D01*
X007988Y014675D01*
X008260Y014562D01*
X008554Y014562D01*
X008827Y014675D01*
X009035Y014883D01*
X009148Y015155D01*
X009148Y015450D01*
X009035Y015722D01*
X008827Y015931D01*
X008554Y016043D01*
X008260Y016043D01*
X007988Y015931D01*
X007781Y015724D01*
X007575Y015931D01*
X007302Y016043D01*
X007008Y016043D01*
X006736Y015931D01*
X006527Y015722D01*
X006415Y015450D01*
X006415Y015437D02*
X002834Y015437D01*
X002490Y015155D02*
X003405Y015155D01*
X003905Y014655D01*
X003777Y014353D02*
X003740Y014353D01*
X003645Y014451D02*
X002955Y014451D01*
X002806Y014845D02*
X003432Y014845D01*
X003531Y014747D02*
X001942Y014747D01*
X001942Y014648D02*
X003577Y014648D01*
X003593Y014550D02*
X001942Y014550D01*
X002128Y014451D02*
X002182Y014451D01*
X002182Y014353D02*
X002128Y014353D01*
X002128Y014254D02*
X002182Y014254D01*
X002182Y014156D02*
X002128Y014156D01*
X002128Y014057D02*
X002182Y014057D01*
X002182Y013958D02*
X002128Y013958D01*
X002128Y013860D02*
X002182Y013860D01*
X002175Y013466D02*
X002135Y013466D01*
X001742Y014155D02*
X001742Y015076D01*
X001820Y015155D01*
X002136Y014845D02*
X002174Y014845D01*
X002837Y014944D02*
X003333Y014944D01*
X003604Y015240D02*
X006415Y015240D01*
X006415Y015338D02*
X003505Y015338D01*
X003702Y015141D02*
X006421Y015141D01*
X006461Y015042D02*
X003801Y015042D01*
X004066Y014944D02*
X006502Y014944D01*
X006565Y014845D02*
X004179Y014845D01*
X004223Y014747D02*
X006664Y014747D01*
X006800Y014648D02*
X004234Y014648D01*
X004217Y014550D02*
X010478Y014550D01*
X010455Y014648D02*
X008762Y014648D01*
X008898Y014747D02*
X010455Y014747D01*
X010455Y014845D02*
X008997Y014845D01*
X009060Y014944D02*
X010455Y014944D01*
X010455Y015042D02*
X009101Y015042D01*
X009142Y015141D02*
X010455Y015141D01*
X010455Y015240D02*
X009148Y015240D01*
X009148Y015338D02*
X010455Y015338D01*
X010455Y015437D02*
X009148Y015437D01*
X009112Y015535D02*
X010455Y015535D01*
X010455Y015634D02*
X009072Y015634D01*
X009025Y015732D02*
X010455Y015732D01*
X010455Y015831D02*
X008926Y015831D01*
X008828Y015929D02*
X010455Y015929D01*
X010455Y016028D02*
X008592Y016028D01*
X008223Y016028D02*
X007340Y016028D01*
X007576Y015929D02*
X007986Y015929D01*
X007888Y015831D02*
X007674Y015831D01*
X007773Y015732D02*
X007789Y015732D01*
X007959Y016521D02*
X008239Y016521D01*
X008144Y016619D02*
X008056Y016619D01*
X008818Y016521D02*
X009101Y016521D01*
X009006Y016619D02*
X008916Y016619D01*
X008109Y017506D02*
X007961Y017506D01*
X007863Y017605D02*
X008208Y017605D01*
X008469Y018205D02*
X008841Y018205D01*
X009105Y018469D01*
X009105Y018841D01*
X008841Y019105D01*
X008469Y019105D01*
X008205Y018841D01*
X008205Y018469D01*
X008469Y018205D01*
X008379Y018294D02*
X007931Y018294D01*
X007841Y018205D02*
X008105Y018469D01*
X008105Y018841D01*
X007841Y019105D01*
X007469Y019105D01*
X007205Y018841D01*
X007205Y018469D01*
X007469Y018205D01*
X007841Y018205D01*
X008029Y018393D02*
X008281Y018393D01*
X008205Y018491D02*
X008105Y018491D01*
X008105Y018590D02*
X008205Y018590D01*
X008205Y018689D02*
X008105Y018689D01*
X008105Y018787D02*
X008205Y018787D01*
X008249Y018886D02*
X008061Y018886D01*
X007962Y018984D02*
X008348Y018984D01*
X008446Y019083D02*
X007864Y019083D01*
X007841Y019205D02*
X008105Y019469D01*
X008105Y019605D01*
X007705Y019605D01*
X007705Y019205D01*
X007841Y019205D01*
X007916Y019280D02*
X008394Y019280D01*
X008469Y019205D02*
X008841Y019205D01*
X009105Y019469D01*
X009105Y019841D01*
X008841Y020105D01*
X008469Y020105D01*
X008205Y019841D01*
X008205Y019469D01*
X008469Y019205D01*
X008295Y019378D02*
X008015Y019378D01*
X008105Y019477D02*
X008205Y019477D01*
X008205Y019575D02*
X008105Y019575D01*
X008105Y019705D02*
X007705Y019705D01*
X007705Y019605D01*
X007605Y019605D01*
X007605Y019205D01*
X007469Y019205D01*
X007205Y019469D01*
X007205Y019605D01*
X007605Y019605D01*
X007605Y019705D01*
X007205Y019705D01*
X007205Y019841D01*
X007469Y020105D01*
X007605Y020105D01*
X007605Y019705D01*
X007705Y019705D01*
X007705Y020105D01*
X007841Y020105D01*
X008105Y019841D01*
X008105Y019705D01*
X008105Y019773D02*
X008205Y019773D01*
X008205Y019674D02*
X007705Y019674D01*
X007705Y019773D02*
X007605Y019773D01*
X007605Y019871D02*
X007705Y019871D01*
X007705Y019970D02*
X007605Y019970D01*
X007605Y020068D02*
X007705Y020068D01*
X007878Y020068D02*
X008432Y020068D01*
X008333Y019970D02*
X007977Y019970D01*
X008076Y019871D02*
X008235Y019871D01*
X007705Y019575D02*
X007605Y019575D01*
X007605Y019477D02*
X007705Y019477D01*
X007705Y019378D02*
X007605Y019378D01*
X007605Y019280D02*
X007705Y019280D01*
X007394Y019280D02*
X006916Y019280D01*
X007015Y019378D02*
X007295Y019378D01*
X007205Y019477D02*
X007105Y019477D01*
X007105Y019575D02*
X007205Y019575D01*
X007105Y019674D02*
X007605Y019674D01*
X007333Y019970D02*
X006977Y019970D01*
X006878Y020068D02*
X007432Y020068D01*
X007235Y019871D02*
X007076Y019871D01*
X007105Y019773D02*
X007205Y019773D01*
X007446Y019083D02*
X006864Y019083D01*
X006962Y018984D02*
X007348Y018984D01*
X007249Y018886D02*
X007061Y018886D01*
X007105Y018787D02*
X007205Y018787D01*
X007205Y018689D02*
X007105Y018689D01*
X007105Y018590D02*
X007205Y018590D01*
X007205Y018491D02*
X007105Y018491D01*
X007029Y018393D02*
X007281Y018393D01*
X007379Y018294D02*
X006931Y018294D01*
X006379Y018294D02*
X005931Y018294D01*
X006029Y018393D02*
X006281Y018393D01*
X006205Y018491D02*
X006105Y018491D01*
X006105Y018590D02*
X006205Y018590D01*
X006150Y017605D02*
X006568Y017605D01*
X006469Y017506D02*
X006249Y017506D01*
X006347Y017407D02*
X006371Y017407D01*
X005895Y017605D02*
X005493Y017605D01*
X005591Y017506D02*
X005813Y017506D01*
X005813Y017407D02*
X005690Y017407D01*
X005695Y017309D02*
X005813Y017309D01*
X005813Y017210D02*
X005677Y017210D01*
X005579Y017112D02*
X005813Y017112D01*
X005813Y017013D02*
X005614Y017013D01*
X005582Y016619D02*
X005556Y016619D01*
X005458Y016521D02*
X005680Y016521D01*
X006370Y016521D02*
X006593Y016521D01*
X006494Y016619D02*
X006469Y016619D01*
X007038Y016521D02*
X007263Y016521D01*
X007164Y016619D02*
X007136Y016619D01*
X006971Y016028D02*
X000805Y016028D01*
X000805Y016126D02*
X010455Y016126D01*
X010855Y016126D02*
X011455Y016126D01*
X011455Y016028D02*
X010855Y016028D01*
X010855Y015929D02*
X011455Y015929D01*
X011455Y015831D02*
X010855Y015831D01*
X010855Y015732D02*
X011455Y015732D01*
X011455Y015634D02*
X010855Y015634D01*
X010855Y015535D02*
X011455Y015535D01*
X011455Y015437D02*
X010855Y015437D01*
X010855Y015338D02*
X011455Y015338D01*
X011455Y015240D02*
X010855Y015240D01*
X010855Y015141D02*
X011455Y015141D01*
X011455Y015042D02*
X010855Y015042D01*
X010855Y014944D02*
X011455Y014944D01*
X011455Y014845D02*
X010855Y014845D01*
X010855Y014747D02*
X011455Y014747D01*
X011455Y014648D02*
X010945Y014648D01*
X011043Y014550D02*
X011478Y014550D01*
X011576Y014451D02*
X011142Y014451D01*
X011240Y014353D02*
X011675Y014353D01*
X011773Y014254D02*
X011339Y014254D01*
X011437Y014156D02*
X011872Y014156D01*
X011970Y014057D02*
X011536Y014057D01*
X011635Y013958D02*
X012069Y013958D01*
X012167Y013860D02*
X011733Y013860D01*
X011832Y013761D02*
X012266Y013761D01*
X012365Y013663D02*
X011930Y013663D01*
X012029Y013564D02*
X012463Y013564D01*
X012562Y013466D02*
X012127Y013466D01*
X012226Y013367D02*
X012660Y013367D01*
X012759Y013269D02*
X012324Y013269D01*
X012423Y013170D02*
X012857Y013170D01*
X012956Y013072D02*
X012521Y013072D01*
X012620Y012973D02*
X013054Y012973D01*
X013153Y012874D02*
X012719Y012874D01*
X012655Y012655D02*
X015905Y012655D01*
X016211Y012776D02*
X018885Y012776D01*
X018885Y012874D02*
X016150Y012874D01*
X015996Y012973D02*
X018885Y012973D01*
X018885Y013072D02*
X015734Y013072D01*
X015734Y012973D02*
X015815Y012973D01*
X015703Y013170D02*
X016676Y013170D01*
X016905Y013405D02*
X013530Y013405D01*
X012155Y014780D01*
X012155Y017655D01*
X012155Y019155D01*
X012355Y019083D02*
X012446Y019083D01*
X012655Y018655D02*
X012655Y017655D01*
X012405Y017405D01*
X012405Y015030D01*
X013780Y013780D01*
X016405Y013780D01*
X016218Y014057D02*
X015220Y014057D01*
X015234Y014156D02*
X018885Y014156D01*
X018885Y014254D02*
X015220Y014254D01*
X015172Y014353D02*
X018885Y014353D01*
X018885Y014451D02*
X015049Y014451D01*
X014905Y014155D02*
X014030Y014155D01*
X012655Y015530D01*
X012655Y017280D01*
X013155Y017780D01*
X013155Y019155D01*
X013355Y019083D02*
X013446Y019083D01*
X013605Y018590D02*
X013705Y018590D01*
X013705Y018491D02*
X013605Y018491D01*
X013605Y018393D02*
X013705Y018393D01*
X013705Y018294D02*
X013605Y018294D01*
X013379Y018294D02*
X013355Y018294D01*
X013355Y018196D02*
X017233Y018196D01*
X017331Y018097D02*
X013355Y018097D01*
X013355Y017999D02*
X017430Y017999D01*
X017528Y017900D02*
X013355Y017900D01*
X013355Y017802D02*
X013962Y017802D01*
X013969Y017809D02*
X013877Y017716D01*
X013827Y017595D01*
X013827Y017465D01*
X013877Y017344D01*
X013955Y017266D01*
X013955Y016170D01*
X013877Y016091D01*
X013827Y015970D01*
X013827Y015840D01*
X013877Y015719D01*
X013969Y015627D01*
X014090Y015577D01*
X014220Y015577D01*
X014341Y015627D01*
X014434Y015719D01*
X014484Y015840D01*
X014484Y015970D01*
X014434Y016091D01*
X014355Y016170D01*
X014355Y017266D01*
X014434Y017344D01*
X014484Y017465D01*
X014484Y017595D01*
X014434Y017716D01*
X014341Y017809D01*
X014220Y017859D01*
X014090Y017859D01*
X013969Y017809D01*
X013871Y017703D02*
X013355Y017703D01*
X013262Y017605D02*
X013831Y017605D01*
X013827Y017506D02*
X013164Y017506D01*
X013065Y017407D02*
X013850Y017407D01*
X013912Y017309D02*
X012967Y017309D01*
X012868Y017210D02*
X013955Y017210D01*
X013955Y017112D02*
X012855Y017112D01*
X012855Y017013D02*
X013955Y017013D01*
X013955Y016915D02*
X012855Y016915D01*
X012855Y016816D02*
X013955Y016816D01*
X013955Y016718D02*
X012855Y016718D01*
X012855Y016619D02*
X013955Y016619D01*
X013955Y016521D02*
X012855Y016521D01*
X012855Y016422D02*
X013955Y016422D01*
X013955Y016324D02*
X012855Y016324D01*
X012855Y016225D02*
X013955Y016225D01*
X013912Y016126D02*
X012855Y016126D01*
X012855Y016028D02*
X013851Y016028D01*
X013827Y015929D02*
X012855Y015929D01*
X012855Y015831D02*
X013830Y015831D01*
X013871Y015732D02*
X012855Y015732D01*
X012855Y015634D02*
X013962Y015634D01*
X014155Y015905D02*
X014155Y017530D01*
X014460Y017407D02*
X018021Y017407D01*
X018119Y017309D02*
X014398Y017309D01*
X014355Y017210D02*
X018218Y017210D01*
X018317Y017112D02*
X014355Y017112D01*
X014355Y017013D02*
X018415Y017013D01*
X018514Y016915D02*
X014355Y016915D01*
X014355Y016816D02*
X018612Y016816D01*
X018711Y016718D02*
X014355Y016718D01*
X014355Y016619D02*
X018809Y016619D01*
X018885Y016521D02*
X014355Y016521D01*
X014355Y016422D02*
X018885Y016422D01*
X018885Y016324D02*
X014355Y016324D01*
X014355Y016225D02*
X018885Y016225D01*
X018885Y016126D02*
X014398Y016126D01*
X014460Y016028D02*
X018885Y016028D01*
X018885Y015929D02*
X014484Y015929D01*
X014480Y015831D02*
X018885Y015831D01*
X018885Y015732D02*
X014439Y015732D01*
X014348Y015634D02*
X018885Y015634D01*
X018885Y015535D02*
X012933Y015535D01*
X013031Y015437D02*
X018885Y015437D01*
X018885Y015338D02*
X013130Y015338D01*
X013228Y015240D02*
X018885Y015240D01*
X018885Y015141D02*
X013327Y015141D01*
X013426Y015042D02*
X018885Y015042D01*
X018885Y014944D02*
X013524Y014944D01*
X013623Y014845D02*
X018885Y014845D01*
X018885Y014747D02*
X013721Y014747D01*
X013820Y014648D02*
X018885Y014648D01*
X018885Y014550D02*
X013918Y014550D01*
X014017Y014451D02*
X014762Y014451D01*
X015405Y013030D02*
X013280Y013030D01*
X011655Y014655D01*
X011655Y018655D01*
X011348Y018984D02*
X010962Y018984D01*
X010864Y019083D02*
X011446Y019083D01*
X011394Y019280D02*
X010916Y019280D01*
X010841Y019205D02*
X011105Y019469D01*
X011105Y019605D01*
X010705Y019605D01*
X010705Y019205D01*
X010841Y019205D01*
X010705Y019280D02*
X010605Y019280D01*
X010605Y019205D02*
X010605Y019605D01*
X010705Y019605D01*
X010705Y019705D01*
X011105Y019705D01*
X011105Y019841D01*
X010841Y020105D01*
X010705Y020105D01*
X010705Y019705D01*
X010605Y019705D01*
X010605Y019605D01*
X010205Y019605D01*
X010205Y019469D01*
X010469Y019205D01*
X010605Y019205D01*
X010605Y019378D02*
X010705Y019378D01*
X010705Y019477D02*
X010605Y019477D01*
X010605Y019575D02*
X010705Y019575D01*
X010705Y019674D02*
X011205Y019674D01*
X011205Y019773D02*
X011105Y019773D01*
X011076Y019871D02*
X011235Y019871D01*
X011333Y019970D02*
X010977Y019970D01*
X010878Y020068D02*
X011432Y020068D01*
X011205Y019575D02*
X011105Y019575D01*
X011105Y019477D02*
X011205Y019477D01*
X011295Y019378D02*
X011015Y019378D01*
X010705Y019773D02*
X010605Y019773D01*
X010605Y019705D02*
X010605Y020105D01*
X010469Y020105D01*
X010205Y019841D01*
X010205Y019705D01*
X010605Y019705D01*
X010605Y019674D02*
X010105Y019674D01*
X010105Y019773D02*
X010205Y019773D01*
X010235Y019871D02*
X010076Y019871D01*
X010105Y019841D02*
X009841Y020105D01*
X009469Y020105D01*
X009205Y019841D01*
X009205Y019469D01*
X009469Y019205D01*
X009841Y019205D01*
X010105Y019469D01*
X010105Y019841D01*
X009977Y019970D02*
X010333Y019970D01*
X010432Y020068D02*
X009878Y020068D01*
X009432Y020068D02*
X008878Y020068D01*
X008977Y019970D02*
X009333Y019970D01*
X009235Y019871D02*
X009076Y019871D01*
X009105Y019773D02*
X009205Y019773D01*
X009205Y019674D02*
X009105Y019674D01*
X009105Y019575D02*
X009205Y019575D01*
X009205Y019477D02*
X009105Y019477D01*
X009015Y019378D02*
X009295Y019378D01*
X009394Y019280D02*
X008916Y019280D01*
X008864Y019083D02*
X009446Y019083D01*
X009469Y019105D02*
X009205Y018841D01*
X009205Y018469D01*
X009469Y018205D01*
X009841Y018205D01*
X010105Y018469D01*
X010105Y018841D01*
X009841Y019105D01*
X009469Y019105D01*
X009348Y018984D02*
X008962Y018984D01*
X009061Y018886D02*
X009249Y018886D01*
X009205Y018787D02*
X009105Y018787D01*
X009105Y018689D02*
X009205Y018689D01*
X009205Y018590D02*
X009105Y018590D01*
X009105Y018491D02*
X009205Y018491D01*
X009281Y018393D02*
X009029Y018393D01*
X008931Y018294D02*
X009379Y018294D01*
X009931Y018294D02*
X010379Y018294D01*
X010455Y018196D02*
X000805Y018196D01*
X000805Y018294D02*
X001379Y018294D01*
X001281Y018393D02*
X000805Y018393D01*
X000805Y018491D02*
X001205Y018491D01*
X001205Y018590D02*
X000805Y018590D01*
X000805Y018689D02*
X001205Y018689D01*
X001205Y018787D02*
X000805Y018787D01*
X000805Y018886D02*
X001249Y018886D01*
X001348Y018984D02*
X000805Y018984D01*
X000805Y019083D02*
X001446Y019083D01*
X002212Y018097D02*
X010455Y018097D01*
X010455Y017999D02*
X002450Y017999D01*
X002589Y017900D02*
X010455Y017900D01*
X010455Y017802D02*
X002687Y017802D01*
X003015Y019378D02*
X003295Y019378D01*
X003205Y019477D02*
X003105Y019477D01*
X003105Y019575D02*
X003205Y019575D01*
X003105Y019674D02*
X003605Y019674D01*
X003333Y019970D02*
X002977Y019970D01*
X002878Y020068D02*
X003432Y020068D01*
X003235Y019871D02*
X003076Y019871D01*
X003105Y019773D02*
X003205Y019773D01*
X000805Y020167D02*
X020190Y020167D01*
X017725Y017703D02*
X014439Y017703D01*
X014480Y017605D02*
X017824Y017605D01*
X017922Y017506D02*
X014484Y017506D01*
X014348Y017802D02*
X017627Y017802D01*
X017134Y018294D02*
X013931Y018294D01*
X014029Y018393D02*
X017035Y018393D01*
X016937Y018491D02*
X014105Y018491D01*
X014105Y018590D02*
X016838Y018590D01*
X016593Y014057D02*
X018885Y014057D01*
X018885Y013958D02*
X016687Y013958D01*
X016728Y013860D02*
X018885Y013860D01*
X018885Y013761D02*
X016734Y013761D01*
X017112Y013663D02*
X018885Y013663D01*
X018885Y013564D02*
X017195Y013564D01*
X017234Y013466D02*
X018885Y013466D01*
X018885Y013367D02*
X017234Y013367D01*
X017204Y013269D02*
X018885Y013269D01*
X018885Y013170D02*
X017135Y013170D01*
X016234Y012677D02*
X018885Y012677D01*
X018885Y012579D02*
X016229Y012579D01*
X016188Y012480D02*
X018885Y012480D01*
X018885Y012382D02*
X016096Y012382D01*
X015714Y012382D02*
X009148Y012382D01*
X009148Y012480D02*
X012547Y012480D01*
X012449Y012579D02*
X009115Y012579D01*
X009075Y012677D02*
X012350Y012677D01*
X012251Y012776D02*
X009032Y012776D01*
X008934Y012874D02*
X012153Y012874D01*
X012054Y012973D02*
X008835Y012973D01*
X008610Y013072D02*
X011956Y013072D01*
X011857Y013170D02*
X004855Y013170D01*
X004855Y013072D02*
X006953Y013072D01*
X006727Y012973D02*
X004855Y012973D01*
X004855Y012874D02*
X006628Y012874D01*
X006530Y012776D02*
X004855Y012776D01*
X004855Y012677D02*
X005720Y012677D01*
X005584Y012579D02*
X004855Y012579D01*
X004855Y012480D02*
X005485Y012480D01*
X005387Y012382D02*
X004855Y012382D01*
X004855Y012283D02*
X005288Y012283D01*
X005190Y012185D02*
X004855Y012185D01*
X004855Y012086D02*
X005091Y012086D01*
X004993Y011988D02*
X004855Y011988D01*
X004855Y011889D02*
X004894Y011889D01*
X004455Y011889D02*
X004204Y011889D01*
X004303Y011791D02*
X004455Y011791D01*
X004455Y011692D02*
X004401Y011692D01*
X004205Y011002D02*
X003841Y011002D01*
X004121Y010904D02*
X004205Y010904D01*
X004198Y010805D02*
X004205Y010805D01*
X004200Y010509D02*
X004205Y010509D01*
X004205Y010411D02*
X004125Y010411D01*
X004205Y010312D02*
X003156Y010312D01*
X003254Y010214D02*
X004205Y010214D01*
X004205Y010115D02*
X003353Y010115D01*
X003451Y010017D02*
X004205Y010017D01*
X003030Y010155D02*
X002569Y010155D01*
X001742Y010155D02*
X001742Y011076D01*
X001820Y011155D01*
X003405Y013155D02*
X003905Y012655D01*
X004655Y013155D02*
X004655Y007405D01*
X004437Y007159D02*
X004355Y007159D01*
X004355Y007258D02*
X004361Y007258D01*
X004355Y007060D02*
X004805Y007060D01*
X004805Y006962D02*
X004355Y006962D01*
X004355Y006863D02*
X004805Y006863D01*
X004805Y006765D02*
X004385Y006765D01*
X004454Y006666D02*
X004805Y006666D01*
X004805Y006568D02*
X004484Y006568D01*
X004484Y006469D02*
X004805Y006469D01*
X004805Y006371D02*
X004444Y006371D01*
X004362Y006272D02*
X004805Y006272D01*
X005855Y006272D02*
X006430Y006272D01*
X006415Y006371D02*
X005855Y006371D01*
X005855Y006469D02*
X006415Y006469D01*
X006415Y006568D02*
X005855Y006568D01*
X005855Y006666D02*
X006361Y006666D01*
X006263Y006765D02*
X005855Y006765D01*
X005855Y006863D02*
X006164Y006863D01*
X006065Y006962D02*
X005855Y006962D01*
X005855Y007060D02*
X005967Y007060D01*
X005955Y007159D02*
X005855Y007159D01*
X005855Y007258D02*
X005955Y007258D01*
X005955Y007356D02*
X005855Y007356D01*
X005855Y007455D02*
X005955Y007455D01*
X005955Y007553D02*
X005855Y007553D01*
X005855Y007652D02*
X005955Y007652D01*
X005955Y007750D02*
X005855Y007750D01*
X005855Y007849D02*
X005955Y007849D01*
X005955Y007947D02*
X005855Y007947D01*
X005855Y008046D02*
X005955Y008046D01*
X005955Y008144D02*
X005855Y008144D01*
X005855Y008243D02*
X005955Y008243D01*
X005955Y008341D02*
X005855Y008341D01*
X005855Y008440D02*
X005955Y008440D01*
X005955Y008539D02*
X005855Y008539D01*
X005855Y008637D02*
X005955Y008637D01*
X005955Y008736D02*
X005855Y008736D01*
X005855Y008834D02*
X005955Y008834D01*
X005955Y008933D02*
X005855Y008933D01*
X005855Y009031D02*
X005955Y009031D01*
X005955Y009130D02*
X005855Y009130D01*
X005855Y009228D02*
X005955Y009228D01*
X005955Y009327D02*
X005855Y009327D01*
X005855Y009425D02*
X005955Y009425D01*
X005955Y009524D02*
X005855Y009524D01*
X005855Y009623D02*
X005955Y009623D01*
X005955Y009721D02*
X005855Y009721D01*
X005855Y009820D02*
X005955Y009820D01*
X005955Y009918D02*
X005855Y009918D01*
X005855Y010017D02*
X005955Y010017D01*
X005955Y010115D02*
X005898Y010115D01*
X005655Y010155D02*
X005655Y004655D01*
X005855Y004794D02*
X009478Y004794D01*
X009545Y004695D02*
X005898Y004695D01*
X005996Y004597D02*
X009647Y004597D01*
X009571Y004658D02*
X009571Y004658D01*
X009571Y004658D01*
X009771Y004498D02*
X006095Y004498D01*
X006193Y004400D02*
X009894Y004400D01*
X009955Y004351D02*
X009955Y004351D01*
X009411Y004892D02*
X005855Y004892D01*
X005855Y004991D02*
X009343Y004991D01*
X009294Y005064D02*
X009294Y005064D01*
X009286Y005090D02*
X005855Y005090D01*
X005855Y005188D02*
X009255Y005188D01*
X009225Y005287D02*
X005855Y005287D01*
X005855Y005385D02*
X009194Y005385D01*
X009164Y005484D02*
X005855Y005484D01*
X005855Y005582D02*
X009149Y005582D01*
X009149Y005534D02*
X009149Y005534D01*
X009149Y005681D02*
X005855Y005681D01*
X005855Y005779D02*
X006854Y005779D01*
X006686Y005878D02*
X005855Y005878D01*
X005855Y005976D02*
X006588Y005976D01*
X006511Y006075D02*
X005855Y006075D01*
X005855Y006174D02*
X006471Y006174D01*
X006854Y006456D02*
X006155Y007155D01*
X006155Y010155D01*
X006530Y010530D01*
X010280Y010530D01*
X010905Y009905D01*
X010577Y009918D02*
X008941Y009918D01*
X008965Y009894D02*
X008896Y009963D01*
X008819Y010022D01*
X008735Y010071D01*
X008646Y010108D01*
X008552Y010133D01*
X008457Y010145D01*
X008457Y009455D01*
X009147Y009455D01*
X009135Y009550D01*
X009110Y009644D01*
X009073Y009733D01*
X009024Y009817D01*
X008965Y009894D01*
X009022Y009820D02*
X010585Y009820D01*
X010511Y010017D02*
X008826Y010017D01*
X008618Y010115D02*
X010412Y010115D01*
X010314Y010214D02*
X006497Y010214D01*
X006595Y010312D02*
X010215Y010312D01*
X010530Y010780D02*
X006280Y010780D01*
X005655Y010155D01*
X005530Y010312D02*
X005505Y010312D01*
X005505Y010411D02*
X005628Y010411D01*
X005727Y010509D02*
X005505Y010509D01*
X005505Y010608D02*
X005825Y010608D01*
X005924Y010707D02*
X005505Y010707D01*
X005505Y010805D02*
X006022Y010805D01*
X006121Y010904D02*
X005505Y010904D01*
X005505Y011002D02*
X018885Y011002D01*
X018885Y010904D02*
X010689Y010904D01*
X010788Y010805D02*
X018885Y010805D01*
X018885Y010707D02*
X010886Y010707D01*
X010985Y010608D02*
X013089Y010608D01*
X013222Y010608D02*
X018885Y010608D01*
X018885Y010509D02*
X013390Y010509D01*
X013456Y010411D02*
X018885Y010411D01*
X018885Y010312D02*
X013484Y010312D01*
X013483Y010214D02*
X018885Y010214D01*
X018885Y010115D02*
X013442Y010115D01*
X013383Y010017D02*
X018885Y010017D01*
X018885Y009918D02*
X013453Y009918D01*
X013484Y009820D02*
X018885Y009820D01*
X018885Y009721D02*
X013484Y009721D01*
X013445Y009623D02*
X018885Y009623D01*
X018885Y009524D02*
X013363Y009524D01*
X013155Y009780D02*
X012780Y009405D01*
X011905Y009405D01*
X011716Y009130D02*
X010594Y009130D01*
X010687Y009228D02*
X011623Y009228D01*
X011582Y009327D02*
X010728Y009327D01*
X010530Y009530D02*
X011530Y009530D01*
X011780Y009780D01*
X012530Y009780D01*
X013155Y010280D01*
X012920Y010509D02*
X011084Y010509D01*
X011182Y010411D02*
X012854Y010411D01*
X012827Y010312D02*
X011281Y010312D01*
X011518Y010214D02*
X012752Y010214D01*
X012629Y010115D02*
X011659Y010115D01*
X011714Y010017D02*
X012506Y010017D01*
X013083Y009425D02*
X018885Y009425D01*
X018885Y009327D02*
X012985Y009327D01*
X012886Y009228D02*
X018885Y009228D01*
X018885Y009130D02*
X012094Y009130D01*
X011405Y009905D02*
X010530Y010780D01*
X010310Y009721D02*
X009078Y009721D01*
X009115Y009623D02*
X010158Y009623D01*
X010099Y009524D02*
X009138Y009524D01*
X009147Y009355D02*
X008457Y009355D01*
X008457Y008665D01*
X008552Y008677D01*
X008646Y008702D01*
X008735Y008740D01*
X008819Y008788D01*
X008896Y008847D01*
X008965Y008916D01*
X009024Y008993D01*
X009073Y009077D01*
X009110Y009167D01*
X009135Y009260D01*
X009147Y009355D01*
X009144Y009327D02*
X010082Y009327D01*
X010077Y009425D02*
X008457Y009425D01*
X008457Y009455D02*
X008457Y009355D01*
X008357Y009355D01*
X008357Y008665D01*
X008262Y008677D01*
X008169Y008702D01*
X008079Y008740D01*
X007995Y008788D01*
X007918Y008847D01*
X007849Y008916D01*
X007790Y008993D01*
X007781Y009008D01*
X007772Y008993D01*
X007713Y008916D01*
X007644Y008847D01*
X007567Y008788D01*
X007483Y008740D01*
X007394Y008702D01*
X007300Y008677D01*
X007205Y008665D01*
X007205Y009355D01*
X007105Y009355D01*
X006415Y009355D01*
X006427Y009260D01*
X006452Y009167D01*
X006490Y009077D01*
X006538Y008993D01*
X006597Y008916D01*
X006666Y008847D01*
X006743Y008788D01*
X006827Y008740D01*
X006917Y008702D01*
X007010Y008677D01*
X007105Y008665D01*
X007105Y009355D01*
X007105Y009455D01*
X006415Y009455D01*
X006427Y009550D01*
X006452Y009644D01*
X006490Y009733D01*
X006538Y009817D01*
X006597Y009894D01*
X006666Y009963D01*
X006743Y010022D01*
X006827Y010071D01*
X006917Y010108D01*
X007010Y010133D01*
X007105Y010145D01*
X007105Y009455D01*
X007205Y009455D01*
X007205Y010145D01*
X007300Y010133D01*
X007394Y010108D01*
X007483Y010071D01*
X007567Y010022D01*
X007644Y009963D01*
X007713Y009894D01*
X007772Y009817D01*
X007781Y009802D01*
X007790Y009817D01*
X007849Y009894D01*
X007918Y009963D01*
X007995Y010022D01*
X008079Y010071D01*
X008169Y010108D01*
X008262Y010133D01*
X008357Y010145D01*
X008357Y009455D01*
X008357Y009355D01*
X007895Y009355D01*
X007205Y009355D01*
X007205Y009455D01*
X007667Y009455D01*
X008357Y009455D01*
X008457Y009455D01*
X008457Y009524D02*
X008357Y009524D01*
X008357Y009425D02*
X007205Y009425D01*
X007205Y009327D02*
X007105Y009327D01*
X007105Y009425D02*
X006355Y009425D01*
X006355Y009327D02*
X006418Y009327D01*
X006436Y009228D02*
X006355Y009228D01*
X006355Y009130D02*
X006468Y009130D01*
X006516Y009031D02*
X006355Y009031D01*
X006355Y008933D02*
X006584Y008933D01*
X006683Y008834D02*
X006355Y008834D01*
X006355Y008736D02*
X006836Y008736D01*
X007105Y008736D02*
X007205Y008736D01*
X007205Y008834D02*
X007105Y008834D01*
X007105Y008933D02*
X007205Y008933D01*
X007205Y009031D02*
X007105Y009031D01*
X007105Y009130D02*
X007205Y009130D01*
X007205Y009228D02*
X007105Y009228D01*
X007105Y009524D02*
X007205Y009524D01*
X007205Y009623D02*
X007105Y009623D01*
X007105Y009721D02*
X007205Y009721D01*
X007205Y009820D02*
X007105Y009820D01*
X007105Y009918D02*
X007205Y009918D01*
X007205Y010017D02*
X007105Y010017D01*
X007105Y010115D02*
X007205Y010115D01*
X007366Y010115D02*
X008196Y010115D01*
X008357Y010115D02*
X008457Y010115D01*
X008457Y010017D02*
X008357Y010017D01*
X008357Y009918D02*
X008457Y009918D01*
X008457Y009820D02*
X008357Y009820D01*
X008357Y009721D02*
X008457Y009721D01*
X008457Y009623D02*
X008357Y009623D01*
X008357Y009327D02*
X008457Y009327D01*
X008457Y009228D02*
X008357Y009228D01*
X008357Y009130D02*
X008457Y009130D01*
X008457Y009031D02*
X008357Y009031D01*
X008357Y008933D02*
X008457Y008933D01*
X008457Y008834D02*
X008357Y008834D01*
X008357Y008736D02*
X008457Y008736D01*
X008726Y008736D02*
X018885Y008736D01*
X018885Y008834D02*
X008880Y008834D01*
X008978Y008933D02*
X018885Y008933D01*
X018885Y009031D02*
X009046Y009031D01*
X009095Y009130D02*
X010216Y009130D01*
X010123Y009228D02*
X009126Y009228D01*
X008088Y008736D02*
X007474Y008736D01*
X007628Y008834D02*
X007935Y008834D01*
X007836Y008933D02*
X007726Y008933D01*
X007770Y009820D02*
X007792Y009820D01*
X007873Y009918D02*
X007689Y009918D01*
X007574Y010017D02*
X007988Y010017D01*
X006944Y010115D02*
X006398Y010115D01*
X006355Y010017D02*
X006736Y010017D01*
X006621Y009918D02*
X006355Y009918D01*
X006355Y009820D02*
X006540Y009820D01*
X006484Y009721D02*
X006355Y009721D01*
X006355Y009623D02*
X006447Y009623D01*
X006424Y009524D02*
X006355Y009524D01*
X006355Y008637D02*
X018885Y008637D01*
X018885Y008539D02*
X006355Y008539D01*
X006355Y008440D02*
X017860Y008440D01*
X017844Y008434D02*
X017766Y008355D01*
X014738Y008355D01*
X014572Y008355D01*
X013076Y006859D01*
X012965Y006859D01*
X012844Y006809D01*
X012752Y006716D01*
X012702Y006595D01*
X012702Y006465D01*
X012752Y006344D01*
X012844Y006252D01*
X012965Y006202D01*
X013095Y006202D01*
X013216Y006252D01*
X013309Y006344D01*
X013359Y006465D01*
X013359Y006576D01*
X014738Y007955D01*
X017766Y007955D01*
X017844Y007877D01*
X017965Y007827D01*
X018095Y007827D01*
X018216Y007877D01*
X018309Y007969D01*
X018359Y008090D01*
X018359Y008220D01*
X018309Y008341D01*
X018216Y008434D01*
X018095Y008484D01*
X017965Y008484D01*
X017844Y008434D01*
X018030Y008155D02*
X014655Y008155D01*
X013030Y006530D01*
X012800Y006765D02*
X012092Y006765D01*
X012143Y006710D02*
X012143Y006710D01*
X012164Y006666D02*
X012731Y006666D01*
X012702Y006568D02*
X012212Y006568D01*
X012259Y006469D02*
X012702Y006469D01*
X012741Y006371D02*
X012307Y006371D01*
X012354Y006272D02*
X012824Y006272D01*
X013237Y006272D02*
X018885Y006272D01*
X018885Y006174D02*
X012371Y006174D01*
X012386Y006075D02*
X018885Y006075D01*
X018885Y005976D02*
X012401Y005976D01*
X012415Y005878D02*
X018885Y005878D01*
X018885Y005779D02*
X012430Y005779D01*
X012415Y005681D02*
X018885Y005681D01*
X018885Y005582D02*
X012400Y005582D01*
X012385Y005484D02*
X018885Y005484D01*
X018885Y005385D02*
X012371Y005385D01*
X012357Y005294D02*
X012357Y005294D01*
X012353Y005287D02*
X018885Y005287D01*
X018885Y005188D02*
X012306Y005188D01*
X012258Y005090D02*
X018885Y005090D01*
X018885Y004991D02*
X012211Y004991D01*
X012164Y004892D02*
X018885Y004892D01*
X018885Y004794D02*
X012091Y004794D01*
X012143Y004851D02*
X012143Y004851D01*
X011999Y004695D02*
X018885Y004695D01*
X018885Y004597D02*
X011908Y004597D01*
X011816Y004498D02*
X018885Y004498D01*
X018885Y004400D02*
X011652Y004400D01*
X011809Y004490D02*
X011809Y004490D01*
X011482Y004301D02*
X018885Y004301D01*
X018885Y004203D02*
X011201Y004203D01*
X011383Y004244D02*
X011383Y004244D01*
X009672Y002725D02*
X018832Y002725D01*
X020190Y001542D02*
X009947Y001542D01*
X009993Y001443D02*
X020190Y001443D01*
X020190Y001345D02*
X010024Y001345D01*
X010024Y001246D02*
X020190Y001246D01*
X020190Y001148D02*
X010006Y001148D01*
X009965Y001049D02*
X020190Y001049D01*
X020190Y000951D02*
X009880Y000951D01*
X009712Y000852D02*
X020190Y000852D01*
X018885Y006371D02*
X013319Y006371D01*
X013359Y006469D02*
X018885Y006469D01*
X018885Y006568D02*
X013359Y006568D01*
X013449Y006666D02*
X018885Y006666D01*
X018885Y006765D02*
X013548Y006765D01*
X013646Y006863D02*
X018885Y006863D01*
X018885Y006962D02*
X013745Y006962D01*
X013843Y007060D02*
X018885Y007060D01*
X018885Y007159D02*
X013942Y007159D01*
X014040Y007258D02*
X018885Y007258D01*
X018885Y007356D02*
X014139Y007356D01*
X014237Y007455D02*
X018885Y007455D01*
X018885Y007553D02*
X014336Y007553D01*
X014435Y007652D02*
X018885Y007652D01*
X018885Y007750D02*
X014533Y007750D01*
X014632Y007849D02*
X017911Y007849D01*
X017773Y007947D02*
X014730Y007947D01*
X014362Y008144D02*
X006355Y008144D01*
X006355Y008046D02*
X014263Y008046D01*
X014164Y007947D02*
X006355Y007947D01*
X006355Y007849D02*
X014066Y007849D01*
X013967Y007750D02*
X006355Y007750D01*
X006355Y007652D02*
X013869Y007652D01*
X013770Y007553D02*
X006355Y007553D01*
X006355Y007455D02*
X013672Y007455D01*
X013573Y007356D02*
X011207Y007356D01*
X010903Y007425D02*
X010903Y007425D01*
X010330Y007356D02*
X006355Y007356D01*
X006355Y007258D02*
X010079Y007258D01*
X009955Y007209D02*
X009955Y007209D01*
X009892Y007159D02*
X008646Y007159D01*
X008850Y007060D02*
X009769Y007060D01*
X009645Y006962D02*
X008949Y006962D01*
X009040Y006863D02*
X009544Y006863D01*
X009571Y006902D02*
X009571Y006902D01*
X009477Y006765D02*
X009081Y006765D01*
X009122Y006666D02*
X009410Y006666D01*
X009342Y006568D02*
X009148Y006568D01*
X009148Y006469D02*
X009285Y006469D01*
X009255Y006371D02*
X009148Y006371D01*
X009132Y006272D02*
X009224Y006272D01*
X009194Y006174D02*
X009091Y006174D01*
X009051Y006075D02*
X009164Y006075D01*
X009149Y006026D02*
X009149Y006026D01*
X009149Y005976D02*
X008975Y005976D01*
X008876Y005878D02*
X009149Y005878D01*
X009149Y005779D02*
X008708Y005779D01*
X008106Y005779D02*
X007456Y005779D01*
X007624Y005878D02*
X007938Y005878D01*
X007840Y005976D02*
X007723Y005976D01*
X007155Y006456D02*
X006854Y006456D01*
X007155Y006456D02*
X008407Y006456D01*
X007865Y006962D02*
X007697Y006962D01*
X007598Y007060D02*
X007964Y007060D01*
X008168Y007159D02*
X007394Y007159D01*
X006916Y007159D02*
X006434Y007159D01*
X006533Y007060D02*
X006712Y007060D01*
X006355Y008243D02*
X014460Y008243D01*
X014559Y008341D02*
X006355Y008341D01*
X005505Y011101D02*
X018885Y011101D01*
X018885Y011199D02*
X005505Y011199D01*
X005505Y011298D02*
X018885Y011298D01*
X018885Y011396D02*
X005505Y011396D01*
X005505Y011495D02*
X018885Y011495D01*
X018885Y011593D02*
X005588Y011593D01*
X005687Y011692D02*
X006818Y011692D01*
X006671Y011791D02*
X005785Y011791D01*
X005884Y011889D02*
X006573Y011889D01*
X006505Y011988D02*
X005983Y011988D01*
X004824Y013269D02*
X011759Y013269D01*
X011660Y013367D02*
X004726Y013367D01*
X004627Y013466D02*
X011562Y013466D01*
X011463Y013564D02*
X004529Y013564D01*
X004430Y013663D02*
X011365Y013663D01*
X011266Y013761D02*
X004332Y013761D01*
X004233Y013860D02*
X011167Y013860D01*
X011069Y013958D02*
X004135Y013958D01*
X004036Y014057D02*
X010970Y014057D01*
X010872Y014156D02*
X003937Y014156D01*
X003839Y014254D02*
X010773Y014254D01*
X010675Y014353D02*
X004033Y014353D01*
X004166Y014451D02*
X010576Y014451D01*
X010655Y014655D02*
X010655Y018655D01*
X010931Y018294D02*
X011379Y018294D01*
X011455Y018196D02*
X010855Y018196D01*
X010855Y018097D02*
X011455Y018097D01*
X011455Y017999D02*
X010855Y017999D01*
X010855Y017900D02*
X011455Y017900D01*
X011455Y017802D02*
X010855Y017802D01*
X010855Y017703D02*
X011455Y017703D01*
X011455Y017605D02*
X010855Y017605D01*
X010855Y017506D02*
X011455Y017506D01*
X011455Y017407D02*
X010855Y017407D01*
X010855Y017309D02*
X011455Y017309D01*
X011455Y017210D02*
X010855Y017210D01*
X010855Y017112D02*
X011455Y017112D01*
X011455Y017013D02*
X010855Y017013D01*
X010855Y016915D02*
X011455Y016915D01*
X011455Y016816D02*
X010855Y016816D01*
X010855Y016718D02*
X011455Y016718D01*
X011455Y016619D02*
X010855Y016619D01*
X010855Y016521D02*
X011455Y016521D01*
X011455Y016422D02*
X010855Y016422D01*
X010855Y016324D02*
X011455Y016324D01*
X011455Y016225D02*
X010855Y016225D01*
X010655Y014655D02*
X012655Y012655D01*
X010530Y009530D02*
X010405Y009405D01*
X011484Y007258D02*
X013475Y007258D01*
X013376Y007159D02*
X011655Y007159D01*
X011809Y007070D02*
X011809Y007070D01*
X011818Y007060D02*
X013278Y007060D01*
X013179Y006962D02*
X011909Y006962D01*
X012001Y006863D02*
X013081Y006863D01*
X008889Y002725D02*
X005581Y002725D01*
X007412Y004203D02*
X008150Y004203D01*
X007956Y004104D02*
X007606Y004104D01*
X007704Y004006D02*
X007858Y004006D01*
X008070Y011692D02*
X007492Y011692D01*
X007639Y011791D02*
X007923Y011791D01*
X007825Y011889D02*
X007737Y011889D01*
X007780Y012776D02*
X007782Y012776D01*
X007880Y012874D02*
X007682Y012874D01*
X007583Y012973D02*
X007979Y012973D01*
X008205Y013072D02*
X007358Y013072D01*
X007510Y014648D02*
X008052Y014648D01*
X007916Y014747D02*
X007646Y014747D01*
X007745Y014845D02*
X007817Y014845D01*
X006734Y015929D02*
X000805Y015929D01*
X000805Y015831D02*
X006636Y015831D01*
X006537Y015732D02*
X000805Y015732D01*
X000805Y015634D02*
X006491Y015634D01*
X007161Y017506D02*
X007249Y017506D01*
X007348Y017605D02*
X007063Y017605D01*
X009864Y019083D02*
X010446Y019083D01*
X010348Y018984D02*
X009962Y018984D01*
X010061Y018886D02*
X010249Y018886D01*
X010205Y018787D02*
X010105Y018787D01*
X010105Y018689D02*
X010205Y018689D01*
X010205Y018590D02*
X010105Y018590D01*
X010105Y018491D02*
X010205Y018491D01*
X010281Y018393D02*
X010029Y018393D01*
X009916Y019280D02*
X010394Y019280D01*
X010295Y019378D02*
X010015Y019378D01*
X010105Y019477D02*
X010205Y019477D01*
X010205Y019575D02*
X010105Y019575D01*
X010605Y019871D02*
X010705Y019871D01*
X010705Y019970D02*
X010605Y019970D01*
X010605Y020068D02*
X010705Y020068D01*
X011061Y018886D02*
X011249Y018886D01*
X011205Y018787D02*
X011105Y018787D01*
X011105Y018689D02*
X011205Y018689D01*
X011205Y018590D02*
X011105Y018590D01*
X011105Y018491D02*
X011205Y018491D01*
X011281Y018393D02*
X011029Y018393D01*
X009148Y012283D02*
X018885Y012283D01*
X018885Y012185D02*
X009139Y012185D01*
X009098Y012086D02*
X018885Y012086D01*
X018885Y011988D02*
X009057Y011988D01*
X008989Y011889D02*
X018885Y011889D01*
X018885Y011791D02*
X008891Y011791D01*
X008744Y011692D02*
X018885Y011692D01*
X018885Y008440D02*
X018200Y008440D01*
X018308Y008341D02*
X018885Y008341D01*
X018885Y008243D02*
X018349Y008243D01*
X018359Y008144D02*
X018885Y008144D01*
X018885Y008046D02*
X018340Y008046D01*
X018287Y007947D02*
X018885Y007947D01*
X018885Y007849D02*
X018149Y007849D01*
X004655Y013155D02*
X003655Y014155D01*
X002569Y014155D01*
D19*
X003905Y014655D03*
X003905Y012655D03*
X003905Y010655D03*
X003530Y009655D03*
X003905Y008655D03*
X004655Y007405D03*
X004155Y006530D03*
X003155Y006655D03*
X003155Y004655D03*
X009280Y004155D03*
X009280Y003655D03*
X009280Y003155D03*
X010780Y001655D03*
X010780Y001155D03*
X013780Y005405D03*
X014280Y005405D03*
X013030Y006530D03*
X011905Y009405D03*
X011405Y009905D03*
X010905Y009905D03*
X010405Y009405D03*
X013155Y009780D03*
X013155Y010280D03*
X015405Y013030D03*
X015905Y012655D03*
X016405Y013780D03*
X016905Y013405D03*
X014905Y014155D03*
X013530Y015655D03*
X013030Y015655D03*
X014155Y015905D03*
X014155Y017530D03*
X012155Y017655D03*
X018030Y008155D03*
X016530Y005405D03*
X016030Y005405D03*
D20*
X012780Y002280D02*
X012905Y002155D01*
X012780Y002280D02*
X009280Y002280D01*
X009280Y001280D02*
X006530Y001280D01*
X005155Y002655D01*
X005155Y011655D01*
X005854Y012354D01*
X007155Y012354D01*
X008407Y012354D01*
D21*
X016155Y019655D03*
X019155Y002905D03*
X012905Y002155D03*
D22*
X019155Y002905D02*
X019155Y016655D01*
X016155Y019655D01*
M02*
